<svg width="253" height="235" viewBox="0 0 253 235" fill="none" xmlns="http://www.w3.org/2000/svg">
<path d="M52.7089 205.625C43.7485 205.625 37.3813 201.914 33.6074 194.492C29.8335 187.07 30.7541 180.173 36.3693 173.802L94.8756 107.708V48.9583H84.3339C81.3471 48.9583 78.8452 48.0183 76.8282 46.1383C74.8113 44.2583 73.7993 41.9344 73.7922 39.1667C73.7852 36.3989 74.7972 34.075 76.8282 32.195C78.8593 30.315 81.3611 29.375 84.3339 29.375H168.667C171.654 29.375 174.159 30.315 176.183 32.195C178.207 34.075 179.216 36.3989 179.209 39.1667C179.202 41.9344 178.19 44.2616 176.173 46.1481C174.156 48.0347 171.654 48.9714 168.667 48.9583H158.126V107.708L216.632 173.802C222.254 180.167 223.178 187.063 219.404 194.492C215.63 201.921 209.26 205.632 200.292 205.625H52.7089Z" fill="#14AE5C"/>
</svg>
