<svg width="137" height="137" viewBox="0 0 137 137" fill="none" xmlns="http://www.w3.org/2000/svg">
<path d="M113.772 101.482C113.783 102.559 113.505 103.967 113.216 105.128C111.195 113.29 102.222 122.45 89.591 121.617C78.1439 120.863 68.8203 115.368 68.8203 107.662C68.8203 99.9558 78.1211 93.707 89.591 93.707C101.061 93.707 113.699 93.7755 113.772 101.482Z" fill="#EA596E"/>
<path d="M89.5907 95.002C83.4295 95.002 69.368 96.7068 66.1409 96.7068C60.4402 96.7068 55.8164 100.284 55.8164 104.699C55.8164 106.822 56.9048 108.74 58.6477 110.171C58.6477 110.171 62.4761 114.011 69.3718 112.169C72.3896 111.362 77.2988 105.372 85.9412 104.421C90.2453 103.945 98.3092 107.275 112.481 107.355C113.09 106.046 113.216 105.136 113.216 105.136C113.216 97.4223 101.061 95.002 89.5907 95.002Z" fill="#DD2E44"/>
<path d="M113.216 105.128C113.216 105.128 121.527 103.442 126.695 96.6457C132.719 88.7187 131.928 80.2361 131.928 80.2361C138.032 68.8194 130.025 58.1144 130.025 58.1144C129.23 46.0622 121.778 41.0693 121.778 41.0693C116.941 29.5727 106.24 26.4826 106.24 26.4826C97.8376 16.6529 82.9312 16.9687 82.9312 16.9687C82.9312 16.9687 68.9648 11.8503 49.7924 17.6043C46.6224 18.5557 35.9973 20.7743 28.2263 25.5312C3.73379 40.5251 1.88048 63.9065 2.22298 67.7082C4.12195 88.9546 19.0283 92.7602 28.5422 94.9788C30.7608 101.003 38.9276 112.104 53.5942 107.982C71.6706 104.812 79.2817 99.4199 83.7228 99.4199C88.1638 99.4199 100.532 104.177 113.216 105.128Z" fill="#F4ABBA"/>
<path d="M67.5 70.9659C76.3594 66.1899 81.162 66.6352 85.4014 67.0195C86.7485 67.1413 88.0234 67.2365 89.3135 67.2288C96.8637 67.0576 102.979 63.8761 105.685 60.7975C105.995 60.4149 106.145 59.9271 106.104 59.4363C106.063 58.9454 105.833 58.4897 105.463 58.1645C105.093 57.8393 104.611 57.6699 104.119 57.6918C103.627 57.7137 103.163 57.9252 102.823 58.282C100.738 60.6566 95.5965 63.2787 89.226 63.4233C88.0843 63.4575 86.9388 63.3434 85.7515 63.233C81.2039 62.8106 75.5564 62.293 65.6924 67.617C63.1617 68.9832 59.691 69.4893 55.9312 69.8699C47.5703 57.8025 52.6013 47.2915 54.0398 44.7875C54.1806 44.7951 54.3176 44.8408 54.4622 44.8408C55.9844 44.8408 57.5143 44.4678 58.8995 43.6839C59.3215 43.427 59.627 43.016 59.7514 42.5379C59.8759 42.0598 59.8095 41.552 59.5663 41.122C59.3231 40.6919 58.9222 40.3733 58.4483 40.2336C57.9744 40.0938 57.4648 40.1438 57.0272 40.373C55.8299 41.0321 54.4282 41.2152 53.1018 40.8857C51.7755 40.5563 50.6224 39.7385 49.8727 38.5958C49.5897 38.1968 49.1639 37.9221 48.6837 37.8287C48.2035 37.7354 47.7058 37.8306 47.2939 38.0946C46.882 38.3585 46.5876 38.771 46.4719 39.2463C46.3561 39.7216 46.4279 40.2232 46.6722 40.647C47.5742 42.0589 48.8452 43.1206 50.2799 43.8323C48.2972 47.8586 44.5335 58.4456 51.6956 70.2847C46.657 70.7794 41.6108 71.4911 37.6607 74.037C34.8853 75.8573 32.4636 78.1667 30.5138 80.8527C28.1202 80.4417 19.356 78.284 17.8261 68.557C18.7775 67.8187 19.5462 66.8445 20.0219 65.6419C20.1139 65.4095 20.1592 65.1613 20.1552 64.9114C20.1512 64.6616 20.0981 64.4149 19.9988 64.1856C19.8995 63.9562 19.756 63.7487 19.5765 63.5748C19.397 63.4009 19.185 63.2641 18.9526 63.1721C18.7202 63.0802 18.472 63.0349 18.2221 63.0389C17.9722 63.0428 17.7255 63.096 17.4962 63.1953C17.2669 63.2946 17.0593 63.4381 16.8854 63.6176C16.7115 63.7971 16.5747 64.0091 16.4828 64.2415C16.3393 64.6417 16.1105 65.006 15.8121 65.3089C15.5138 65.6119 15.1531 65.8463 14.755 65.9958C14.3519 66.129 13.9248 66.1742 13.5026 66.1282C13.0805 66.0823 12.6732 65.9463 12.3081 65.7295C12.0897 65.608 11.8495 65.5308 11.6013 65.5022C11.353 65.4735 11.1016 65.4941 10.8613 65.5626C10.376 65.7011 9.96555 66.0267 9.72029 66.4677C9.47503 66.9088 9.41503 67.4292 9.55348 67.9145C9.69194 68.3998 10.0175 68.8103 10.4586 69.0555C11.5393 69.6568 12.6962 69.9612 13.8455 69.9612C13.9863 69.9612 14.1195 69.8965 14.2603 69.8889C16.0718 79.0717 23.329 83.1056 28.4627 84.3272C27.7912 85.7579 27.3653 87.2914 27.203 88.8634C27.1587 89.366 27.3158 89.8657 27.6398 90.2525C27.9638 90.6393 28.4281 90.8816 28.9307 90.926L29.102 90.9336C29.5776 90.9336 30.036 90.7554 30.3867 90.4342C30.7375 90.113 30.9553 89.6721 30.9972 89.1983C31.4082 84.5822 35.8112 79.7605 39.7233 77.2298C43.3918 74.8666 48.7615 74.3681 53.9599 73.8848C59.0022 73.4243 63.7668 72.9828 67.5 70.9659ZM116.462 65.2423C116.22 65.6854 116.164 66.2066 116.306 66.6912C116.448 67.1758 116.777 67.5841 117.22 67.8263C117.663 68.0685 118.184 68.1248 118.668 67.9828C119.153 67.8408 119.561 67.5121 119.804 67.069C119.876 66.9396 126.813 53.9437 113.825 45.2099C113.406 44.9283 112.893 44.8246 112.397 44.9217C111.902 45.0188 111.466 45.3086 111.184 45.7275C110.902 46.1463 110.799 46.6599 110.896 47.1552C110.993 47.6505 111.283 48.0869 111.702 48.3685C121.763 55.1348 116.683 64.8313 116.462 65.2423ZM37.5846 34.5163C37.8864 34.5164 38.184 34.4446 38.4526 34.307C38.7213 34.1693 38.9533 33.9698 39.1296 33.7247C44.6477 26.0489 52.2892 28.6748 52.6127 28.7965C53.0814 28.9512 53.5919 28.9178 54.0364 28.7032C54.4808 28.4886 54.8245 28.1097 54.9949 27.6465C55.1653 27.1832 55.149 26.6719 54.9495 26.2205C54.75 25.769 54.3829 25.4128 53.9256 25.2269C50.2723 23.8722 41.8354 23.4459 36.0395 31.5061C35.8361 31.7904 35.7149 32.1252 35.6892 32.4738C35.6635 32.8224 35.7344 33.1714 35.894 33.4824C36.0536 33.7934 36.2959 34.0544 36.5941 34.2368C36.8923 34.4192 37.235 34.5159 37.5846 34.5163ZM87.3308 27.3314C95.7982 26.6426 99.6494 32.781 99.8244 33.0702C100.08 33.5057 100.499 33.8217 100.988 33.9488C101.23 34.0117 101.482 34.0263 101.729 33.9917C101.977 33.9572 102.216 33.8743 102.431 33.7476C102.647 33.6209 102.835 33.453 102.986 33.2534C103.137 33.0538 103.247 32.8265 103.31 32.5845C103.373 32.3424 103.387 32.0903 103.353 31.8426C103.318 31.5949 103.235 31.3564 103.109 31.1408C102.903 30.7945 98.0092 22.7 87.034 23.5373C86.7848 23.5568 86.542 23.6251 86.3193 23.7385C86.0966 23.8518 85.8984 24.0079 85.736 24.1978C85.4081 24.5815 85.2459 25.0796 85.2853 25.5827C85.3247 26.0859 85.5623 26.5528 85.9459 26.8807C86.3295 27.2086 86.8277 27.3708 87.3308 27.3314ZM122.152 82.9344C121.215 82.8811 120.184 83.6232 120.1 84.6735C120.093 84.742 119.488 91.2153 112.832 93.4035C112.397 93.5402 112.025 93.829 111.785 94.2171C111.546 94.6052 111.454 95.0666 111.526 95.517C111.599 95.9674 111.831 96.3766 112.18 96.6698C112.53 96.963 112.973 97.1207 113.429 97.1139C113.631 97.1138 113.831 97.0817 114.023 97.0187C123.05 94.058 123.864 85.3585 123.895 84.9894C123.915 84.7399 123.887 84.4888 123.81 84.2504C123.734 84.0121 123.611 83.7911 123.45 83.6002C123.288 83.4093 123.09 83.2522 122.867 83.138C122.644 83.0237 122.401 82.9545 122.152 82.9344Z" fill="#EA596E"/>
<path d="M27.9594 64.4434C27.8845 64.6875 27.8596 64.9442 27.886 65.1982C27.9125 65.4522 27.9898 65.6983 28.1134 65.9218C28.2369 66.1452 28.4042 66.3416 28.6053 66.499C28.8063 66.6565 29.037 66.7719 29.2836 66.8383C29.5301 66.9047 29.7875 66.9209 30.0405 66.8857C30.2934 66.8506 30.5367 66.7649 30.7558 66.6337C30.9749 66.5026 31.1654 66.3286 31.3159 66.1223C31.4664 65.916 31.5738 65.6815 31.6317 65.4328C31.9981 64.1142 32.8501 62.9833 34.0165 62.2674C35.1828 61.5515 36.5769 61.3038 37.9185 61.574C38.1631 61.6252 38.4154 61.6277 38.6611 61.5814C38.9067 61.5351 39.1408 61.4409 39.35 61.3042C39.5592 61.1674 39.7394 60.9908 39.8803 60.7844C40.0212 60.578 40.1202 60.3458 40.1714 60.1012C40.2226 59.8566 40.2251 59.6043 40.1789 59.3586C40.1326 59.113 40.0384 58.879 39.9016 58.6698C39.7648 58.4606 39.5882 58.2803 39.3818 58.1394C39.1754 57.9985 38.9433 57.8995 38.6986 57.8483C37.115 57.5263 35.4738 57.6394 33.9493 58.1756C29.512 50.5873 30.3759 43.1056 30.3873 43.0257C30.4544 42.5256 30.32 42.0193 30.0139 41.6183C29.7077 41.2172 29.2548 40.9541 28.7547 40.887C28.2563 40.8229 27.7526 40.9573 27.3525 41.2614C26.9524 41.5654 26.6878 42.0146 26.616 42.5119C26.5665 42.8811 25.5504 51.3256 30.6613 60.0708C29.3606 61.2396 28.4228 62.7572 27.9594 64.4434ZM70.5017 55.0436C71.2618 54.3532 72.2546 53.9755 73.2814 53.9861C74.3082 53.9967 75.293 54.3948 76.0387 55.1007C76.4011 55.4519 76.8881 55.6448 77.3927 55.637C77.8972 55.6291 78.378 55.4212 78.7293 55.0589C79.081 54.697 79.2746 54.2103 79.2674 53.7057C79.2603 53.2011 79.053 52.7201 78.6912 52.3683C77.832 51.5501 76.7933 50.9441 75.6582 50.5987C76.7846 46.7323 76.3394 45.016 75.2929 41.8003C75.0859 41.1711 74.8867 40.5393 74.6954 39.9051L74.5812 39.5246C73.196 34.9275 72.2789 31.8944 74.9123 27.6132C75.1767 27.1832 75.2595 26.6658 75.1425 26.1748C75.0255 25.6838 74.7181 25.2594 74.2882 24.995C73.8582 24.7305 73.3408 24.6477 72.8498 24.7648C72.3588 24.8818 71.9344 25.1891 71.67 25.6191C68.1384 31.3579 69.4361 35.6543 70.9393 40.6282L71.0535 41.0087C71.2767 41.7445 71.4835 42.4003 71.6738 42.9762C72.6137 45.8722 72.8992 46.8427 71.7499 50.3438C70.3111 50.6008 68.9767 51.2667 67.9063 52.2618C67.5505 52.6091 67.3449 53.0818 67.3333 53.5789C67.3217 54.0759 67.5051 54.5577 67.8442 54.9213C68.1834 55.2848 68.6514 55.5011 69.148 55.524C69.6447 55.5469 70.1305 55.3744 70.5017 55.0436ZM94.724 43.684C95.8541 43.6875 96.9708 43.4392 97.993 42.9572C98.4497 42.7422 98.8023 42.3546 98.9732 41.8797C99.1442 41.4047 99.1194 40.8813 98.9044 40.4246C98.6894 39.9679 98.3018 39.6153 97.8269 39.4444C97.3519 39.2734 96.8285 39.2982 96.3718 39.5132C95.4366 39.9424 94.3736 40.0017 93.3965 39.679C92.4194 39.3564 91.6006 38.6757 91.1049 37.774C90.9918 37.5454 90.8339 37.3418 90.6406 37.1754C90.4473 37.009 90.2224 36.8832 89.9795 36.8055C89.7366 36.7277 89.4805 36.6996 89.2264 36.7228C88.9724 36.7459 88.7257 36.82 88.5008 36.9404C88.276 37.0609 88.0776 37.2253 87.9176 37.424C87.7576 37.6226 87.6392 37.8514 87.5693 38.0967C87.4995 38.3421 87.4797 38.5989 87.5111 38.8521C87.5425 39.1052 87.6245 39.3494 87.7522 39.5702C88.4372 40.8489 89.4571 41.8574 90.6445 42.5576C88.6009 47.5239 89.7616 52.7984 90.7092 55.5954C90.7816 55.8409 90.9029 56.0692 91.0656 56.2667C91.2284 56.4642 91.4293 56.6269 91.6564 56.7449C91.8835 56.863 92.1321 56.934 92.3872 56.9537C92.6424 56.9735 92.8989 56.9416 93.1415 56.8599C93.384 56.7782 93.6076 56.6484 93.7988 56.4782C93.99 56.3081 94.1449 56.1012 94.2543 55.8698C94.3637 55.6384 94.4253 55.3874 94.4354 55.1316C94.4454 54.8759 94.4038 54.6207 94.313 54.3815C93.6737 52.4863 92.4331 47.6989 94.3054 43.627C94.45 43.6346 94.5832 43.684 94.724 43.684ZM112.979 79.5666C112.965 79.3167 112.901 79.0722 112.791 78.8472C112.681 78.6222 112.528 78.4212 112.34 78.2559C112.152 78.0906 111.933 77.9642 111.696 77.8842C111.459 77.8041 111.208 77.7719 110.959 77.7894C110.046 77.8525 109.13 77.7347 108.263 77.4428C107.396 77.1508 106.596 76.6906 105.907 76.0884C105.219 75.4862 104.656 74.754 104.251 73.9337C103.847 73.1134 103.608 72.2213 103.549 71.3086C103.505 70.8086 103.27 70.345 102.892 70.015C102.513 69.6851 102.022 69.5145 101.521 69.539C101.271 69.5559 101.028 69.6218 100.804 69.7329C100.58 69.844 100.38 69.9982 100.216 70.1865C100.051 70.3749 99.9257 70.5938 99.846 70.8307C99.7663 71.0676 99.7341 71.318 99.7512 71.5673C99.9072 73.8126 100.763 75.8372 102.065 77.485C99.0053 81.085 94.998 82.1087 92.7642 82.3713C90.7891 82.6073 89.0614 82.4056 87.0634 82.1696C85.233 81.9603 83.1627 81.7206 80.6016 81.7967L80.5826 81.8005C80.5065 80.7121 80.2477 79.1252 79.4219 77.8047C79.138 77.4136 78.7162 77.145 78.2418 77.053C77.7674 76.9611 77.2757 77.0527 76.8663 77.3094C76.4569 77.5661 76.1602 77.9686 76.0362 78.4357C75.9123 78.9028 75.9703 79.3995 76.1986 79.8254C76.7085 80.6436 76.8037 81.9489 76.8037 82.5844C74.8857 83.2732 73.2264 84.2855 71.727 85.2635C69.0479 87.0065 66.9359 88.3841 63.7582 87.6687C60.8812 87.0103 58.0004 86.8771 55.5572 87.2196C55.1767 86.2644 54.5754 85.1227 53.6469 84.2437C53.28 83.897 52.7904 83.7102 52.2858 83.7245C51.7813 83.7388 51.303 83.9529 50.9563 84.3198C50.6096 84.6866 50.4229 85.1762 50.4372 85.6808C50.4514 86.1854 50.6656 86.6636 51.0324 87.0103C51.3597 87.3185 51.6185 87.7676 51.8278 88.2167C47.6303 89.9444 45.5258 92.8328 45.4269 92.9736C45.225 93.2578 45.1052 93.592 45.0807 93.9397C45.0561 94.2874 45.1278 94.6351 45.2877 94.9448C45.4477 95.2545 45.6898 95.5142 45.9875 95.6955C46.2853 95.8767 46.6271 95.9725 46.9757 95.9724C47.2766 95.9738 47.5735 95.9038 47.8421 95.7682C48.1107 95.6325 48.3433 95.4352 48.5208 95.1922C48.5398 95.1618 50.629 92.3647 54.7505 91.2345C56.8816 90.6484 59.9374 90.6979 62.9172 91.3753C63.7506 91.5655 64.5231 91.6302 65.2728 91.6416C65.6267 92.4713 65.7637 93.4569 65.7828 93.8222C65.81 94.3075 66.0219 94.764 66.375 95.098C66.7281 95.432 67.1957 95.6182 67.6817 95.6185L67.7845 95.6147C68.2866 95.5881 68.7578 95.3638 69.0951 94.9909C69.4324 94.6179 69.6084 94.1266 69.5845 93.6243C69.5218 92.7379 69.3558 91.8617 69.0898 91.0137C70.8442 90.3782 72.3702 89.385 73.8049 88.4526C75.9817 87.0331 78.0405 85.6898 80.731 85.6022C82.9839 85.5223 84.841 85.7392 86.6334 85.9485C88.4372 86.1578 90.2106 86.2948 92.1667 86.1807C92.513 87.1435 92.4864 88.4298 92.4331 88.8598C92.4009 89.1277 92.4257 89.3995 92.5059 89.6571C92.5861 89.9148 92.72 90.1526 92.8986 90.355C93.0772 90.5573 93.2965 90.7195 93.5423 90.8311C93.788 90.9427 94.0546 91.001 94.3244 91.0023C94.7857 91.0016 95.2311 90.8334 95.5776 90.5288C95.9241 90.2243 96.1482 89.8043 96.2082 89.3469C96.3463 88.0988 96.2703 86.8362 95.9837 85.6137C99.4557 84.6924 102.567 82.7407 104.908 80.0157C106.794 81.1826 108.997 81.7321 111.21 81.5874C111.712 81.5532 112.18 81.3213 112.512 80.9426C112.844 80.5638 113.012 80.069 112.979 79.5666Z" fill="#EA596E"/>
</svg>
