<svg width="52" height="52" viewBox="0 0 52 52" fill="none" xmlns="http://www.w3.org/2000/svg">
<g clip-path="url(#clip0_618_557)">
<path d="M6.90092 2.51054C4.76112 2.50118 3.33892 2.54694 3.33892 2.54694C3.00149 2.55761 2.68144 2.69912 2.44649 2.94155C2.21153 3.18398 2.0801 3.5083 2.08 3.8459V6.49998H1.2844C0.943798 6.50012 0.617186 6.63548 0.376344 6.87632C0.135502 7.11717 0.000137812 7.44378 0 7.78438L0 44.2156C0.000137812 44.5562 0.135502 44.8828 0.376344 45.1236C0.617186 45.3645 0.943798 45.4998 1.2844 45.5H23.868C25.2335 46.4188 26.9916 46.2082 28.132 45.5H50.7156C51.0562 45.4998 51.3828 45.3645 51.6237 45.1236C51.8645 44.8828 51.9999 44.5562 52 44.2156V7.78438C51.9999 7.44378 51.8645 7.11717 51.6237 6.87632C51.3828 6.63548 51.0562 6.50012 50.7156 6.49998H49.92V3.8459C49.9199 3.50821 49.7884 3.18382 49.5533 2.94138C49.3183 2.69893 48.9981 2.55748 48.6606 2.54694C48.6606 2.54694 47.2389 2.50118 45.0986 2.51054C42.9593 2.5199 40.1024 2.58386 37.232 2.8033C34.3616 3.0217 31.4818 3.3857 29.1944 4.05234C28.0504 4.38514 27.0488 4.78398 26.2293 5.37262C26.1513 5.42878 26.0754 5.49066 26 5.55254C25.9255 5.4901 25.849 5.43009 25.7707 5.37262C24.9512 4.78398 23.9496 4.38566 22.8056 4.05234C20.5182 3.38622 17.6384 3.02222 14.768 2.8033C11.8976 2.58386 9.04072 2.5199 6.90092 2.51054ZM45.0928 3.81054C47.2092 3.80118 48.62 3.8459 48.62 3.8459V40.2459C48.62 40.2459 28.8995 39.4794 26.2844 43.5146C26.103 43.7861 25.922 43.8032 25.741 43.5552C23.2305 39.4747 3.38 40.2459 3.38 40.2459V3.8459C3.38 3.8459 4.79076 3.80222 6.90716 3.81158C13.2564 3.83966 25.9594 4.35238 26 8.0059C26.0406 4.35238 38.7436 3.83862 45.0928 3.81054ZM2.5688 41.262C2.81267 41.4568 3.11852 41.5574 3.43044 41.5454C3.43044 41.5454 9.0038 41.3311 14.5475 41.7352C17.3191 41.9369 20.0866 42.3035 22.0449 42.8792C22.0995 42.8958 22.1463 42.914 22.1998 42.9307H2.56932L2.5688 41.262ZM49.4302 41.262V42.9307H29.7996C29.8532 42.914 29.9 42.8958 29.9546 42.8797C31.9129 42.3035 34.6804 41.9369 37.452 41.7352C42.9952 41.3311 48.5696 41.5454 48.5696 41.5454C48.8813 41.5573 49.1864 41.4567 49.4302 41.262Z" fill="#731515"/>
<path d="M45.0876 5.1115C42.9946 5.12086 40.2068 5.18274 37.429 5.3949C34.6512 5.60706 31.8791 5.97834 29.9202 6.54878C28.9411 6.83374 28.1709 7.17902 27.7456 7.48426C27.3207 7.78898 27.301 7.91326 27.2999 8.01986V14.12C27.3233 14.1075 27.3519 14.094 27.3577 14.0836C27.3639 14.071 27.3729 14.06 27.3839 14.0513C27.395 14.0427 27.4079 14.0366 27.4216 14.0337C27.5022 14.016 27.6208 14.0909 27.6899 14.2229C27.7747 14.3841 27.7752 14.4117 27.7003 14.5453C27.6546 14.6265 27.536 14.7481 27.4372 14.8147C27.3727 14.8584 27.341 14.8943 27.2999 14.9327V23.1753C27.3935 23.0203 27.4112 22.8601 27.354 22.6308C27.2968 22.4031 27.302 22.3698 27.4596 22.0541C27.613 21.7458 27.7617 21.5367 28.0446 21.2336C28.1082 21.1599 28.1464 21.0676 28.1532 20.9705C28.1532 20.8769 28.2172 20.7495 28.3316 20.6158C28.6561 20.2373 28.6899 20.0199 28.4148 20.0688C28.2432 20.1 28.2448 20.1119 28.2375 19.4604C28.2344 19.19 28.2562 19.0485 28.3072 18.9976C28.3529 18.9518 28.5318 18.9071 28.7715 18.8806L29.1615 18.8369V18.6336C29.1615 18.3881 29.0294 18.1781 28.8896 18.203C28.7622 18.2259 28.6961 18.0772 28.796 17.9919C28.8546 17.9513 28.925 17.9316 28.9962 17.9357C29.1043 17.9435 29.1178 17.929 29.0924 17.8312C29.0674 17.7355 29.082 17.7179 29.1787 17.7257C29.2889 17.734 29.5281 17.5645 29.4735 17.5166C29.4465 17.4932 28.9691 17.6549 28.7409 17.7641C28.6161 17.8245 28.6155 17.8213 28.7003 17.6789C28.7658 17.5691 28.7731 17.5177 28.7278 17.4688C28.6826 17.4194 28.6925 17.3819 28.7695 17.3076C28.8475 17.2311 28.8527 17.2119 28.7908 17.2197C28.7346 17.2275 28.7492 17.1901 28.8396 17.0949C28.9541 16.9753 28.9593 16.9524 28.8885 16.8905C28.8173 16.8292 28.8001 16.8333 28.7341 16.9285C28.6975 16.9802 28.6704 17.0379 28.654 17.0991C28.6504 17.1339 28.6447 17.2124 28.6395 17.2748C28.6343 17.3539 28.5687 17.4189 28.42 17.4943C28.1408 17.6352 28.1184 17.6373 28.0862 17.5125C28.0706 17.4537 28.082 17.4017 28.1117 17.3965C28.1418 17.3913 28.1512 17.3305 28.1325 17.2577C28.0883 17.0803 28.147 16.9301 28.2521 16.954C28.2978 16.9644 28.3186 16.9566 28.2973 16.9384C28.2349 16.8838 28.4169 16.6836 28.5209 16.694C28.5854 16.6997 28.6265 16.6638 28.6457 16.5822C28.6613 16.5156 28.6535 16.4647 28.6275 16.4693C28.5755 16.4787 28.6197 16.1625 28.6935 15.9982C28.7201 15.9384 28.8012 15.8817 28.8781 15.8682C28.9879 15.8485 29.0102 15.8661 28.9879 15.9603C28.9671 16.0466 28.9847 16.0715 29.0601 16.058C29.1745 16.0372 29.1875 16.1033 29.1049 16.2806C29.0633 16.37 29.0669 16.421 29.1168 16.4756C29.1979 16.5635 29.2973 16.7205 29.3716 16.8807C29.4018 16.9451 29.4626 17.0055 29.5079 17.0159C29.5692 17.0294 29.5807 17.0824 29.5557 17.2301C29.5229 17.4199 29.5255 17.4235 29.6472 17.3429C29.7164 17.2967 29.8095 17.1739 29.8531 17.0684C29.9124 16.9264 29.9837 16.8552 30.1313 16.7902C30.3029 16.7153 30.3295 16.681 30.3295 16.5458C30.3295 16.4589 30.3071 16.3919 30.2775 16.3971C30.161 16.4179 30.2244 16.0809 30.3643 15.941C30.4407 15.8641 30.5219 15.798 30.5437 15.7939C30.6222 15.7798 30.6373 16.1371 30.5629 16.2395C30.4173 16.4402 30.5083 16.5536 30.7631 16.4875C30.8422 16.4667 30.9217 16.473 30.9399 16.5005C30.9613 16.5333 31.0231 16.5161 31.1157 16.4511C31.3398 16.2925 31.5504 16.214 31.5504 16.2899C31.5504 16.4407 31.7553 16.1121 31.7818 15.9176C31.8369 15.5151 31.8811 15.3321 31.9279 15.3238C31.9539 15.3186 32.0231 15.2572 32.0813 15.1855C32.1607 15.096 32.2689 15.0371 32.3871 15.0191C32.4963 14.9988 32.6201 14.9525 32.6632 14.9166C32.8208 14.784 32.553 14.8017 32.3091 14.9395C32.0938 15.0617 32.0637 15.0679 31.9451 15.0076C31.8744 14.9712 31.8135 14.9265 31.8135 14.9073L31.7875 14.6036C31.7673 14.3623 31.7823 14.3108 31.9363 14.0992C32.2904 13.6109 32.3039 13.5854 32.2368 13.5126C32.2167 13.493 32.1926 13.4781 32.166 13.4691C32.1395 13.46 32.1113 13.4569 32.0834 13.4601C31.9841 13.4778 31.8473 13.7555 31.8999 13.8345C31.9175 13.8621 31.8218 14.0103 31.6877 14.1637C31.3819 14.5121 31.3045 14.7627 31.4485 14.9296C31.5899 15.0929 31.5723 15.3877 31.4194 15.4153C31.3799 15.4221 31.3258 15.5677 31.2894 15.7715C31.2384 16.0523 31.2067 16.1199 31.123 16.1355C31.0658 16.1454 31.02 16.1787 31.02 16.2093C31.02 16.24 30.9717 16.2728 30.9134 16.2832C30.8552 16.2936 30.8078 16.3279 30.8078 16.3586C30.8078 16.4506 30.6477 16.4496 30.6118 16.3575C30.5921 16.3066 30.6144 16.2379 30.669 16.187C30.7543 16.1064 30.7538 16.083 30.6586 15.8043L30.5572 15.5079L30.396 15.6779C30.1204 15.9696 29.9852 15.9207 29.9296 15.5105C29.8998 15.2959 29.8898 15.079 29.8999 14.8625C29.9031 14.8225 29.9296 14.8001 29.9587 14.8137C29.9878 14.8277 30.0128 14.8053 30.0128 14.7653C30.0133 14.7247 30.1116 14.5999 30.2301 14.4866C30.4132 14.3124 30.7772 13.7549 30.7824 13.6442C30.7855 13.5625 31.0424 13.0342 31.0819 13.0275C31.1058 13.0233 31.1256 12.9874 31.1256 12.9469C31.1256 12.9068 31.1682 12.8174 31.2192 12.7493C31.2701 12.6806 31.3435 12.5548 31.3819 12.4695C31.4204 12.3847 31.5333 12.2537 31.6336 12.1793C31.734 12.105 31.8167 12.0218 31.8167 11.9953C31.8167 11.9693 31.8713 11.9537 31.9394 11.9589C32.0548 11.9687 32.2373 11.8013 32.2004 11.7202C32.1926 11.7035 32.2399 11.6739 32.306 11.6552C32.6986 11.5408 32.7729 11.5397 32.9019 11.6443C33.0308 11.7477 33.0329 11.7576 32.9435 11.8777C32.853 11.9999 32.8551 11.9999 33.0267 11.9303C33.178 11.8694 33.2071 11.8746 33.2321 11.9703C33.2513 12.0431 33.3039 12.0743 33.3855 12.0592C33.4541 12.0473 33.5893 12.0935 33.685 12.1622C33.7812 12.2303 33.9263 12.3182 34.0079 12.3582C34.2731 12.4856 34.2991 12.7753 34.0641 12.9786C33.9549 13.0727 33.9029 13.0847 33.6861 13.0618C33.5477 13.0472 33.399 13.0139 33.3553 12.989C33.2992 12.9567 33.3023 12.9718 33.3657 13.0384C33.4146 13.0904 33.4557 13.2152 33.4505 13.3145C33.4453 13.5121 33.5862 13.6941 33.723 13.6671C33.7952 13.653 33.7932 13.6447 33.7136 13.6099C33.6627 13.588 33.621 13.5085 33.621 13.4336C33.621 13.2776 33.6574 13.2609 33.803 13.3504C33.9507 13.4409 34.0407 13.4112 34.0069 13.2823C33.9669 13.1273 34.2435 12.7924 34.4021 12.8049C34.5149 12.8137 34.518 12.8033 34.4874 12.5225C34.4697 12.3619 34.4317 12.2033 34.4031 12.17C34.3652 12.1263 34.3787 12.105 34.451 12.093C34.7651 12.0395 34.9465 12.2178 34.7599 12.3946C34.7099 12.4425 34.6829 12.5075 34.7037 12.5387C34.7624 12.6271 34.8836 12.5829 34.919 12.4596C34.9502 12.3525 35.3209 11.9927 35.4182 11.975C35.4442 11.9703 35.4951 11.924 35.5315 11.8715C35.5711 11.8169 35.6279 11.7772 35.6927 11.7587C35.7645 11.7462 35.7801 11.7743 35.7582 11.8725C35.7343 11.9791 35.7427 11.9885 35.8009 11.9214C35.8527 11.869 35.9186 11.8329 35.9907 11.8174C36.0562 11.806 36.1254 11.767 36.1451 11.7306C36.1644 11.6942 36.2335 11.6682 36.2996 11.6734C36.3646 11.6786 36.4332 11.6651 36.4504 11.6432C36.5013 11.5808 36.3854 11.4129 36.3027 11.4279C36.2169 11.443 36.1446 11.2631 36.1966 11.1648C36.22 11.1206 36.271 11.1284 36.3459 11.1856C36.4083 11.234 36.5799 11.2933 36.7249 11.3182C36.8705 11.3427 37.0822 11.4248 37.195 11.5002C37.3937 11.6318 37.3994 11.6323 37.363 11.5106C37.3422 11.4415 37.2881 11.3609 37.2439 11.3323C37.1903 11.2974 37.1747 11.2314 37.1971 11.1331C37.2158 11.052 37.2033 10.9423 37.168 10.8892C37.1139 10.8086 37.1264 10.754 37.247 10.5512C37.3255 10.4186 37.389 10.2569 37.389 10.1919C37.389 10.1269 37.4212 10.0349 37.4592 9.98754C37.503 9.92973 37.538 9.86577 37.5632 9.79774C37.5824 9.74054 37.6328 9.68854 37.6744 9.68074C37.7899 9.65994 37.8216 9.81074 37.7192 9.89186C37.6433 9.95218 37.6516 9.95998 37.7743 9.9397C37.9012 9.9189 37.9199 9.93762 37.9199 10.0858C37.9199 10.1794 37.8965 10.3068 37.8679 10.3692C37.8304 10.4488 37.8325 10.4925 37.8757 10.5127C37.9116 10.5294 37.9225 10.519 37.9033 10.4893C37.8845 10.4607 37.9225 10.3578 37.9875 10.2595C38.0525 10.1617 38.0983 10.0401 38.0899 9.9891C38.0816 9.93918 38.0983 9.8773 38.1274 9.8539C38.1866 9.8045 38.2761 9.94594 38.2678 10.0759C38.26 10.1966 38.3562 10.2319 38.4222 10.1331C38.534 9.96518 38.6931 9.93658 38.8434 10.0551C38.923 10.1186 39.0124 10.1649 39.0447 10.1591C39.0764 10.1539 39.0426 10.1009 38.9677 10.0416C38.8783 9.9709 38.8179 9.8487 38.7945 9.6901C38.754 9.41034 38.7581 9.4067 39.2121 9.2663C39.4981 9.1779 39.5761 9.11082 39.4591 9.05622C39.3749 9.0167 39.3956 8.76138 39.4846 8.74526C39.5314 8.73694 39.5506 8.70158 39.5319 8.65426C39.5111 8.6007 39.5345 8.5695 39.6073 8.5565C39.6655 8.5461 39.7269 8.50034 39.7425 8.4551C39.7581 8.40934 39.8621 8.32458 39.9739 8.26582C40.0852 8.20758 40.1996 8.1249 40.2287 8.08226C40.3098 7.96422 40.5729 7.87062 40.6577 7.92886C40.6993 7.95798 40.7721 7.95434 40.8251 7.92054C40.8766 7.8883 40.9785 7.85658 41.0513 7.85086C41.1585 7.84202 41.1709 7.82902 41.1174 7.78066C41.0165 7.68966 41.0378 7.63506 41.1824 7.60906C41.276 7.59242 41.3046 7.5633 41.2832 7.50818C41.2458 7.41302 41.4496 7.02302 41.5906 6.9185C41.6077 6.90608 41.6266 6.89643 41.6467 6.8899C41.682 6.87859 41.7194 6.87574 41.7559 6.88158C41.8651 6.89874 41.9603 6.98454 41.9353 7.08906C41.9182 7.1603 41.9358 7.19514 41.9847 7.1863C42.0268 7.17902 42.0757 7.20866 42.0924 7.2513C42.1116 7.3007 42.1943 7.31786 42.316 7.29706C42.6072 7.24766 42.8115 7.42446 42.8422 7.75206C42.8672 8.0209 42.8381 8.07602 42.447 8.49566C42.3596 8.58978 42.3591 8.59498 42.4579 8.59706C42.5151 8.5981 42.5817 8.6241 42.6035 8.65478C42.6316 8.69482 42.6581 8.68442 42.6956 8.61838C42.7403 8.54038 42.7538 8.5435 42.7803 8.64074C42.8063 8.73642 42.8344 8.74474 42.9332 8.68754C43.0975 8.5929 43.4938 8.6293 43.4574 8.73538C43.4392 8.78842 43.4917 8.81546 43.617 8.81754C43.8448 8.8217 43.9165 8.76814 43.9165 8.59498C43.9165 8.41298 43.9914 8.3667 44.1776 8.43482C44.2644 8.46602 44.3804 8.48422 44.4355 8.47434C44.63 8.4395 44.7163 8.6033 44.7028 8.98082C44.6919 9.27306 44.7075 9.34118 44.7943 9.39214C44.8905 9.44934 44.9014 9.43894 44.9425 9.26214C45.0028 9.00266 45.0631 8.93974 45.1333 9.06558C45.1791 9.14722 45.2269 9.15762 45.3444 9.11238C45.4339 9.07754 45.5119 9.07598 45.5343 9.1103C45.5623 9.15242 45.5951 9.14306 45.659 9.07026C45.7074 9.01618 45.7719 8.97146 45.8005 8.97146C45.8291 8.9725 45.8598 8.92778 45.8696 8.87266C45.8795 8.81702 45.8624 8.77542 45.8312 8.78114C45.8 8.78634 45.774 8.75358 45.774 8.70834C45.774 8.66154 45.8197 8.61734 45.8759 8.60746C45.9315 8.59706 45.9867 8.5591 45.9976 8.52322C46.0288 8.41974 47.0386 8.49982 47.1005 8.61058C47.1281 8.65894 47.1369 8.71562 47.1197 8.73642C47.1031 8.75722 47.1509 8.77958 47.2274 8.78582C47.2731 8.78998 47.296 8.80454 47.3199 8.81962V5.1323C46.7334 5.12034 46.4255 5.10474 45.0876 5.1115ZM41.2136 6.76822C41.2744 6.7573 41.3092 6.77602 41.2916 6.80982C41.2484 6.88938 41.1044 6.91538 41.1044 6.8431C41.1044 6.81242 41.1538 6.77862 41.2136 6.76822ZM46.1042 6.94502C46.1447 6.94866 46.2056 6.97518 46.307 7.02822C46.438 7.09582 46.6049 7.14262 46.6782 7.1317C46.8218 7.1109 47.0563 7.1577 46.9694 7.19046C46.9403 7.20138 46.9876 7.21282 47.075 7.21646C47.2508 7.22478 47.2835 7.33658 47.1442 7.45358C47.0313 7.54874 46.6782 7.44994 46.6782 7.32358C46.6782 7.2019 46.5971 7.23414 46.4365 7.41926C46.359 7.50766 46.2326 7.59138 46.1551 7.6049C46.0771 7.61842 45.9383 7.6595 45.8462 7.69642C45.7038 7.7531 45.6648 7.74322 45.5883 7.63402C45.4219 7.39846 45.5935 6.96842 45.7943 6.98402C45.8263 6.98711 45.8567 6.9996 45.8816 7.0199C45.9685 7.08698 45.983 7.0849 46.0241 7.00066C46.0438 6.9601 46.0636 6.94086 46.1042 6.9445M45.4032 7.18786C45.4323 7.18266 45.4573 7.25338 45.4573 7.34542C45.4573 7.43694 45.4323 7.51702 45.4032 7.52222C45.3741 7.52742 45.3507 7.4567 45.3507 7.36466C45.3507 7.27314 45.3741 7.19306 45.4032 7.18786ZM45.9913 7.82746C46.0454 7.83786 46.0927 7.91274 46.0605 7.97306C46.0459 8.0001 46.0782 8.01466 46.1328 8.00426C46.2576 7.98242 46.359 8.06822 46.359 8.1977C46.359 8.27466 46.3195 8.30222 46.1863 8.32146C46.0986 8.33467 46.0098 8.33989 45.9211 8.33706C45.8208 8.32666 45.7927 8.2315 45.8858 8.21486C45.9211 8.20862 45.9305 8.1457 45.9092 8.04898C45.8884 7.95382 45.8988 7.87374 45.9378 7.84202C45.9451 7.83585 45.9537 7.83139 45.963 7.82896C45.9722 7.82653 45.9819 7.82568 45.9913 7.82746ZM37.3162 8.07914C37.3937 8.05782 37.4493 8.09058 37.4722 8.18158C37.5226 8.38178 37.4212 8.5279 37.0785 8.75046C36.8929 8.8711 36.6927 9.0531 36.5949 9.19246L36.323 9.58246C36.2647 9.66566 36.1441 9.90954 36.0546 10.1259C35.8711 10.5705 35.8742 10.8206 36.0651 10.9995C36.1249 11.0567 36.1561 11.1222 36.1306 11.1435C36.0703 11.1934 35.7655 11.2381 35.7031 11.2059C35.6766 11.1929 35.6387 11.1165 35.6189 11.0359C35.595 10.9371 35.5482 10.8955 35.478 10.9079C35.4005 10.9215 35.3719 10.8887 35.3719 10.7837C35.3719 10.7031 35.3958 10.6521 35.426 10.6661C35.4764 10.6906 35.5003 10.6126 35.4816 10.4711C35.4764 10.4311 35.5149 10.3245 35.5669 10.2335C35.6189 10.1425 35.6553 10.0401 35.6485 10.0057C35.6413 9.97194 35.6865 9.84454 35.7489 9.72234C35.8129 9.59754 35.8503 9.45454 35.8342 9.39318C35.8155 9.32194 35.8357 9.26786 35.894 9.2351C35.9429 9.20754 36.0931 9.04634 36.2273 8.87734C36.4353 8.6163 36.5008 8.5669 36.6651 8.54246C36.8149 8.5201 36.8981 8.46602 37.0338 8.30326C37.1399 8.1769 37.2387 8.10046 37.3162 8.07966M31.9383 8.4239C32.0306 8.41181 32.1241 8.43462 32.2004 8.48786L32.3132 8.57834L32.189 8.73954C32.0694 8.89502 31.8811 8.99434 31.9498 8.86694C31.9675 8.83314 31.9373 8.81338 31.8822 8.82326C31.8026 8.8373 31.7818 8.8009 31.787 8.64542C31.7901 8.47018 31.8057 8.44782 31.9383 8.4239ZM31.4969 8.51854C31.5644 8.51646 31.6045 8.5227 31.6045 8.53882C31.6041 8.55406 31.5986 8.56873 31.5889 8.5805C31.5792 8.59227 31.5658 8.60048 31.5509 8.60382C31.5218 8.60902 31.4979 8.64958 31.4979 8.6943C31.4979 8.73902 31.4573 8.92206 31.4074 9.10042C31.3112 9.44518 31.2025 9.53514 31.1474 9.3157C31.1292 9.2429 31.0845 9.1883 31.0471 9.19506C30.9602 9.21066 30.8999 8.9855 30.9748 8.92362C31.0101 8.8945 31.0122 8.87266 30.98 8.8659C30.9514 8.85966 30.9108 8.8009 30.8905 8.7359C30.8541 8.62098 30.8645 8.61526 31.2285 8.54974V8.55078C31.3362 8.53206 31.4298 8.52062 31.4969 8.51854ZM42.3024 8.81598C42.3061 8.80298 42.29 8.80714 42.2546 8.82742C42.201 8.85706 42.135 8.88514 42.1085 8.88982C42.0814 8.89502 42.0596 8.93558 42.0596 8.98134C42.0596 9.09054 42.0726 9.08586 42.2239 8.91634C42.254 8.88625 42.2807 8.85254 42.3024 8.81598ZM39.1055 10.4571C39.0913 10.4906 39.082 10.526 39.0779 10.5621C39.0582 10.6661 39.0649 10.7025 39.0987 10.6615C39.1287 10.6127 39.1398 10.5546 39.1299 10.4982C39.1221 10.4613 39.1143 10.4472 39.1055 10.4571ZM37.9485 10.623C37.9292 10.6464 37.9209 10.7613 37.9204 10.975C37.9194 11.3931 37.9958 11.5995 38.0879 11.4295C38.1139 11.3817 38.0972 11.3515 38.0442 11.3489C37.9735 11.3458 37.9646 11.2896 37.9906 11.0239C38.0078 10.8476 37.9984 10.6703 37.9709 10.6297C37.962 10.6173 37.9552 10.6157 37.9485 10.623ZM38.0249 11.6224C37.9958 11.6276 37.9719 11.6796 37.9719 11.7389C37.9719 11.7982 37.9485 11.8673 37.9194 11.8913C37.8663 11.9349 37.844 12.0993 37.8918 12.0904C37.9059 12.0878 37.9526 12.0057 37.9974 11.9074C38.0915 11.7004 38.0998 11.6089 38.0249 11.6224ZM35.1213 11.663C35.1462 11.6588 35.1733 11.676 35.2201 11.7113C35.3137 11.7841 35.3137 11.7961 35.2304 11.9063C35.14 12.028 35.0453 12.0701 34.9829 12.0161C34.9231 11.9641 34.9429 11.8502 35.0329 11.7405C35.0724 11.6916 35.0963 11.6666 35.1213 11.6625M37.7821 12.1429C37.756 12.1445 37.7305 12.1514 37.7072 12.1632C37.649 12.1892 37.6006 12.2204 37.6006 12.2319C37.6006 12.2438 37.6484 12.2443 37.7072 12.2339C37.7654 12.2235 37.8128 12.1923 37.8128 12.1653C37.8128 12.1513 37.8013 12.1435 37.7821 12.1429ZM47.1707 12.5064C47.1416 12.5038 47.0917 12.5189 47.0095 12.5501C46.8998 12.5917 46.6881 12.6442 46.5389 12.6676C46.2695 12.7103 46.2659 12.7139 45.9866 13.1086C45.8317 13.327 45.632 13.587 45.5415 13.6863C45.4204 13.8199 45.4011 13.8636 45.4666 13.8527C45.5292 13.8494 45.5906 13.8703 45.6382 13.9109C45.684 13.951 45.7225 13.9567 45.7225 13.9239C45.7225 13.8355 45.9118 13.8184 45.9877 13.9005C46.0745 13.9952 46.2206 13.9692 46.1801 13.8662C46.1624 13.8205 46.1801 13.783 46.2217 13.7757C46.3064 13.7607 46.3579 13.9213 46.3579 14.2032C46.3579 14.3145 46.3954 14.5048 46.4396 14.628C46.529 14.8787 46.5113 14.9447 46.3782 14.8532C46.2961 14.7965 46.2914 14.8142 46.3215 15.0799C46.3403 15.2432 46.334 15.3597 46.3075 15.3472C46.2815 15.3347 46.244 15.355 46.2243 15.3919C46.166 15.5006 46.4146 15.6945 46.5337 15.6332C46.6065 15.5963 46.6257 15.603 46.5976 15.6555C46.5753 15.6971 46.5898 15.746 46.6288 15.7647C46.6824 15.7892 46.6652 15.8173 46.5612 15.8771C46.4848 15.9213 46.4058 15.9899 46.3855 16.0284C46.3637 16.0689 46.2919 16.0939 46.216 16.0877C46.0974 16.0773 46.0891 16.0877 46.1276 16.1958C46.1869 16.3633 46.1744 16.6014 46.0849 16.9384C46.0225 17.175 45.9809 17.241 45.8525 17.3039C45.7535 17.3536 45.6568 17.408 45.5629 17.4667C45.4901 17.5135 45.4063 17.5593 45.3772 17.5707C45.2072 17.63 44.9784 17.8198 44.929 17.942C44.865 18.1011 44.7667 18.0917 44.7667 17.9264C44.7667 17.8671 44.7428 17.8224 44.7137 17.8276C44.6076 17.8463 44.6643 17.7153 44.8593 17.4932C45.0007 17.331 45.1078 17.2561 45.2316 17.2343C45.3652 17.2098 45.4204 17.1687 45.4666 17.0533C45.5056 16.9566 45.5691 16.8957 45.6487 16.8817C45.813 16.8521 45.8879 16.6716 45.8879 16.3045C45.8879 16.0731 45.9133 15.9717 45.9934 15.8791C46.0839 15.7751 46.1036 15.6607 46.1276 15.0783C46.1468 14.6088 46.138 14.4013 46.0979 14.4086C46.0667 14.4138 46.0402 14.5074 46.0402 14.6155C46.0402 14.8937 45.9019 15.2135 45.5363 15.7803C45.3309 16.0996 45.1635 16.2327 45.0106 16.1979C44.9321 16.1807 44.7662 16.3643 44.7662 16.4693C44.7662 16.5031 44.7054 16.5921 44.631 16.6669L44.4943 16.8032L44.6071 16.9446C44.6835 17.0382 44.7153 17.149 44.7038 17.2738C44.6893 17.4329 44.6575 17.4755 44.4885 17.5671L44.2894 17.6747L44.2821 17.4709C44.2767 17.3791 44.2767 17.287 44.2821 17.1953C44.2873 17.1563 44.2566 17.1453 44.2145 17.1703C44.1063 17.2327 44.0585 17.1323 44.1266 16.9873C44.176 16.8827 44.1682 16.8677 44.0741 16.8848C44.0138 16.8952 43.9051 16.9555 43.8323 17.019C43.6685 17.1609 43.6305 17.1334 43.7013 16.9264L43.7548 16.7668L43.5468 16.9607C43.3544 17.1401 43.3456 17.1609 43.423 17.2369C43.4761 17.2889 43.5281 17.2972 43.565 17.2582C43.6352 17.1854 43.9155 17.1823 43.9155 17.2545C43.9155 17.2821 43.8718 17.3294 43.8209 17.3585C43.7515 17.4044 43.6887 17.4595 43.6342 17.5223C43.5427 17.6279 43.5442 17.6435 43.6929 17.8822C43.8058 18.0626 43.8354 18.1578 43.7995 18.2316C43.7689 18.2961 43.7709 18.3299 43.8047 18.3237C43.9394 18.2997 43.5198 19.0829 43.2676 19.3273C43.1714 19.4203 42.9483 19.5633 42.772 19.646C42.4922 19.7776 42.4506 19.815 42.4408 19.9419C42.42 20.2066 42.2005 20.387 42.1272 20.1998C42.1054 20.1442 42.1366 20.0683 42.2156 19.9877C42.2832 19.918 42.3238 19.8493 42.3066 19.8343C42.2473 19.7823 42.031 19.9149 41.9613 20.0454C41.8989 20.1624 41.9135 20.1951 42.108 20.3813C42.2931 20.5597 42.3232 20.6226 42.3232 20.8405C42.3232 21.063 42.305 21.1046 42.1766 21.1868C42.093 21.2413 42.0201 21.3105 41.9613 21.3911C41.8677 21.5399 41.7393 21.5549 41.7393 21.4171C41.7393 21.3547 41.7044 21.3131 41.6587 21.3209C41.6356 21.3243 41.612 21.3199 41.5917 21.3085C41.5713 21.2972 41.5552 21.2794 41.5459 21.258C41.5292 21.2149 41.4819 21.1852 41.4418 21.193C41.4008 21.2003 41.3685 21.1675 41.3685 21.1218C41.3685 21.076 41.3436 21.0438 41.3144 21.049C41.2536 21.0594 41.2432 21.5612 41.3025 21.6366C41.3233 21.6641 41.4044 21.7161 41.4809 21.7536C41.5224 21.7769 41.5588 21.8085 41.5877 21.8464C41.6166 21.8843 41.6374 21.9278 41.6488 21.9741C41.6644 22.0573 41.694 22.1779 41.7149 22.2429C41.745 22.3386 41.732 22.3651 41.6473 22.3802C41.4892 22.4083 41.277 22.2075 41.213 21.9699C41.1819 21.8534 41.1194 21.7338 41.0758 21.7037C41.0222 21.6673 40.9988 21.5529 41.004 21.3516C41.0082 21.1488 40.9842 21.0308 40.9276 20.9819C40.8754 20.9328 40.8353 20.8723 40.8106 20.8051C40.7742 20.6917 40.704 20.6793 40.6515 20.7775C40.6333 20.8113 40.5719 20.8477 40.5152 20.8576C40.4351 20.8722 40.4128 20.8368 40.4128 20.7006C40.405 20.5821 40.3621 20.4686 40.2895 20.3745C40.2261 20.2991 40.1723 20.2162 40.1294 20.1275C40.1018 20.0547 40.0758 20.0485 40.0238 20.1031C39.9859 20.1431 39.8782 20.1946 39.7846 20.2191C39.691 20.243 39.6172 20.2939 39.6172 20.3329C39.6172 20.3714 39.5444 20.4557 39.457 20.5186C39.3696 20.5815 39.2984 20.6533 39.2984 20.6793C39.2984 20.7053 39.1809 20.8321 39.0384 20.9601C38.7836 21.1878 38.7794 21.2013 38.7846 21.4697C38.7873 21.6558 38.819 21.7702 38.884 21.8269C39.066 21.985 38.9906 22.3526 38.7685 22.3927C38.6926 22.4062 38.6572 22.1358 38.7176 22.0063C38.8101 21.8087 38.7332 21.8144 38.5876 22.0157C38.4711 22.1769 38.4472 22.1904 38.3822 22.1285C38.2501 22.0027 37.8606 21.0557 37.8523 20.8405C37.845 20.6533 37.8315 20.6361 37.7202 20.6782C37.5944 20.7255 37.3874 20.6179 37.3874 20.5035C37.3864 20.4702 37.324 20.3917 37.248 20.3298C37.1248 20.2289 37.0609 20.2253 36.6386 20.2919C36.3547 20.3371 36.1342 20.3454 36.0874 20.3127C36.0229 20.2679 36.0079 20.2747 36.0079 20.3491C36.0079 20.399 36.0916 20.4666 36.194 20.4993C36.4103 20.569 36.4405 20.7417 36.273 20.9471C36.2148 21.0188 36.1675 21.0947 36.1675 21.1166C36.1675 21.1915 35.8227 21.5274 35.7286 21.5445C35.6771 21.5534 35.5945 21.6184 35.5445 21.6886C35.4946 21.7588 35.4301 21.8212 35.3994 21.8269C35.3693 21.8321 35.283 21.8815 35.2076 21.9361C35.0677 22.028 34.9226 22.1115 34.7729 22.1862C34.5144 22.3178 34.4827 22.3485 34.5321 22.4228C34.583 22.4987 34.6205 22.4961 34.8612 22.3942C35.0105 22.3318 35.1847 22.2533 35.2481 22.2205C35.5809 22.0505 35.2195 23.0317 34.7666 23.5278L34.4978 23.8232L34.4104 23.8944L34.2794 24.0712C34.0521 24.3759 33.9913 24.5507 34.0183 24.8257C34.0324 24.9667 34.0615 25.1081 34.0833 25.1398C34.1052 25.171 34.127 25.353 34.1322 25.5439C34.14 25.8543 34.126 25.9042 34.0053 26.0254C33.931 26.0997 33.8447 26.1658 33.8119 26.1725C33.7797 26.1793 33.6871 26.2677 33.606 26.3686C33.4916 26.5116 33.4677 26.5766 33.5015 26.666C33.5753 26.8631 33.5165 27.1496 33.3834 27.237C33.3122 27.2838 33.2503 27.3878 33.2311 27.4907C33.1946 27.6909 32.814 28.3352 32.6247 28.5188C32.5114 28.629 31.9071 28.863 31.6305 28.9046C31.5 28.9244 31.3778 28.7798 31.41 28.6436C31.4355 28.537 31.2733 28.1621 31.1448 28.0321C31.1043 27.9905 31.0382 27.7892 30.9997 27.5849C30.9306 27.2183 30.8047 26.9141 30.7013 26.8652C30.5848 26.8106 30.6805 26.2526 30.8453 26.0223C30.8685 25.9909 30.8842 25.9546 30.8912 25.9162C30.8982 25.8778 30.8964 25.8383 30.8859 25.8007C30.8627 25.7254 30.8453 25.6484 30.8339 25.5704C30.8068 25.3556 30.6987 25.1507 30.5135 24.9693C30.4121 24.8699 30.3284 24.7519 30.3284 24.7061C30.3284 24.702 30.3206 24.7009 30.3206 24.6978L30.3315 24.6947L30.37 24.5595L30.4064 24.3505C30.4491 24.1066 30.3778 24.04 30.161 24.1201C30.0528 24.1596 29.9987 24.144 29.9332 24.0509C29.8328 23.9079 29.681 23.922 29.3924 24.1019C29.279 24.1721 29.044 24.2631 28.8693 24.3026C28.7289 24.3344 28.5886 24.367 28.4486 24.4004C28.3145 24.4337 27.782 24.1419 27.7274 24.0052C27.704 23.9464 27.5989 23.8268 27.4939 23.74C27.3889 23.6537 27.3041 23.5398 27.3041 23.4862C27.3041 23.4784 27.2999 23.4717 27.2989 23.4639V38.288C27.3597 38.2672 27.4497 38.2079 27.5152 38.1424C27.588 38.0696 27.6853 38.0031 27.7315 37.9942C27.7778 37.9854 27.8485 37.9084 27.8891 37.8216C27.9967 37.5912 28.2588 37.3307 28.3727 37.3416C28.4257 37.3468 28.4834 37.3255 28.4996 37.2948C28.5157 37.2636 28.6051 37.2262 28.6982 37.2095C28.7918 37.1929 28.952 37.1196 29.0539 37.0483C29.2073 36.9402 29.2359 36.8913 29.2234 36.7675C29.2115 36.6479 29.2317 36.6131 29.3181 36.598C29.3773 36.5876 29.4247 36.6115 29.4247 36.6516C29.4247 36.6916 29.4585 36.766 29.4995 36.8164C29.5651 36.8981 29.6472 36.8965 30.2156 36.7972C30.5692 36.7348 30.8588 36.6672 30.8588 36.6448C30.8588 36.6225 30.9207 36.5502 30.9966 36.4841C31.1266 36.3718 31.1391 36.3692 31.1859 36.4488C31.2181 36.5034 31.3045 36.5226 31.4313 36.5013C31.5395 36.4836 31.7121 36.4847 31.8146 36.5044C32.0569 36.5512 32.3814 36.5143 32.4235 36.4342C32.4422 36.3999 32.5109 36.3619 32.5769 36.35C32.6434 36.3385 32.7553 36.2538 32.826 36.1623C32.9237 36.0359 32.9893 35.9974 33.1 36.0011C33.1801 36.0031 33.2456 35.9881 33.2404 35.9662C33.2077 35.7457 33.3226 35.7187 33.5368 35.8986C33.7464 36.0739 33.957 36.0702 33.9809 35.8903C33.9902 35.8191 34.0625 35.7145 34.1431 35.6563C34.2256 35.5967 34.2994 35.526 34.3626 35.4462C34.4593 35.3069 34.8732 35.0313 34.9398 35.0625C34.9684 35.076 35.0136 35.0417 35.0412 34.985C35.0719 34.9226 35.1244 34.8898 35.179 34.9018C35.2424 34.9158 35.2632 34.8966 35.2518 34.8305C35.2331 34.7156 35.4951 34.5279 35.7224 34.4936C35.9205 34.4634 36.1815 34.582 36.1462 34.686C36.1103 34.7889 36.6194 34.8368 37.183 34.7822C37.5985 34.7421 37.6469 34.7494 37.6989 34.8602C37.7499 34.9683 37.7696 34.9715 37.8643 34.8929C37.9605 34.8129 37.9937 34.8212 38.1607 34.9772C38.3187 35.1243 38.365 35.1415 38.4524 35.0765C38.5096 35.0344 38.5418 34.9756 38.5236 34.9475C38.4768 34.8768 38.6957 34.6069 38.858 34.5352C38.9313 34.5029 38.977 34.4634 38.9594 34.4478C38.9417 34.4322 38.9537 34.3813 38.9869 34.3334C39.0322 34.2674 39.0306 34.2154 38.9786 34.1228C38.925 34.024 38.925 33.9798 38.9786 33.9023C39.0374 33.8176 39.0561 33.8176 39.133 33.8982C39.2459 34.0167 39.3894 34.01 39.6073 33.8758C39.769 33.777 39.7882 33.776 39.86 33.8706C39.9276 33.9606 39.9744 33.9627 40.2157 33.8914C40.5521 33.7916 40.626 33.724 40.626 33.5155C40.626 33.3813 40.6483 33.3517 40.7612 33.3319C40.835 33.3184 40.9073 33.3407 40.9234 33.3813C40.9702 33.5009 41.1116 33.5009 41.2172 33.3823C41.2937 33.296 41.3306 33.2851 41.3909 33.3267C41.4507 33.3683 41.4772 33.3589 41.5126 33.2861C41.5729 33.1619 41.7622 33.1837 41.8438 33.3236C41.8787 33.3834 41.9873 33.4583 42.0856 33.4889C42.2582 33.5441 42.2697 33.5399 42.4876 33.348C42.7554 33.1114 42.8084 33.0974 42.8989 33.2336C42.9374 33.2908 43.0013 33.3168 43.0429 33.2929C43.0658 33.2814 43.0915 33.2768 43.117 33.2796C43.1424 33.2823 43.1666 33.2924 43.1865 33.3085C43.2723 33.3829 43.4803 33.4042 43.5775 33.348C43.618 33.3241 43.6513 33.2326 43.6513 33.1437C43.6513 32.9528 43.7153 32.9258 43.8198 33.0729C43.8801 33.1567 43.917 33.1639 43.9935 33.1052C44.11 33.0168 44.4449 33.0475 44.4854 33.1509C44.5322 33.2705 44.6513 33.1983 44.6856 33.0293C44.7168 32.8712 44.7277 32.8639 44.9716 32.8452C45.215 32.8265 45.2295 32.8176 45.2945 32.6413C45.333 32.5373 45.3767 32.4859 45.4089 32.4853C45.4386 32.4869 45.4578 32.5399 45.4391 32.6465C45.4193 32.7578 45.4422 32.7932 45.553 32.8181C45.7105 32.8525 46.0688 32.8717 46.3803 32.8613C46.6424 32.853 46.6897 32.8753 46.6517 32.9861C46.6309 33.0459 46.673 33.0849 46.7807 33.1083C46.868 33.127 46.9398 33.1624 46.9398 33.1863C46.9398 33.2102 47.0823 33.205 47.256 33.1743C47.2851 33.1691 47.2939 33.1717 47.3189 33.1681V26.0342C47.2279 26.2474 47.1546 26.4539 47.1546 26.5105C47.1546 26.5865 47.1208 26.6333 47.0558 26.6447C47.0012 26.6546 46.8956 26.7227 46.8213 26.7971C46.6705 26.9489 46.658 26.9546 46.6018 26.9063C46.58 26.887 46.4557 26.8875 46.3257 26.9068C46.0662 26.9458 45.8967 26.8569 45.8707 26.6691C45.8587 26.5823 45.7979 26.5485 45.633 26.536C45.4167 26.5204 45.3231 26.4819 45.3231 26.4071C45.3226 26.3135 45.1495 26.172 45.0054 26.146C44.7933 26.1086 44.0762 26.3868 44.0762 26.5069C44.0762 26.5298 43.967 26.5849 43.8333 26.6275C43.6997 26.6707 43.5239 26.7581 43.4433 26.8225C43.3154 26.9245 43.2759 26.9338 43.1438 26.8907C43.0024 26.8449 42.9915 26.8168 42.9863 26.5079C42.9826 26.2963 42.9415 26.0992 42.8734 25.9666C42.7959 25.8148 42.7699 25.6702 42.7809 25.4404C42.798 25.0831 42.8277 24.9994 42.9285 25.0218C42.9665 25.0306 43.0279 24.9927 43.0653 24.9386C43.1027 24.8845 43.1703 24.8335 43.2145 24.8257C43.2587 24.8179 43.3861 24.7665 43.499 24.7113C43.6602 24.6318 43.7226 24.5605 43.7928 24.3832C43.8417 24.2584 43.9009 24.1648 43.9238 24.1757C43.9467 24.1867 44.0304 24.1081 44.1094 24.001C44.2509 23.8097 44.462 23.715 44.527 23.8133C44.5806 23.8949 44.6284 23.8601 44.7241 23.6672C44.7735 23.5663 44.8531 23.4774 44.8998 23.4691C44.9519 23.4597 44.9685 23.4306 44.9466 23.3968C44.9196 23.3562 44.9534 23.3427 45.0631 23.3521C45.1706 23.3594 45.2785 23.3571 45.3855 23.3453C45.6107 23.3172 45.6372 23.3536 45.5436 23.5606C45.4646 23.7353 45.4646 23.7363 45.7012 23.844C45.8312 23.9033 45.958 23.948 45.982 23.9433C46.0355 23.9339 46.0933 23.6469 46.0933 23.3921C46.0933 23.2907 46.1333 23.1586 46.1822 23.0983C46.1968 23.078 46.2139 23.0597 46.2331 23.0437C46.2435 23.0364 46.2524 23.0333 46.2607 23.0364C46.2856 23.0447 46.3054 23.104 46.3428 23.2325C46.3845 23.3749 46.4458 23.4706 46.49 23.4628C46.5576 23.4509 46.6762 23.7374 46.6762 23.9137C46.6762 23.9501 46.7479 24.0114 46.8353 24.0499C46.9232 24.0884 46.9949 24.1367 46.9949 24.1575C46.9949 24.1783 47.0547 24.2439 47.127 24.3031C47.1998 24.3619 47.2596 24.4331 47.2601 24.4623C47.2601 24.4747 47.3002 24.5122 47.3189 24.5387V22.3079C47.2503 22.3543 47.1721 22.3846 47.0901 22.3963C46.8145 22.4233 46.7989 22.5367 47.0495 22.7031C47.1645 22.7795 47.2461 22.8643 47.2315 22.8924C47.1816 22.9855 46.8655 22.9366 46.6892 22.8076C46.4822 22.6568 46.4344 22.6579 46.359 22.8191C46.2924 22.961 46.0823 23.0167 45.9898 22.9153C45.9471 22.8695 45.8733 22.8659 45.7714 22.9049C45.5998 22.9719 45.5863 22.9511 45.6819 22.7733C45.7308 22.6797 45.7308 22.6412 45.6819 22.5986C45.6133 22.5393 45.2618 22.4608 45.1474 22.48C45.0673 22.493 44.9836 22.4213 44.8811 22.2523C44.8218 22.1535 44.8218 22.1249 44.8811 22.0744C44.9123 22.0682 44.9628 22.0495 45.0174 22.0349H45.0184C45.0693 22.0187 45.1227 22.0122 45.176 22.0157L45.1812 22.0146V22.0157C45.2181 22.0172 45.2716 22.0765 45.2997 22.1498L45.3517 22.2829L45.4999 22.1467L45.6471 22.0084L46.0699 22.0744C46.3143 22.1124 46.5451 22.1888 46.6169 22.2543C46.7167 22.3453 46.7729 22.3547 46.9013 22.3022C46.9897 22.2658 47.0922 22.2268 47.128 22.2148C47.1644 22.2029 47.2346 22.1431 47.284 22.0817C47.2981 22.0645 47.3064 22.0661 47.3189 22.0531V12.612C47.2445 12.6317 47.2081 12.6245 47.2081 12.5662C47.2081 12.5283 47.1998 12.509 47.1707 12.5064ZM32.9523 14.5287C32.9029 14.5375 32.9019 14.5693 32.9471 14.6618C32.9991 14.7689 33.1432 14.7726 33.1432 14.667C33.1432 14.6046 33.0215 14.5162 32.9523 14.5287ZM47.1884 15.1709C47.1993 15.1735 47.2076 15.1834 47.2076 15.2011C47.2076 15.2312 47.1707 15.277 47.1244 15.304C47.0724 15.3337 47.0485 15.3264 47.0615 15.2832C47.0812 15.2177 47.1535 15.1631 47.1884 15.1709ZM46.9507 15.3129C47.035 15.2978 46.9746 15.4304 46.8462 15.5427C46.7786 15.6015 46.7302 15.6202 46.7302 15.5864C46.7302 15.5115 46.8805 15.3253 46.9507 15.3129ZM32.0761 15.4366C32.0686 15.4332 32.0603 15.432 32.0521 15.4333C32.044 15.4346 32.0364 15.4383 32.0304 15.4439C31.9971 15.4715 32.0018 15.5229 32.0434 15.5853C32.1141 15.6899 32.1651 15.6124 32.1136 15.4803C32.1071 15.4616 32.0937 15.4457 32.0761 15.4366ZM31.5244 15.5635C31.6196 15.5463 31.6294 15.6639 31.5405 15.7725C31.4501 15.8838 31.3747 15.8843 31.4126 15.7736C31.4303 15.7216 31.4454 15.6566 31.4454 15.628C31.4454 15.6004 31.4807 15.5708 31.5244 15.5635ZM36.428 17.1609C36.3936 17.1673 36.3614 17.1823 36.3344 17.2046C36.1987 17.3055 36.1852 17.4958 36.3136 17.5031C36.4259 17.5093 36.4088 17.5249 36.4764 17.3752C36.5388 17.2395 36.5081 17.1516 36.4291 17.1609H36.428ZM35.5216 17.1895C35.4759 17.1785 35.4282 17.1792 35.3828 17.1916C35.2206 17.228 34.9731 17.4241 34.9257 17.5541C34.881 17.6768 34.9881 17.9446 35.1613 18.1432C35.2528 18.2483 35.3038 18.3387 35.2731 18.3439C35.2424 18.3491 35.1899 18.4121 35.1561 18.4833C35.1041 18.5946 35.1171 18.6268 35.2476 18.7157C35.3308 18.7729 35.4296 18.801 35.4691 18.7797C35.5068 18.7587 35.547 18.7426 35.5887 18.7319C35.6615 18.7194 35.6475 18.4838 35.5679 18.3725C35.5289 18.319 35.4931 18.1963 35.4873 18.0995C35.4811 17.9914 35.4156 17.8629 35.3178 17.7683C35.2138 17.6669 35.1805 17.6014 35.2242 17.5785C35.2782 17.5441 35.3263 17.5013 35.3667 17.4516C35.3925 17.424 35.4235 17.4017 35.4579 17.3862C35.4924 17.3706 35.5296 17.3621 35.5674 17.3611C35.686 17.3637 35.6896 17.357 35.6184 17.2592C35.5951 17.2256 35.5609 17.201 35.5216 17.1895ZM33.6959 17.5327C33.6632 17.5349 33.6312 17.5437 33.6019 17.5585C33.5726 17.5734 33.5465 17.5939 33.5254 17.6191C33.4448 17.7179 33.4495 17.7231 33.58 17.7002C33.658 17.6861 33.736 17.6471 33.7537 17.6128C33.7833 17.5577 33.7485 17.5312 33.6959 17.5327ZM33.0896 17.7173C33.0324 17.7189 32.9622 17.7433 32.931 17.7875C32.8998 17.8323 32.8182 17.9955 32.749 18.15C32.6398 18.3965 32.6336 18.4407 32.7017 18.4994C32.7994 18.5847 32.9809 18.5504 33.114 18.4214C33.2472 18.2919 33.4848 18.2509 33.5862 18.3393C33.6762 18.4173 34.0308 18.3699 34.152 18.2639C34.218 18.2056 34.1998 18.1713 34.0454 18.0611C33.749 17.8484 33.5826 17.8063 33.4349 17.9035C33.3345 17.969 33.2914 17.9701 33.2227 17.9103C33.1754 17.8692 33.1499 17.8104 33.1655 17.7803C33.1894 17.7361 33.1463 17.7158 33.0896 17.7179M35.6002 18.0278C35.5908 18.034 35.5846 18.047 35.5846 18.0631C35.5846 18.0959 35.6085 18.1172 35.6376 18.112C35.6667 18.1068 35.6907 18.0923 35.6907 18.0787C35.6907 18.0652 35.6667 18.0423 35.6376 18.0288C35.623 18.0221 35.6095 18.0215 35.6002 18.0278ZM30.8755 18.1864C30.8666 18.189 30.8552 18.215 30.8349 18.2685C30.8063 18.3439 30.8167 18.397 30.8671 18.4287C30.9087 18.4552 30.9847 18.5389 31.0367 18.6149C31.0887 18.6908 31.1542 18.7345 31.1823 18.7111C31.2103 18.6882 31.2473 18.7043 31.2644 18.7475C31.2816 18.7917 31.3393 18.8343 31.3923 18.8421C31.4896 18.8577 31.5769 18.996 31.5275 19.0563C31.513 19.0745 31.4615 19.0615 31.4131 19.0283C31.3336 18.9737 31.3284 18.9778 31.3611 19.0808C31.3871 19.1619 31.3653 19.2368 31.2883 19.3304C31.2285 19.4042 31.1802 19.4879 31.1802 19.5165C31.1802 19.6216 31.0736 19.6517 30.9129 19.594C30.7205 19.5238 30.7309 19.4063 30.9321 19.3663C31.1729 19.3195 31.2254 19.1967 31.0611 19.0667C30.9831 19.0043 30.8968 18.9581 30.8692 18.9627C30.812 18.9731 30.5156 18.6835 30.4761 18.5795C30.4553 18.5239 30.4043 18.5431 30.2421 18.6663C30.0913 18.7807 30.0091 18.8135 29.9431 18.7865C29.8297 18.7402 29.7471 18.8041 29.7471 18.9378C29.7471 18.9934 29.6639 19.1198 29.5614 19.2201C29.4439 19.3345 29.3753 19.45 29.3753 19.5311C29.3753 19.7199 29.1532 19.9814 28.9437 20.0397C28.8454 20.0672 28.7648 20.1145 28.7648 20.1452C28.7648 20.2451 29.1147 20.1603 29.2952 20.0163C29.4678 19.8785 30.4277 19.5763 30.5827 19.6107C30.6633 19.6294 30.6716 19.9788 30.5931 20.0438C30.5078 20.1145 30.7044 20.2118 30.8744 20.1842C30.9652 20.1736 31.0565 20.1986 31.1292 20.2539C31.306 20.4078 31.6045 20.452 31.6045 20.3241C31.6045 20.1353 31.9243 19.9211 32.0574 20.0215C32.0855 20.0423 32.2446 20.0797 32.41 20.1026C32.6377 20.1348 32.7558 20.1223 32.8957 20.0568C32.9986 20.0085 33.1005 19.9892 33.126 20.0111C33.2045 20.0797 33.4146 19.9466 33.4661 19.7958C33.4931 19.7167 33.515 19.5514 33.515 19.4292C33.515 19.2233 33.5056 19.2113 33.3954 19.2701C33.3246 19.3062 33.2483 19.3304 33.1697 19.3418C33.1115 19.347 33.0007 19.3626 32.9227 19.3767C32.7147 19.4131 32.5067 19.3538 32.5067 19.2571C32.5067 19.2103 32.4807 19.177 32.4474 19.1827C32.4162 19.1884 32.4006 19.1416 32.4162 19.0771C32.4313 19.0132 32.424 18.9638 32.4001 18.9679C32.3762 18.9726 32.3704 18.9232 32.3855 18.8598C32.4074 18.7698 32.3871 18.748 32.2971 18.7641C32.2332 18.7755 32.1968 18.8062 32.215 18.8343C32.2332 18.8619 32.2108 18.9061 32.1651 18.9331C32.0668 18.9898 32.0543 19.1224 32.1458 19.138C32.2321 19.1525 32.0839 19.4989 31.9846 19.5155C31.8983 19.5301 31.7621 19.3709 31.7621 19.2524C31.7615 19.2051 31.7147 19.1109 31.6575 19.0444C31.6003 18.9783 31.553 18.8691 31.553 18.8015C31.552 18.7199 31.4719 18.6362 31.3123 18.5499C31.1807 18.4786 31.0731 18.385 31.0731 18.3419C31.0731 18.2966 31.0424 18.281 30.9992 18.306C30.955 18.332 30.9144 18.3096 30.9004 18.2524C30.89 18.2072 30.8838 18.1859 30.8755 18.1864ZM30.3981 18.7246C30.5151 18.6793 30.5229 19.333 30.4064 19.4006C30.3622 19.4266 30.3144 19.4162 30.2998 19.3787C30.2437 19.2357 30.3159 18.7563 30.3981 18.7246ZM43.7434 18.9622C43.7626 18.957 43.7735 18.9747 43.7881 19.0121C43.825 19.1068 43.7184 19.5072 43.6529 19.5186C43.629 19.5228 43.5957 19.49 43.578 19.4448C43.5203 19.2971 43.5442 19.1681 43.6508 19.0475C43.6976 18.9945 43.7247 18.9669 43.7434 18.9622ZM29.7268 19.3054C29.745 19.3033 29.76 19.3059 29.7673 19.3174C29.8063 19.3772 29.7268 19.4864 29.6535 19.4734C29.6171 19.4661 29.5874 19.4401 29.5874 19.4151C29.5874 19.3683 29.6716 19.3122 29.7268 19.3054ZM43.655 19.8681C43.6711 19.8665 43.6914 19.8681 43.7179 19.8722C43.8614 19.893 43.8437 19.8774 43.8853 20.0126C43.896 20.0464 43.8972 20.0824 43.889 20.1169C43.8807 20.1513 43.8633 20.1828 43.8385 20.2081C43.7189 20.334 43.7397 20.3808 43.917 20.3901C44.0387 20.3964 44.0756 20.4286 44.0756 20.5295C44.0756 20.6543 44.0689 20.6585 43.9321 20.6085C43.8536 20.5799 43.7766 20.5732 43.7605 20.5945C43.7449 20.6153 43.7616 20.6387 43.7985 20.6465C43.831 20.6513 43.8622 20.663 43.89 20.6807C43.9177 20.6984 43.9414 20.7217 43.9595 20.7492C43.9776 20.7767 43.9897 20.8077 43.9951 20.8402C44.0004 20.8726 43.9988 20.9059 43.9904 20.9377C43.954 21.0968 44.0278 21.1077 44.1464 20.9621C44.2722 20.8082 44.3778 20.9829 44.3497 21.2949C44.3403 21.401 44.2519 21.4608 44.1157 21.4535C44.0647 21.4509 44.0237 21.4088 44.0237 21.362C44.0237 21.2986 43.9888 21.2923 43.8905 21.336C43.7917 21.3792 43.7574 21.3714 43.7574 21.3074C43.7574 21.2596 43.7938 21.2013 43.837 21.1764C43.9067 21.1358 43.9067 21.1176 43.837 21.0256C43.7925 20.9665 43.765 20.8964 43.7574 20.8228C43.7574 20.7682 43.7366 20.7276 43.7101 20.7323C43.6373 20.7453 43.4797 20.2497 43.5452 20.2154C43.5749 20.1998 43.5993 20.113 43.5993 20.0215C43.5993 19.9117 43.6066 19.8738 43.655 19.8681ZM35.1322 19.9351C35.1149 19.9344 35.0979 19.9389 35.0833 19.9481C35.0656 19.9601 35.0537 19.9809 35.0537 20.0105C35.0537 20.0521 35.101 20.1327 35.1592 20.1879C35.2174 20.2435 35.2658 20.3127 35.2658 20.3439C35.2658 20.3751 35.3022 20.3787 35.3464 20.3537C35.4041 20.3199 35.4254 20.347 35.4254 20.4531C35.4254 20.6548 35.6262 20.6122 35.8175 20.3688L35.9637 20.1816L35.818 20.2367C35.6412 20.3043 35.362 20.2055 35.2913 20.0495C35.2774 20.018 35.2553 19.9907 35.2273 19.9706C35.1994 19.9505 35.1665 19.9383 35.1322 19.9351ZM33.3985 20.5253C33.3941 20.5253 33.3897 20.5261 33.3856 20.5279C33.3816 20.5297 33.378 20.5324 33.3751 20.5357C33.3403 20.5779 33.465 20.8425 33.7131 21.2554C33.7495 21.3152 33.7786 21.4197 33.7791 21.4868C33.7791 21.5544 33.8041 21.6194 33.8337 21.6335C33.8634 21.647 33.9216 21.7364 33.9622 21.8311C34.0027 21.9262 34.0833 22.011 34.1416 22.0203C34.2003 22.0292 34.2612 22.0708 34.2778 22.1124C34.3303 22.2538 34.373 22.1784 34.3355 22.0032C34.2887 21.7822 34.0651 21.4161 33.9637 21.3937C33.9216 21.3839 33.8868 21.3137 33.8868 21.2362C33.8828 21.1499 33.8466 21.0683 33.7854 21.0074C33.728 20.9563 33.6826 20.8933 33.6523 20.8228C33.6065 20.6876 33.463 20.5264 33.3985 20.5253ZM43.5151 20.8238C43.5967 20.8093 43.5307 21.0167 43.4101 21.1561C43.2489 21.3417 43.1459 21.3787 43.2244 21.2232C43.2998 21.0739 43.4771 20.8306 43.5151 20.8238ZM27.6759 21.3683C27.705 21.3631 27.73 21.3828 27.73 21.4119C27.73 21.4405 27.7055 21.4832 27.6764 21.5071C27.6468 21.5315 27.6234 21.5123 27.6234 21.4645C27.6234 21.4171 27.6468 21.3735 27.6759 21.3683ZM43.1781 21.3823L43.357 21.5014L43.538 21.6199L43.422 21.7447C43.3112 21.8649 43.3107 21.8747 43.3965 22.0162C43.4527 22.1082 43.4652 22.167 43.4277 22.1737C43.4064 22.1774 43.3976 22.1883 43.3976 22.1987C43.396 22.2008 43.2951 22.3173 43.2868 22.3251C43.2665 22.3862 43.2519 22.449 43.2431 22.5128C43.2338 22.5299 43.2244 22.5419 43.2156 22.5596C43.0856 22.8284 43.0866 22.8274 42.6956 22.8419C42.6228 22.8445 42.5214 22.8497 42.4704 22.8539C42.4582 22.855 42.446 22.8535 42.4344 22.8496C42.4228 22.8456 42.4122 22.8392 42.4033 22.8309C42.3944 22.8225 42.3873 22.8124 42.3826 22.8011C42.3778 22.7899 42.3755 22.7777 42.3758 22.7655C42.3347 22.6267 42.2796 22.5055 42.251 22.3219C42.2551 22.3136 42.2567 22.3084 42.2619 22.2996C42.2973 22.2117 42.3524 22.1576 42.395 22.1675C42.4351 22.1763 42.498 22.1399 42.5354 22.0864C42.5729 22.0323 42.6353 21.9813 42.6743 21.9746C42.7138 21.9673 42.772 21.907 42.8032 21.8404C42.8344 21.7739 42.8916 21.7135 42.9316 21.7063C42.9706 21.6995 43.0424 21.6231 43.0908 21.5378L43.1781 21.3823ZM27.4492 21.4312C27.47 21.4327 27.4929 21.4395 27.5173 21.4515C27.5802 21.4821 27.5828 21.5061 27.5303 21.57C27.4825 21.6293 27.4643 21.634 27.4643 21.5867C27.4643 21.5492 27.4279 21.5435 27.3779 21.5721C27.3197 21.6064 27.2989 21.596 27.3155 21.543C27.3311 21.4905 27.3577 21.4561 27.3925 21.44C27.4104 21.4321 27.4297 21.429 27.4492 21.4312ZM43.7028 21.4572C43.734 21.452 43.7584 21.4728 43.7584 21.5035C43.7584 21.5336 43.7481 21.5607 43.7351 21.5633C43.7226 21.5653 43.6976 21.5451 43.6794 21.5175C43.6617 21.4899 43.6721 21.4624 43.7028 21.4572ZM44.4838 21.7853C44.5202 21.7749 44.5619 21.8061 44.5977 21.8815L44.6586 22.0115C44.6222 22.0614 44.5832 22.1035 44.5546 22.1519C44.5494 22.1472 44.4173 22.1675 44.3778 22.0105C44.3922 21.9877 44.4018 21.9622 44.4059 21.9356C44.4178 21.8467 44.4474 21.7957 44.4838 21.7853ZM47.1561 21.842C47.1847 21.8368 47.2087 21.8586 47.2087 21.8888C47.2086 21.904 47.2033 21.9188 47.1938 21.9307C47.1843 21.9426 47.171 21.9509 47.1561 21.9543C47.1265 21.9595 47.1031 21.9387 47.1031 21.9085C47.1031 21.8779 47.127 21.8472 47.1561 21.842ZM46.7609 21.8581C46.8062 21.8503 46.8296 21.8711 46.8114 21.9049C46.7937 21.9387 46.7557 21.9709 46.7282 21.9761C46.7006 21.9813 46.6788 21.959 46.6788 21.9283C46.6788 21.8976 46.7152 21.8659 46.7609 21.8581ZM44.1901 21.9059C44.2218 21.9137 44.2228 21.9564 44.1771 22.0229C44.1635 22.0417 44.1599 22.0557 44.1547 22.0666L44.0065 22.1191C43.8817 22.168 43.7299 22.193 43.6529 22.297C43.6529 22.3251 43.7002 22.3256 43.7584 22.2991C43.7756 22.2913 43.7766 22.2866 43.7912 22.2783L43.8432 22.2627L44.0086 22.2575L43.9992 22.2715C43.982 22.2861 43.9602 22.298 43.9457 22.3141C43.8677 22.3989 43.8312 22.4805 43.8562 22.5112C43.8796 22.5403 43.8957 22.6137 43.8957 22.6745C43.8916 22.8175 43.7226 22.8846 43.6898 22.7572C43.6742 22.6958 43.6643 22.7182 43.6591 22.8191C43.6544 22.9376 43.6305 22.9771 43.5603 22.9751C43.5094 22.974 43.4667 22.9231 43.4667 22.8627C43.4679 22.8046 43.4544 22.747 43.4277 22.6953C43.4059 22.6636 43.4111 22.5658 43.4407 22.4795C43.4636 22.4124 43.4657 22.3911 43.4719 22.3609C43.4865 22.3183 43.5499 22.1373 43.5499 22.1269L43.5432 22.1306C43.574 22.0918 43.6143 22.0615 43.6602 22.0427C43.7061 22.0238 43.756 22.017 43.8052 22.0229C43.8937 22.0271 44.0112 21.9964 44.0673 21.9548C44.0918 21.9357 44.1192 21.9206 44.1484 21.9101C44.1617 21.905 44.1761 21.9036 44.1901 21.9059ZM40.7425 22.0687H40.7445C40.8355 22.0687 40.9692 22.1119 41.1033 22.1935C41.2957 22.311 41.4377 22.3843 41.5609 22.4327C41.6618 22.5689 41.6753 22.6729 41.8293 22.6594C41.9109 22.6121 42.0596 22.7036 42.0596 22.8029C42.0596 22.8347 42.095 22.8404 42.1387 22.8149C42.1829 22.7894 42.2182 22.7977 42.2182 22.8357C42.2182 22.8794 42.173 22.8997 42.0861 22.8919C41.967 22.882 41.953 22.8986 41.953 23.0437C41.953 23.2257 42.0643 23.26 42.4808 23.2059C42.6108 23.1893 42.7252 23.2023 42.7372 23.2356C42.7481 23.2683 42.8027 23.2871 42.8588 23.2772C42.9233 23.2657 42.9613 23.298 42.9613 23.3656C42.9613 23.4576 42.9327 23.4722 42.7361 23.481C42.6119 23.4867 42.4689 23.4774 42.42 23.4602C42.3451 23.4415 42.2671 23.4391 42.1912 23.4529C42.1057 23.4657 42.0184 23.459 41.9359 23.4332C41.7684 23.3697 41.2921 22.9673 41.2094 22.8196L41.1392 22.6943L41.0695 22.5762V22.5721C41.0685 22.5695 41.0602 22.5669 41.0602 22.5643V22.5611C41.0347 22.5232 40.965 22.4785 40.8865 22.4582C40.7237 22.4166 40.6275 22.3017 40.6275 22.1488C40.6275 22.1176 40.6431 22.0957 40.6691 22.0827C40.692 22.0724 40.7169 22.0674 40.7419 22.0682M44.8104 22.3625C44.851 22.3745 44.8728 22.3989 44.8728 22.4363C44.8728 22.4961 44.3122 22.6339 44.2592 22.5871C44.1968 22.5331 44.2582 22.48 44.4662 22.4103C44.5286 22.389 44.5847 22.375 44.6347 22.3656C44.6923 22.3517 44.7523 22.3507 44.8104 22.3625ZM44.3575 23.0328H44.3585C44.4105 23.0276 44.4469 23.0536 44.4469 23.117C44.4459 23.1565 44.3544 23.2491 44.2436 23.3224C43.9977 23.4847 43.9706 23.4914 43.9706 23.3848C43.9706 23.3391 43.9909 23.298 44.0143 23.2938C44.0377 23.2897 44.111 23.2241 44.1765 23.1482C44.2374 23.0785 44.3045 23.039 44.3575 23.0328ZM43.8697 23.195C44.0491 23.194 43.9332 23.2803 43.5499 23.3651C43.2525 23.4306 43.1698 23.4327 43.1875 23.3739C43.2031 23.3214 43.3279 23.2767 43.5915 23.2283C43.7179 23.2059 43.8099 23.1955 43.8697 23.195ZM33.229 24.105C33.1494 24.1196 33.0782 24.2678 33.1297 24.3125C33.1671 24.3453 33.3033 24.2111 33.3033 24.1419C33.3033 24.1149 33.2695 24.0977 33.229 24.105ZM35.0828 25.2251C35.127 25.222 35.1795 25.2485 35.2117 25.3062C35.2793 25.4274 35.283 25.6411 35.219 25.821C35.192 25.8964 35.115 26.1772 35.0479 26.445C34.9497 26.8371 34.9008 26.9442 34.8004 27.0025C34.6163 27.1085 34.5336 27.1117 34.4806 27.0129C34.3766 26.8189 34.3636 26.6265 34.4426 26.4518C34.4858 26.3545 34.5082 26.2386 34.4905 26.1939C34.4271 26.0327 34.5217 25.8247 34.711 25.7087C34.8124 25.6458 34.8956 25.5558 34.8956 25.5085C34.8956 25.4607 34.9185 25.418 34.9476 25.4128C34.9767 25.4076 35.0016 25.3655 35.0016 25.3192C35.0016 25.2594 35.0381 25.2282 35.0828 25.2251ZM34.4551 25.2527C34.465 25.2599 34.4707 25.2766 34.4707 25.3C34.4707 25.3977 34.4385 25.418 34.3927 25.3489C34.3766 25.3234 34.387 25.2823 34.4166 25.2573C34.4312 25.2454 34.4453 25.2454 34.4551 25.2527ZM34.5851 25.3208H34.5862C34.6066 25.3227 34.6257 25.3313 34.6408 25.3452C34.7208 25.4149 34.6761 25.47 34.5768 25.4232C34.5337 25.404 34.5175 25.366 34.5394 25.3395C34.5498 25.3255 34.5669 25.3203 34.5851 25.3208ZM35.8503 26.1975C35.857 26.1961 35.8639 26.1962 35.8706 26.1978C35.8772 26.1995 35.8834 26.2027 35.8886 26.2071C35.8938 26.2115 35.8979 26.2171 35.9007 26.2233C35.9034 26.2296 35.9047 26.2364 35.9044 26.2433C35.9039 26.2586 35.8983 26.2733 35.8885 26.2851C35.8787 26.2969 35.8653 26.305 35.8503 26.3083C35.8212 26.3135 35.7978 26.2927 35.7978 26.2625C35.798 26.2473 35.8033 26.2327 35.8128 26.2209C35.8223 26.2091 35.8355 26.2009 35.8503 26.1975ZM45.566 26.3551C45.5507 26.3583 45.5369 26.3665 45.5268 26.3785C45.5167 26.3905 45.5109 26.4055 45.5103 26.4211C45.5103 26.4513 45.5207 26.4752 45.5332 26.4731C45.5462 26.4705 45.5722 26.4393 45.5904 26.4055C45.6081 26.3717 45.5966 26.3493 45.566 26.3551ZM46.8384 27.1044C46.9382 27.0966 46.9429 27.1304 46.9429 27.2557C46.9429 27.4273 46.8088 27.6353 46.684 27.6577C46.6486 27.6644 46.5841 27.589 46.542 27.4902C46.4208 27.2079 46.437 27.1699 46.7032 27.1236C46.748 27.1153 46.7931 27.1088 46.8384 27.1044ZM27.2999 39.9208V41.1345C27.9175 40.8306 28.56 40.5801 29.2203 40.3857C31.5156 39.7097 34.3959 39.3509 37.2631 39.1419C40.6097 38.903 43.9661 38.8305 47.3199 38.9245V37.5725C40.9317 37.4285 32.6206 37.6583 27.2999 39.9208ZM6.91229 5.1115C5.57433 5.10526 5.26649 5.12086 4.67993 5.13282V38.9245C8.03373 38.8305 11.3901 38.903 14.7367 39.1419C17.604 39.3509 20.4843 39.7097 22.7796 40.3852C23.4399 40.5797 24.0824 40.8304 24.6999 41.1345V8.02038C24.6989 7.91326 24.6791 7.78898 24.2543 7.48426C23.8289 7.17902 23.0588 6.83426 22.0797 6.54826C20.1208 5.97834 17.3487 5.60706 14.5709 5.3949C11.793 5.18274 9.00529 5.12086 6.91229 5.1115ZM19.3668 6.50302C19.6658 6.49626 20.0111 6.50354 20.4089 6.5285C21.3662 6.58778 22.0396 6.92214 22.5809 7.0745C23.8399 7.4281 24.1825 7.70526 24.2694 7.76766C24.4202 7.8753 24.4508 8.0001 24.337 8.03858C24.2985 8.0521 24.325 8.06822 24.3952 8.07498C24.5023 8.08538 24.5221 8.12022 24.5221 8.28662C24.5221 8.42442 24.4971 8.48214 24.4379 8.4785C24.3791 8.47486 24.3515 8.5331 24.3515 8.66726C24.3515 8.77334 24.3203 8.8711 24.2813 8.88462C24.2252 8.90386 24.2252 8.90958 24.2813 8.91686C24.3853 8.92986 24.3723 9.30374 24.2673 9.33754C24.1477 9.37602 24.1623 9.46078 24.2959 9.50394C24.4134 9.54242 24.4498 9.6927 24.3536 9.74574C24.3229 9.7629 24.2491 9.74678 24.1882 9.71038C24.1103 9.66358 24.065 9.6615 24.039 9.70206C24.0182 9.7343 24.0546 9.77746 24.1201 9.79878C24.1966 9.82374 24.2387 9.88302 24.2387 9.96622C24.2387 10.1352 23.987 10.1935 23.8456 10.0567C23.7572 9.9709 23.7385 9.97194 23.6449 10.0697C23.5435 10.1758 23.5445 10.1779 23.7067 10.156C23.934 10.1259 24.091 10.2559 24.0276 10.4233L23.9797 10.5491L23.8206 10.3931C23.5689 10.1435 23.5757 10.2642 23.8284 10.533C23.9537 10.6661 24.051 10.7743 24.0437 10.7738C24.0369 10.7733 24.0489 10.8918 24.0702 11.0369L24.1097 11.2995L23.8913 11.2569C23.7681 11.2329 23.687 11.2371 23.7041 11.2673C23.7218 11.2964 23.7993 11.3245 23.8757 11.3297C23.9511 11.3338 24.012 11.3697 24.0104 11.4082C24.0052 11.5434 23.4759 11.9074 23.1644 11.9895C22.7177 12.1071 22.6933 12.1211 22.5867 12.3369C22.466 12.5803 22.2487 12.7409 21.9985 12.7721C21.8893 12.7862 21.8061 12.8314 21.8061 12.8761C21.8061 12.9193 21.7869 12.9536 21.764 12.9521C21.7406 12.9505 21.7151 13.042 21.7068 13.1549C21.6985 13.2687 21.6673 13.3904 21.6366 13.4253C21.6065 13.4601 21.5981 13.5064 21.6184 13.5282C21.6392 13.5501 21.6132 13.5646 21.5628 13.5615C21.504 13.5579 21.4822 13.5875 21.503 13.6416C21.5207 13.6894 21.5051 13.8537 21.4671 14.0071C21.4052 14.2609 21.3839 14.2853 21.2383 14.2765C21.1265 14.2697 21.0677 14.2318 21.0417 14.1486C21.0157 14.0669 20.9648 14.0316 20.8769 14.0378C20.8386 14.0387 20.8006 14.0319 20.7651 14.0178C20.7295 14.0037 20.6971 13.9825 20.6699 13.9557C20.5566 13.8267 20.2862 13.2589 20.2415 13.0545C20.2161 12.948 20.1759 12.8456 20.1219 12.7503C19.9258 12.4357 19.9971 11.6963 20.2269 11.65C20.2857 11.6385 20.3304 11.5564 20.3449 11.4316C20.3647 11.2631 20.3496 11.2288 20.2461 11.2023C20.1525 11.1783 20.1302 11.1945 20.151 11.2745C20.1895 11.4248 19.9191 11.4659 19.7906 11.3291C19.6996 11.2329 19.7001 11.2158 19.801 11.0359C19.8993 10.8591 19.9227 10.8481 20.1177 10.8866L20.3288 10.9272L20.1915 10.792C20.1161 10.7171 20.0662 10.6401 20.0808 10.6204C20.0959 10.6006 20.0787 10.6084 20.0413 10.6375C19.9471 10.7114 19.7709 10.6927 19.7631 10.6069C19.7495 10.4628 19.7823 10.3084 19.84 10.2413C19.8816 10.1929 19.8816 10.1337 19.84 10.0437C19.7631 9.8773 19.6008 9.3365 19.6008 9.24602C19.6008 9.20754 19.5608 9.1311 19.5129 9.07546C19.4594 9.00776 19.4214 8.92912 19.4017 8.8451C19.372 8.6891 19.4001 8.71666 19.1006 8.54714L18.8572 8.4083L18.6643 8.51074C18.5047 8.59498 18.4407 8.59966 18.2982 8.54142C18.1188 8.46758 17.9857 8.28454 18.0445 8.19302C18.0632 8.16338 18.0133 8.11138 17.9337 8.07602C17.7517 7.99594 17.7496 7.87582 17.9259 7.74842L18.0616 7.65066L17.8729 7.53626C17.4563 7.28562 17.2733 6.55034 19.3668 6.50302ZM12.5704 6.96322C12.7805 6.9731 12.924 6.9913 12.8892 7.00378C12.8549 7.01574 12.8393 7.08802 12.8538 7.16498C12.8746 7.27626 12.8491 7.31474 12.729 7.35322C12.5356 7.41458 12.5465 7.41718 12.4597 7.29082C12.4146 7.22822 12.3555 7.17709 12.287 7.14158C12.2324 7.11818 12.1882 7.06358 12.1882 7.02198C12.1882 6.96582 12.2901 6.94918 12.5704 6.96322ZM14.041 7.04746C14.2755 7.05058 14.353 7.12026 14.2105 7.2019C14.094 7.26794 13.8361 7.24558 13.7706 7.1629C13.6931 7.06462 13.7446 7.0433 14.041 7.04746ZM14.5631 7.07294C14.7523 7.08438 14.796 7.10466 14.77 7.17018C14.7487 7.22478 14.7721 7.25442 14.8392 7.25858C14.9713 7.2669 15.016 7.31838 14.9785 7.41458C14.9369 7.52066 14.73 7.4957 14.5927 7.36778C14.524 7.30353 14.46 7.23436 14.4013 7.16082C14.3301 7.0667 14.3441 7.0589 14.5625 7.07242M13.3275 7.13846C13.3764 7.0927 13.5459 7.28718 13.5589 7.40522C13.5839 7.61998 13.4482 7.59086 13.3754 7.3657C13.3379 7.25078 13.3166 7.14834 13.3275 7.13846ZM12.0327 7.1707C12.0561 7.17902 12.0806 7.20918 12.1191 7.26638C12.1737 7.3475 12.1867 7.40574 12.1503 7.41562C12.1175 7.42446 12.1029 7.4931 12.117 7.56642C12.131 7.64078 12.1133 7.7167 12.079 7.73542C12.0452 7.75414 12.0182 7.8129 12.0192 7.86542C12.0208 7.9533 12.0255 7.95278 12.0785 7.86542C12.1393 7.76402 12.3577 7.74426 12.3577 7.83994C12.3577 7.87114 12.3967 7.8987 12.4451 7.90234C12.4929 7.90494 12.5756 7.98606 12.6287 8.08278C12.6859 8.18678 12.7711 8.26062 12.8377 8.26478C12.924 8.26998 12.9329 8.25802 12.8736 8.21694C12.8304 8.18678 12.8117 8.13738 12.832 8.10618C12.8416 8.09066 12.8449 8.07198 12.841 8.05412C12.8371 8.03625 12.8264 8.0206 12.8112 8.0105C12.7217 7.94966 12.742 7.84046 12.8694 7.71202C12.9895 7.59034 13.1232 7.61322 13.0707 7.74634C13.054 7.78794 13.067 7.83994 13.0987 7.86126C13.131 7.8831 13.144 7.93666 13.1273 7.9793C13.1065 8.03234 13.1403 8.05834 13.235 8.06458C13.3988 8.07498 13.495 8.23566 13.4503 8.42182C13.4191 8.55078 13.4222 8.55286 13.5033 8.45302C13.5865 8.35162 13.5886 8.35162 13.6536 8.47694C13.69 8.54714 13.7056 8.6059 13.6889 8.60902C13.6272 8.61536 13.5653 8.62004 13.5033 8.62306C13.079 8.64802 12.8814 8.6891 12.7441 8.7775C12.5548 8.8997 12.3853 8.88982 12.2907 8.75202C12.2501 8.69274 12.1336 8.59082 12.0327 8.5253C11.8929 8.43534 11.8559 8.3797 11.8804 8.2939C11.9017 8.21746 11.8949 8.20342 11.8611 8.25022C11.8107 8.31886 11.6219 8.27414 11.6219 8.19302C11.6219 8.12542 11.8227 7.97722 11.9064 7.98242C11.9657 7.98606 11.9688 7.96994 11.9178 7.91638C11.8674 7.8623 11.8227 7.88102 11.7301 7.99334C11.6469 8.0937 11.5793 8.12542 11.5169 8.09474C11.4578 8.06805 11.3944 8.05203 11.3297 8.04742C11.1758 8.04378 11.1633 7.8909 11.3063 7.74582C11.4026 7.64345 11.4919 7.53469 11.5736 7.4203C11.6516 7.30902 11.7421 7.24142 11.793 7.25702C11.8403 7.27158 11.9126 7.24974 11.9542 7.20814C11.9865 7.1759 12.0093 7.1629 12.0327 7.1707ZM16.1777 7.19618C16.3285 7.18942 16.4964 7.19098 16.6519 7.19826H16.6529C16.9649 7.21282 17.227 7.25286 17.2088 7.30694C17.1958 7.3449 17.1282 7.3813 17.058 7.38702C16.9748 7.3943 16.942 7.42654 16.9629 7.48166C16.98 7.52742 16.9499 7.60906 16.8958 7.6621C16.7751 7.78118 16.7471 7.89194 16.8401 7.87842C16.8781 7.87322 16.9181 7.92314 16.9285 7.99022C16.9415 8.07862 16.8921 8.14206 16.7528 8.22006C16.5307 8.3433 16.421 8.35266 16.4631 8.24502C16.4839 8.19146 16.4371 8.1691 16.2915 8.1639C16.1813 8.15974 16.0913 8.1769 16.0913 8.20134C16.0913 8.2263 15.9665 8.22162 15.8121 8.19094C15.5989 8.14986 15.5105 8.15662 15.4455 8.21798C15.3685 8.29026 15.3805 8.31002 15.5583 8.4057C15.744 8.50502 15.7762 8.50658 16.0409 8.43534C16.2718 8.37294 16.3539 8.37294 16.4865 8.43638C16.6758 8.52634 16.7434 8.65998 16.6519 8.76398C16.6165 8.80454 16.6009 8.88878 16.6165 8.95014C16.6321 9.0115 16.6134 9.07078 16.5749 9.08326C16.4834 9.1129 15.4164 9.04374 15.2718 8.99902H15.2708C15.0753 8.93818 15.017 8.84822 15.016 8.60694C15.0149 8.22474 14.9666 8.1119 14.8189 8.13946C14.7211 8.15818 14.6619 8.12282 14.5698 7.98866C14.3904 7.72502 14.4128 7.6283 14.6478 7.64286C14.783 7.65118 14.8678 7.69226 14.9156 7.77078C14.9619 7.84826 15.0238 7.87842 15.1028 7.86334C15.1392 7.85717 15.1766 7.8608 15.2112 7.87387C15.2457 7.88694 15.2762 7.90897 15.2994 7.9377C15.367 8.0235 15.3826 8.01726 15.4476 7.86646C15.4876 7.7739 15.5578 7.70006 15.6036 7.70318C15.6779 7.70734 15.6779 7.68758 15.6072 7.54666C15.5625 7.45826 15.5261 7.36986 15.5256 7.35062C15.5256 7.33086 15.6514 7.28146 15.8053 7.2409C15.9277 7.21391 16.0524 7.19893 16.1777 7.19618ZM12.2959 7.56902C12.3557 7.57162 12.4139 7.61842 12.4139 7.6777C12.4139 7.74322 12.3525 7.74062 12.2517 7.67042C12.1981 7.63298 12.1945 7.60646 12.2381 7.58202C12.2558 7.57243 12.2758 7.56793 12.2959 7.56902ZM18.3856 7.59346C18.3372 7.59034 18.2972 7.6127 18.2972 7.6439C18.2972 7.6751 18.3221 7.70214 18.3513 7.7037C18.3804 7.70578 18.4189 7.6829 18.4386 7.65326C18.4579 7.6231 18.4345 7.59606 18.3856 7.59346ZM14.2765 7.7921C14.2947 7.79418 14.3197 7.81186 14.3577 7.84618C14.4331 7.91274 14.4523 8.01518 14.444 8.31834L14.4336 8.70522L14.21 8.69118C13.9952 8.67766 13.9864 8.66934 14.0082 8.51854C14.029 8.37658 14.0171 8.36254 13.8928 8.37814C13.7664 8.39478 13.7576 8.38282 13.7929 8.24398C13.8189 8.14414 13.8122 8.10358 13.7727 8.12542C13.6624 8.18678 13.5168 8.0859 13.5085 7.94134C13.4991 7.77806 13.6052 7.75934 13.7394 7.90182C13.7883 7.95382 13.8288 7.97566 13.8288 7.94966C13.8288 7.85138 14.0602 7.76714 14.1382 7.83682C14.1939 7.88622 14.2199 7.88466 14.2381 7.83162C14.2479 7.80302 14.2589 7.79002 14.2765 7.7921ZM14.6951 8.3823C14.9083 8.39582 15.0591 8.86382 14.8699 8.92466C14.7518 8.96262 14.7711 8.97146 14.6208 8.80194C14.5069 8.6735 14.497 8.63294 14.5532 8.51438C14.5885 8.43846 14.6525 8.3797 14.6951 8.3823ZM11.2044 8.69846C11.3021 8.6891 11.3708 8.69014 11.4259 8.7021C11.4776 8.71372 11.5248 8.7403 11.5616 8.77854C11.6204 8.8347 11.7207 8.8763 11.7852 8.87006C11.8658 8.86226 11.9755 8.94182 12.1305 9.1207C12.2553 9.26474 12.3562 9.40566 12.3562 9.43478C12.3562 9.46338 12.3817 9.47482 12.4118 9.45766C12.442 9.44102 12.5314 9.47274 12.6099 9.5289C12.7441 9.6251 12.7529 9.62562 12.7529 9.5341C12.7529 9.44258 12.7623 9.44258 12.8944 9.53722C13.0322 9.63602 13.0353 9.63602 13.0353 9.49666C13.0353 9.41242 13.0681 9.35574 13.1149 9.35834C13.158 9.36094 13.2074 9.32558 13.2256 9.28034C13.2589 9.19454 13.5173 9.17998 13.5657 9.2611C13.5808 9.28606 13.5636 9.41034 13.5293 9.5367C13.483 9.68374 13.4839 9.84157 13.5319 9.98806C13.5683 10.1092 13.613 10.2673 13.6317 10.3385C13.6505 10.4098 13.6952 10.4706 13.7321 10.4737C13.8377 10.4831 14.0545 10.6994 14.0545 10.7956C14.0545 10.8435 14.0098 10.9048 13.9557 10.9313C13.9011 10.9584 13.8761 11 13.8985 11.0239C13.9703 11.0998 13.8215 11.2127 13.6629 11.2028C13.6047 11.1835 13.4341 11.1232 13.4165 11.1217C13.4149 11.1217 12.936 11.2257 12.8497 11.2402C12.7887 11.2265 12.7265 11.2186 12.664 11.2168C12.559 11.1778 12.4181 11.2543 12.3572 11.0811C12.3572 11.0457 12.2704 10.9833 12.1643 10.9417C11.9901 10.8736 11.9043 10.7743 11.9043 10.6412C11.9043 10.6152 11.975 10.5725 12.0603 10.5465L12.2147 10.4997L12.0379 10.4841C11.8575 10.468 11.7915 10.3864 11.7915 10.1773C11.7915 10.1175 11.7655 10.0671 11.7343 10.065C11.6547 10.0598 11.6641 9.87106 11.7488 9.78682C11.8071 9.7291 11.7967 9.7265 11.6916 9.77382C11.6219 9.80502 11.5647 9.88302 11.5647 9.94542C11.5647 10.0078 11.5211 10.0702 11.4659 10.0863C11.3963 10.1108 11.331 10.1463 11.2725 10.1914C11.1877 10.259 11.1685 10.2486 11.0905 10.0936C11.0427 9.99846 10.961 9.90122 10.9095 9.87834C10.844 9.84922 10.8279 9.80034 10.8539 9.71298C10.8747 9.64434 10.9007 9.51954 10.9137 9.43582C10.9267 9.35158 10.9626 9.23562 10.9943 9.17842C11.0307 9.11342 11.0323 9.00786 11.0011 8.89762C10.9517 8.72134 10.9543 8.7203 11.2039 8.69846M14.8693 9.10042C14.9421 9.0973 15.0331 9.11602 15.1423 9.15502C15.3659 9.23614 15.3867 9.26994 15.3051 9.42438C15.277 9.47638 15.2261 9.58766 15.1923 9.67138C15.1585 9.75458 15.095 9.82114 15.0508 9.81854C14.9453 9.81178 14.8844 10.064 14.9572 10.2054C14.9895 10.2668 15.0155 10.3599 15.0155 10.4113C15.0155 10.4633 15.0669 10.5741 15.1293 10.6573C15.2157 10.7727 15.2281 10.8253 15.1787 10.8809C15.1299 10.9371 15.1356 10.9547 15.2063 10.9589C15.2619 10.9625 15.2978 11.0119 15.2978 11.0847C15.2978 11.1872 15.3113 11.196 15.3862 11.1388C15.5131 11.0411 15.6493 11.2028 15.6493 11.4524C15.6493 11.5605 15.6712 11.6859 15.6987 11.7311C15.7273 11.7779 15.7492 11.7862 15.7497 11.7503C15.7497 11.715 15.7929 11.5902 15.8454 11.4727C15.9889 11.1492 15.9088 10.8341 15.679 10.8201C15.4876 10.8081 15.2807 10.3614 15.3202 10.0468C15.3805 9.56218 15.55 9.33962 15.8443 9.35834C15.9863 9.36718 16.0222 9.38954 15.9977 9.45298C15.9686 9.52578 15.9842 9.52682 16.1267 9.46182C16.3789 9.3469 16.8755 9.44986 17.0377 9.6511C17.1074 9.73742 17.1657 9.83414 17.1667 9.86534C17.1703 9.97142 17.4761 10.3469 17.5442 10.3281C17.5817 10.3177 17.6581 10.3682 17.7137 10.4399C17.7699 10.5117 17.85 10.6006 17.8916 10.6381C18.149 10.8689 18.2935 11.0723 18.2644 11.1622C18.2452 11.2225 18.2618 11.2631 18.3071 11.2667C18.357 11.2709 18.3487 11.2964 18.2826 11.3427C18.1521 11.4342 18.1578 11.5236 18.2967 11.5767C18.3591 11.6001 18.411 11.6417 18.411 11.6703C18.411 11.6978 18.4547 11.7082 18.5093 11.6921C18.5634 11.6765 18.5894 11.6822 18.566 11.7067C18.5431 11.7306 18.6258 11.8502 18.7501 11.9724C19.0049 12.2235 19.0205 12.2969 18.8624 12.4887C18.8016 12.5626 18.7506 12.6551 18.7501 12.6936C18.7491 12.7326 18.7225 12.7628 18.6898 12.7607C18.6149 12.756 18.3544 12.4607 18.3518 12.378C18.3507 12.3437 18.3253 12.3556 18.2946 12.405C18.228 12.5158 18.2805 12.678 18.3851 12.6848C18.5691 12.6962 18.7075 13.3691 18.5359 13.4159C18.4974 13.4263 18.4667 13.4071 18.4667 13.3733C18.4667 13.3395 18.4443 13.3109 18.4178 13.3093C18.3908 13.3072 18.3819 13.3743 18.397 13.4565C18.4272 13.6151 18.4433 13.6125 18.085 13.4866C18.0148 13.4622 17.9566 13.4221 17.9566 13.3967C17.9566 13.3707 17.8942 13.3301 17.8177 13.3062C17.7307 13.2737 17.6575 13.2124 17.6103 13.1325C17.4652 12.8517 17.3066 12.7612 17.1027 12.8418C16.9493 12.9027 16.8032 12.7415 16.8485 12.5626C16.8823 12.4295 16.9098 12.4149 17.0435 12.4497C17.2229 12.4965 17.3679 12.4378 17.3107 12.3411C17.2894 12.3047 17.3237 12.2116 17.3877 12.1341C17.4522 12.0561 17.5047 11.9365 17.5047 11.8689C17.5047 11.6994 17.213 11.4092 17.084 11.4503C17.0045 11.4763 16.9889 11.4555 17.0029 11.3468C17.0227 11.1991 16.8589 10.9074 16.8037 10.9927C16.785 11.0218 16.6784 11.04 16.5671 11.0333C16.3248 11.0177 16.2562 11.0665 16.3799 11.1653C16.4491 11.2199 16.4694 11.3255 16.4647 11.5876C16.4564 12.0109 16.2801 12.2667 16.0352 12.2121C15.9031 12.183 15.9099 12.1981 16.1173 12.3972C16.2416 12.5168 16.3628 12.6156 16.3867 12.6177C16.4101 12.6187 16.4293 12.6525 16.4293 12.6915C16.4293 12.7311 16.4813 12.7981 16.5448 12.8423C16.6082 12.8855 16.6446 12.9443 16.6264 12.9729C16.5807 13.0441 16.3316 13.0243 16.2848 12.9453C16.2609 12.9047 16.2042 12.9219 16.1236 12.9921C16.0144 13.0878 15.9801 13.0914 15.8475 13.0217C15.6982 12.9432 15.6561 12.8548 15.7331 12.782C15.7549 12.7617 15.7793 12.6895 15.7882 12.6208L15.8053 12.496L15.7325 12.6213C15.6925 12.6905 15.5776 12.7909 15.4788 12.8449C15.3795 12.899 15.2978 12.976 15.2978 13.0155C15.2978 13.055 15.2177 13.158 15.12 13.2443C14.8049 13.522 14.6764 14.0191 14.9005 14.0919C14.9713 14.1148 15.0248 14.1943 15.0461 14.3077C15.0737 14.4564 15.1065 14.4897 15.2385 14.5027C15.3269 14.511 15.4829 14.5849 15.5869 14.666C15.8797 14.8937 16.0321 14.9707 16.2099 14.9816C16.3659 14.992 16.3732 15.0045 16.3732 15.2437C16.3732 15.4309 16.4091 15.5385 16.5136 15.6633C16.6956 15.8812 16.771 15.7871 16.7044 15.4267C16.6597 15.1839 16.668 15.1584 16.8261 15.0206C16.9197 14.9395 16.9951 14.8511 16.9951 14.8246C16.9941 14.6722 16.8682 14.3503 16.797 14.3186C16.6878 14.2697 16.6878 14.1065 16.798 14.1137C16.8677 14.1179 16.8807 14.0389 16.8687 13.6801C16.8573 13.3124 16.8682 13.2448 16.9389 13.2687C16.9857 13.2843 17.1272 13.3051 17.2541 13.3161C17.4298 13.3317 17.5193 13.3759 17.6326 13.5053C17.7143 13.5984 17.824 13.6837 17.8765 13.6951C17.9457 13.7097 17.9763 13.7783 17.9857 13.9437C17.994 14.0841 18.0434 14.2203 18.1131 14.2942C18.2202 14.4086 18.2317 14.4091 18.3102 14.3228C18.3559 14.2723 18.41 14.1647 18.4308 14.0831C18.4677 13.9385 18.6373 13.8792 18.6373 14.0108C18.6373 14.0472 18.6726 14.1205 18.7163 14.172C18.7605 14.224 18.851 14.432 18.9175 14.6348C19.0491 15.0352 19.1125 15.1262 19.3075 15.2C19.3777 15.2271 19.4635 15.3129 19.4973 15.3903C19.5317 15.4673 19.5909 15.5318 19.6294 15.5344C19.7178 15.5396 19.7672 15.8604 19.6903 15.9327C19.6507 15.9691 19.6549 15.9883 19.7027 15.9915C19.7547 15.9946 19.7568 16.0227 19.7105 16.1059C19.6403 16.2333 19.748 16.3903 19.9118 16.4007C19.9726 16.4043 19.995 16.4371 19.9742 16.4901C19.956 16.5354 19.9638 16.5733 19.9898 16.5754C20.0688 16.5806 20.1063 16.8183 20.0459 16.928C20.0007 17.0091 19.9679 17.0164 19.8785 16.9623C19.8166 16.9254 19.7423 16.9093 19.7137 16.9249C19.6856 16.9405 19.6471 16.9259 19.6273 16.8937C19.6081 16.8604 19.5041 16.8281 19.3959 16.8209C19.2238 16.8105 19.2015 16.7933 19.2191 16.6831C19.2301 16.6139 19.2867 16.4647 19.3439 16.3518C19.4609 16.1235 19.4261 16.0221 19.2737 16.1501C19.1971 16.2054 19.1095 16.2437 19.0169 16.2624C18.891 16.2863 18.8723 16.3081 18.9248 16.3742C18.9768 16.4407 18.9633 16.4548 18.8557 16.4465C18.7671 16.4349 18.683 16.4005 18.6118 16.3466C18.4865 16.2442 18.2967 16.2161 18.2967 16.2998C18.2967 16.331 18.3762 16.3622 18.4735 16.3685C18.6409 16.3789 18.6487 16.3882 18.6159 16.551C18.5775 16.7403 18.6451 16.8474 18.8447 16.9113C18.9217 16.9368 18.9799 16.9233 18.9987 16.8749C19.0423 16.7637 19.1318 16.7871 19.1734 16.9207C19.2171 17.0601 19.1292 17.1505 18.8624 17.2384C18.7537 17.2748 18.6253 17.3351 18.5764 17.3736C18.436 17.4828 18.3544 17.449 18.3497 17.279C18.3471 17.1937 18.3325 17.1537 18.3175 17.1901C18.3019 17.2265 18.2031 17.2785 18.098 17.3065C17.9056 17.3585 17.7673 17.5717 17.8937 17.6217C17.9805 17.656 17.9748 17.7506 17.8864 17.7454C17.7559 17.7376 17.3809 17.8359 17.4121 17.8692C17.4293 17.8874 17.3794 18.0231 17.3014 18.1718C17.2218 18.3247 17.175 18.489 17.1937 18.5499C17.2182 18.6279 17.1688 18.6965 17.0133 18.8036C16.641 19.0595 16.486 19.2019 16.486 19.2893C16.486 19.3361 16.5287 19.5113 16.5807 19.6793C16.6581 19.9294 16.6618 19.9986 16.6015 20.0672C16.5619 20.113 16.5115 20.1499 16.4902 20.1483C16.4335 20.1447 16.2042 19.7074 16.2042 19.6029C16.2042 19.4817 16.1553 19.4562 15.7778 19.3886C15.4866 19.3366 15.4528 19.3413 15.4845 19.4261C15.524 19.5306 15.3789 19.5363 15.0441 19.4427C14.9224 19.4084 14.8241 19.4245 14.6967 19.4983C14.5355 19.5919 14.5137 19.6367 14.4793 19.9663C14.4383 20.3584 14.4887 20.5727 14.6665 20.7609C14.8116 20.9153 15.2021 20.8862 15.2318 20.7193C15.2479 20.6499 15.2869 20.588 15.3425 20.5435C15.4372 20.4759 15.8074 20.4733 15.8074 20.5404C15.8074 20.5836 15.7045 20.9112 15.6322 21.0989C15.5869 21.2149 15.5984 21.2242 15.8038 21.2372C16.1662 21.2596 16.2042 21.2955 16.2042 21.6272C16.2042 22.0146 16.356 22.2289 16.5713 22.1441C16.618 22.1246 16.6683 22.1155 16.7189 22.1173C16.7694 22.1192 16.819 22.1321 16.8641 22.155C16.9941 22.2127 17.0325 22.2039 17.1329 22.0926C17.2535 21.9585 17.7309 21.8316 17.7309 21.933C17.7309 21.9626 17.7808 21.9741 17.8422 21.9579C17.903 21.9423 18.0112 21.9647 18.0814 22.0068C18.1521 22.0489 18.357 22.0905 18.5374 22.1004C18.8156 22.115 18.8905 22.1425 19.0293 22.2783C19.4219 22.662 19.5759 22.7733 19.7298 22.7827C20.0064 22.7998 20.2482 22.9683 20.3553 23.2184C20.4099 23.3453 20.4385 23.4727 20.4188 23.5029C20.4177 23.5044 20.4521 23.5081 20.4552 23.5101L20.4448 23.5174L20.8145 23.6433L21.0027 23.7691C21.1057 23.8383 21.3095 23.9183 21.4551 23.9469C21.6007 23.9755 21.7957 24.0613 21.8893 24.1367C21.9829 24.2121 22.1103 24.286 22.1727 24.3011C22.2601 24.3224 22.2892 24.3801 22.3027 24.559C22.3173 24.7618 22.2871 24.8278 22.062 25.0873C21.8514 25.3296 21.8051 25.4253 21.8051 25.6104C21.8051 25.8793 21.7198 26.1408 21.5451 26.4097C21.4437 26.5657 21.3709 26.6104 21.1915 26.6281C20.8878 26.6577 20.6164 26.8719 20.6164 27.0831C20.6164 27.2443 20.4411 27.5604 20.2368 27.7643C20.1509 27.855 20.0708 27.951 19.9971 28.0518C19.8853 28.2057 19.8379 28.2281 19.6825 28.2C19.4994 28.1673 19.4693 28.2083 19.5634 28.3649C19.6788 28.5573 19.3762 28.8141 19.059 28.7944C18.9529 28.7876 18.9108 28.8266 18.8728 28.967C18.8317 29.1178 18.7995 29.1438 18.6737 29.1277C18.5905 29.1163 18.5234 29.1308 18.5234 29.1599C18.5234 29.1891 18.5582 29.2151 18.6014 29.2177C18.7324 29.226 18.7553 29.3908 18.6341 29.4485C18.5728 29.4771 18.5234 29.5437 18.5234 29.5957C18.5234 29.6477 18.4537 29.7444 18.3679 29.8099L18.2119 29.9295L18.3435 30.0497C18.4917 30.1849 18.4766 30.3211 18.2961 30.4729C18.2343 30.5249 18.1843 30.5941 18.1843 30.6243C18.1843 30.6555 18.1401 30.709 18.0866 30.7444C18.0044 30.7995 18.0013 30.8328 18.059 30.9638C18.097 31.0486 18.1271 31.1635 18.1271 31.2186C18.1271 31.3325 18.3523 31.5795 18.4615 31.5863C18.501 31.5889 18.5223 31.6227 18.5093 31.6606C18.4865 31.7282 18.0855 31.7329 17.799 31.6695C17.7127 31.6507 17.6742 31.6097 17.6867 31.5478C17.6971 31.4963 17.656 31.4251 17.5962 31.3902C17.5342 31.3533 17.4822 31.3017 17.4449 31.2399C17.3581 31.0631 17.266 30.5052 17.2873 30.2842C17.3029 30.1178 17.2905 30.0632 17.2374 30.0803C17.1932 30.0944 17.1657 30.0559 17.1657 29.9784C17.1657 29.9015 17.2083 29.8453 17.2785 29.8313C17.3409 29.8188 17.3919 29.7637 17.3919 29.7075C17.3919 29.6513 17.4075 29.5655 17.4267 29.5177C17.4496 29.4584 17.4293 29.4283 17.3638 29.4241C17.2894 29.4194 17.2743 29.3877 17.3014 29.2931C17.3211 29.2244 17.3523 29.0034 17.3695 28.8027C17.3872 28.6015 17.4501 28.3201 17.5099 28.1777C17.5697 28.0357 17.6175 27.8105 17.6175 27.6764C17.6175 27.5417 17.6571 27.2344 17.7039 26.9936C17.7539 26.7181 17.7821 26.439 17.7881 26.159C17.7881 25.8174 17.7699 25.7472 17.6602 25.6494C17.59 25.586 17.512 25.5329 17.4855 25.5298C17.3258 25.5142 17.0861 25.2194 16.8812 24.7862C16.7543 24.5195 16.6015 24.2522 16.5411 24.1934C16.4304 24.0868 16.3935 23.8752 16.473 23.8003C16.4964 23.7785 16.5157 23.6807 16.5157 23.5819V23.4035L16.5999 23.2803C16.5999 23.2569 16.6701 23.1669 16.7554 23.0806C16.8407 22.9938 16.9025 22.87 16.8942 22.8061C16.8453 22.4192 16.8141 22.3183 16.7387 22.3136C16.728 22.313 16.7172 22.3147 16.7071 22.3185C16.697 22.3223 16.6878 22.3281 16.6801 22.3356C16.6724 22.3432 16.6663 22.3522 16.6623 22.3622C16.6582 22.3722 16.6563 22.3829 16.6566 22.3937C16.6566 22.4889 16.5125 22.4998 16.459 22.4093C16.4457 22.3914 16.4288 22.3765 16.4094 22.3656C16.3899 22.3548 16.3683 22.3482 16.3461 22.3464C16.2416 22.3396 15.8703 22.0755 15.8646 22.0037C15.8547 21.8779 15.6519 21.7021 15.4117 21.6111C15.2713 21.5581 15.0841 21.4515 14.9952 21.3729C14.8714 21.2643 14.7913 21.2362 14.6541 21.2533C14.5189 21.2705 14.3629 21.218 14.0249 21.0433C13.4841 20.763 13.3655 20.6585 13.4066 20.4973C13.4289 20.4099 13.3738 20.3064 13.1944 20.1057C12.8127 19.6777 12.533 19.3039 12.4721 19.1401C12.4415 19.0569 12.3889 18.9872 12.3577 18.9856C12.2657 18.9799 12.2901 19.0657 12.4274 19.2342C12.4976 19.32 12.6183 19.516 12.6957 19.6699C12.7737 19.8239 12.8699 19.9715 12.9089 19.9991C12.9293 20.0147 12.946 20.0345 12.9582 20.0571C12.9703 20.0797 12.9774 20.1046 12.9791 20.1301C12.9791 20.1754 12.9479 20.2097 12.9089 20.2061C12.8044 20.1972 12.5137 19.9091 12.5517 19.8509C12.5694 19.8233 12.5018 19.7381 12.4004 19.6616C12.329 19.6086 12.2584 19.5545 12.1887 19.4994C12.1742 19.4869 12.1991 19.4562 12.2439 19.4318C12.3135 19.3923 12.3109 19.3694 12.2246 19.2768C12.169 19.2175 12.0639 19.0517 11.9922 18.9076C11.9178 18.7584 11.7915 18.605 11.6994 18.554C11.5039 18.4448 11.4561 18.3814 11.2221 17.9108C11.0479 17.5613 11.0401 17.5182 11.0333 16.8344C11.0271 16.2031 11.0141 16.1116 10.9184 16.0362C10.5882 15.7741 10.4816 15.6363 10.5492 15.5599C10.6012 15.4995 10.5939 15.4481 10.5154 15.3207C10.4597 15.2323 10.3812 15.1376 10.3396 15.1101C10.298 15.0825 10.2632 14.9977 10.2632 14.9208C10.2559 14.8286 10.2154 14.7421 10.1493 14.6774C10.0869 14.6202 10.037 14.5407 10.037 14.5017C10.037 14.4039 9.85809 14.1902 9.80245 14.2209C9.77749 14.2349 9.74109 14.1793 9.72081 14.0992C9.69845 14.0077 9.64593 13.952 9.57885 13.9484C9.52009 13.9442 9.35525 13.8444 9.21225 13.7263C9.03181 13.5776 8.89349 13.5085 8.75829 13.5001C8.64753 13.4934 8.46657 13.4201 8.33865 13.3317C8.21489 13.2453 8.11297 13.1991 8.11297 13.2277C8.11297 13.2568 8.14521 13.2937 8.18421 13.3093C8.23985 13.3311 8.23933 13.3551 8.18005 13.4227C8.13897 13.47 8.06981 13.4939 8.02665 13.4747C7.98401 13.4554 7.89041 13.4762 7.81969 13.5215C7.61065 13.6546 7.52797 13.6213 7.56905 13.419L7.60441 13.2433L7.49053 13.38C7.42813 13.4559 7.39173 13.5563 7.40941 13.6036C7.42709 13.6509 7.41513 13.705 7.38185 13.7232C7.3643 13.734 7.34967 13.749 7.33924 13.7667C7.32882 13.7845 7.32291 13.8046 7.32205 13.8251C7.32309 13.8621 7.35013 13.8491 7.38185 13.7965C7.41357 13.7445 7.47493 13.7035 7.51809 13.7061C7.65953 13.7149 7.58153 13.9713 7.39329 14.1174L7.21129 14.2599L7.22741 14.0607C7.24509 13.8392 7.26017 13.8345 6.85301 14.1813C6.72509 14.2905 6.59977 14.3654 6.57481 14.3477C6.54881 14.3311 6.52905 14.3581 6.52905 14.4081C6.52905 14.4585 6.50357 14.4829 6.47393 14.4627C6.44429 14.4429 6.32989 14.459 6.21913 14.4985C5.97889 14.5838 5.93469 14.5859 5.93469 14.5167C5.93469 14.4621 6.33197 14.198 6.40685 14.2027C6.48381 14.2079 6.79685 13.8907 6.82753 13.7773C6.85197 13.6858 6.84053 13.6754 6.75525 13.7154C6.68037 13.7508 6.64449 13.7399 6.62109 13.678C6.59873 13.6177 6.53997 13.6 6.42037 13.6166C6.26541 13.6385 6.25345 13.6291 6.27581 13.5064C6.29713 13.3904 6.27841 13.3712 6.14581 13.3639C6.02465 13.3582 5.99137 13.3296 5.98981 13.2318C5.98877 13.1637 5.92741 13.0509 5.85357 12.9822C5.73241 12.8694 5.72565 12.8439 5.79273 12.7233C5.86657 12.5891 6.24825 12.3265 6.35797 12.3333C6.43077 12.3374 6.43441 12.1866 6.36317 12.1383C6.35617 12.1335 6.34828 12.1302 6.33997 12.1286C6.33166 12.127 6.32311 12.1271 6.31484 12.1289C6.30657 12.1307 6.29876 12.1342 6.29187 12.1391C6.28498 12.144 6.27916 12.1503 6.27477 12.1575C6.25501 12.1887 6.20821 12.1929 6.17129 12.1663C6.12558 12.1366 6.07425 12.1166 6.02049 12.1076C5.96198 12.0998 5.90356 12.0913 5.84525 12.0821C5.74957 12.0675 5.62373 11.8361 5.62373 11.6739C5.62373 11.5694 5.89205 11.3983 6.04233 11.4077C6.09225 11.4108 6.13281 11.4519 6.13281 11.4981C6.13281 11.5449 6.17025 11.586 6.21705 11.5886C6.26385 11.5917 6.30337 11.5439 6.30337 11.481C6.30337 11.4186 6.27841 11.3666 6.24877 11.364C6.21861 11.3624 6.08029 11.2423 5.94093 11.0983C5.74853 10.8996 5.69445 10.8076 5.71837 10.7171C5.74073 10.6329 5.79429 10.6001 5.90245 10.6063C6.02517 10.6141 6.07405 10.5751 6.15309 10.4015C6.24669 10.1945 6.59249 9.93658 6.73185 9.96986C6.76565 9.97766 6.83897 9.9371 6.89461 9.87938C6.98405 9.78578 7.01265 9.7837 7.14421 9.85806C7.22585 9.90434 7.36261 9.9631 7.44789 9.9891C7.53369 10.0151 7.60441 10.0614 7.60441 10.0915C7.60441 10.1222 7.68189 10.1519 7.77601 10.1576C7.87013 10.1633 8.03809 10.2117 8.14989 10.2652C8.26169 10.3188 8.45045 10.3692 8.56901 10.377C8.68809 10.3843 8.79885 10.4134 8.81601 10.442C8.83317 10.4706 8.93353 10.5164 9.03857 10.5424C9.14361 10.5684 9.27413 10.6433 9.32977 10.7083C9.47537 10.8783 9.58457 10.8653 9.97301 10.6303C10.2159 10.4826 10.3516 10.4337 10.4327 10.4644C10.5081 10.493 10.5435 10.4852 10.5336 10.4399C10.5247 10.402 10.5497 10.3619 10.5892 10.3495C10.6308 10.337 10.6984 10.4202 10.7541 10.5507L10.8482 10.7733L10.9064 10.6219C10.974 10.4446 11.0307 10.4295 11.0697 10.5824C11.09 10.6609 11.1347 10.6864 11.233 10.6734C11.3115 10.663 11.4909 10.7254 11.6589 10.8201C11.818 10.91 12.0104 10.9865 12.0853 10.9917C12.1573 10.9966 12.226 11.0234 12.2823 11.0686L12.3879 11.235C12.3947 11.2506 12.364 11.2881 12.313 11.3234C12.2262 11.3843 12.2402 11.3947 12.4305 11.4077C12.5496 11.4165 12.6942 11.3999 12.7529 11.3723C12.8237 11.339 12.8705 11.3421 12.8933 11.3817C12.9131 11.4139 12.9661 11.4425 13.0114 11.4456C13.1372 11.3614 13.2922 11.1731 13.6603 11.3728C13.7175 11.3759 13.7784 11.403 13.7955 11.4321C13.8132 11.4612 13.9146 11.4888 14.0212 11.4924C14.1762 11.4976 14.2193 11.4727 14.2396 11.3692C14.2552 11.286 14.2375 11.2381 14.1876 11.235C14.0867 11.2288 14.0888 11.2158 14.2334 10.9792L14.3571 10.7785L14.5433 10.9927C14.6613 11.1284 14.744 11.1851 14.7685 11.1471C14.7903 11.1133 14.7409 11.0244 14.6598 10.9495C14.5423 10.8414 14.5142 10.7665 14.5168 10.571C14.5189 10.4368 14.5568 10.272 14.6021 10.2054C14.6629 10.1165 14.6749 10.0026 14.6468 9.77382C14.5896 9.31622 14.6504 9.10874 14.8693 9.10042ZM14.0545 9.21222C14.1143 9.2065 14.1944 9.20702 14.2973 9.21222L14.5126 9.22262L14.4814 9.42022C14.4601 9.55126 14.4762 9.64746 14.5282 9.70258C14.639 9.82062 14.6021 10.1139 14.4606 10.2366C14.2958 10.3807 14.2074 10.3599 14.1195 10.1565C14.0779 10.0609 14.0176 9.98078 13.9843 9.9787C13.9011 9.9735 13.7747 9.78786 13.7721 9.66826C13.7701 9.55386 13.886 9.54398 13.9853 9.65006C14.0727 9.74262 14.0727 9.67138 13.9853 9.50758C13.8772 9.30374 13.8751 9.22886 14.0545 9.21222ZM17.0601 11.5418C17.0876 11.5341 17.1168 11.5341 17.1443 11.5418C17.2197 11.5611 17.2509 11.6188 17.2509 11.7394C17.2509 11.8814 17.2249 11.9089 17.0944 11.9157C16.9644 11.9225 16.9395 11.9027 16.94 11.793C16.941 11.6536 16.9857 11.5642 17.0601 11.5418ZM11.4925 11.8294C11.4838 11.8269 11.4748 11.8262 11.4658 11.8273C11.4569 11.8283 11.4483 11.8312 11.4405 11.8356C11.403 11.8564 11.4087 11.8866 11.4581 11.9219C11.507 11.9563 11.5153 11.9906 11.4795 12.0155C11.3703 12.0904 11.2673 12.2423 11.324 12.2459C11.3557 12.248 11.3957 12.2147 11.4124 12.1715C11.429 12.1289 11.5205 12.0821 11.6152 12.067C11.8346 12.0327 11.8986 11.9417 11.7119 11.9297C11.6339 11.9251 11.5549 11.8949 11.5351 11.8621C11.5255 11.8462 11.5103 11.8346 11.4925 11.8294ZM16.8469 12.9853C16.8906 12.9879 16.9405 13.0301 16.9587 13.0774C16.9915 13.1647 16.8791 13.1923 16.8063 13.1153C16.7429 13.0477 16.7637 12.9801 16.8469 12.9853ZM16.3352 13.1309C16.4247 13.1559 16.4247 13.1673 16.3425 13.2797C16.2562 13.3967 16.0893 13.4393 16.0893 13.3447C16.0893 13.2417 16.2453 13.1065 16.3352 13.1309ZM5.76985 13.146C5.87489 13.1528 5.91025 13.1803 5.89673 13.2479C5.87645 13.3504 5.80313 13.3795 5.69445 13.3291C5.56445 13.2687 5.61853 13.1367 5.76985 13.146ZM12.4352 13.2084C12.4066 13.1897 12.3213 13.2313 12.2444 13.3005C12.0795 13.4476 12.1716 13.4783 12.3588 13.3379C12.43 13.2854 12.4638 13.2271 12.4352 13.2084ZM16.6498 13.3119C16.7299 13.3171 16.7512 13.3473 16.7294 13.4315C16.6956 13.5579 16.6327 13.6083 16.5786 13.5516C16.498 13.4663 16.5458 13.3051 16.6498 13.3119ZM5.78701 14.5781C5.81301 14.5781 5.83745 14.5849 5.85825 14.5989C5.88841 14.6197 5.86709 14.6675 5.81041 14.7071C5.67833 14.7991 5.62321 14.7965 5.62321 14.6982C5.62321 14.6306 5.70953 14.5771 5.78701 14.5781ZM10.0302 14.8256C10.115 14.8308 10.1498 14.8688 10.1529 14.9598C10.1555 15.03 10.1685 15.1454 10.1815 15.2167C10.2101 15.3716 10.1935 15.3753 10.077 15.239C10.0181 15.1604 9.97498 15.071 9.95013 14.9759C9.91685 14.8407 9.92829 14.8199 10.0302 14.8256ZM14.3244 15.3191C14.2734 15.317 14.276 15.3337 14.3353 15.3753C14.3821 15.4085 14.4003 15.4356 14.3748 15.4345C14.3499 15.4335 14.3462 15.46 14.367 15.4943C14.4201 15.5838 14.47 15.5188 14.4294 15.4122C14.4112 15.3628 14.3639 15.3217 14.3244 15.3196M15.6587 16.3908C15.5963 16.3893 15.5365 16.4095 15.4569 16.4517C15.2833 16.5432 15.2375 16.6576 15.3966 16.6019C15.5916 16.5338 15.6982 16.5219 15.6894 16.5707C15.6686 16.6789 15.6987 16.7153 15.7835 16.6883C15.8292 16.673 15.8768 16.6644 15.9249 16.6628C16.017 16.6685 15.9795 16.5104 15.8771 16.46C15.7856 16.4142 15.7211 16.3924 15.6587 16.3908ZM16.186 16.8885C16.1771 16.9009 16.2 16.9571 16.251 17.0824C16.3025 17.2077 16.3508 17.3112 16.3586 17.3117C16.3664 17.3128 16.3727 17.2421 16.3727 17.1563C16.3727 17.0642 16.329 16.9706 16.265 16.9269C16.2462 16.9132 16.2266 16.9007 16.2063 16.8895C16.1959 16.8843 16.1891 16.8843 16.1855 16.8885M15.8755 16.9113C15.8638 16.9113 15.8522 16.9134 15.8412 16.9176C15.7513 16.9467 15.6956 17.1095 15.6946 17.345C15.6946 17.4376 15.718 17.4906 15.7507 17.4724C15.7819 17.4547 15.7923 17.3778 15.7731 17.3008H15.7721C15.7625 17.2534 15.7627 17.2045 15.7725 17.1572C15.7823 17.1098 15.8016 17.0649 15.8293 17.0252C15.8828 16.9472 15.8974 16.9145 15.8755 16.9113ZM16.4793 16.9238C16.4481 16.9217 16.4377 16.9472 16.4569 16.9795C16.4761 17.0117 16.5183 17.0398 16.5495 17.0419C16.5807 17.0434 16.59 17.019 16.5708 16.9867C16.5515 16.9545 16.5105 16.9259 16.4793 16.9238ZM16.8188 19.854C16.8989 19.8504 16.9956 19.9112 16.9956 19.9892C16.9956 20.0324 16.9826 20.0672 16.967 20.0662C16.9514 20.0651 16.9384 20.0386 16.9384 20.0074C16.9384 19.9762 16.8828 19.9476 16.8147 19.9435C16.7289 19.9383 16.7075 19.919 16.7471 19.8811C16.7671 19.8639 16.7925 19.8543 16.8188 19.854ZM6.64241 19.8764C6.67361 19.8779 6.69805 19.905 6.69805 19.9362C6.69815 19.9434 6.69673 19.9506 6.69389 19.9573C6.69106 19.9639 6.68686 19.9699 6.68157 19.9748C6.67629 19.9798 6.67003 19.9836 6.66319 19.986C6.65636 19.9883 6.64911 19.9893 6.64189 19.9887C6.62671 19.9875 6.6125 19.9808 6.60202 19.9697C6.59155 19.9587 6.58555 19.9441 6.58521 19.9289C6.58521 19.8977 6.61121 19.8743 6.64241 19.8764ZM6.78645 19.9414C6.88681 19.9476 7.26485 20.2451 7.26485 20.3179C7.26485 20.3387 7.22481 20.3678 7.17749 20.3829C7.12029 20.4016 7.07349 20.3636 7.03917 20.2721C7.01057 20.1962 6.93517 20.1135 6.87173 20.0896C6.76877 20.0506 6.70273 19.9362 6.78645 19.9414ZM16.8381 20.0818C16.8464 20.0797 16.8552 20.0795 16.8636 20.0812C16.8721 20.0829 16.88 20.0865 16.8869 20.0917C16.9551 20.1385 16.9545 20.2919 16.8859 20.2877C16.8563 20.2856 16.8167 20.2565 16.7975 20.2248C16.7627 20.1665 16.7918 20.0953 16.837 20.0823L16.8381 20.0818ZM16.3342 20.3158C16.4002 20.3194 16.485 20.3407 16.6202 20.3818C16.7954 20.4349 16.9384 20.4947 16.9384 20.5139C16.9384 20.5337 17.0788 20.62 17.2504 20.7063C17.5099 20.8363 17.5609 20.8857 17.5609 21.0058C17.5609 21.1285 17.5354 21.1478 17.3861 21.1384C17.2905 21.1327 17.201 21.1166 17.1885 21.1031C17.135 21.0464 17.1709 20.984 17.2535 20.9892C17.3019 20.9923 17.3253 20.9679 17.3061 20.9356C17.2868 20.9034 17.1849 20.8722 17.0799 20.8654C16.9571 20.8576 16.8615 20.8134 16.8147 20.7427C16.7159 20.5955 16.3768 20.4993 16.3103 20.5992C16.2697 20.659 16.251 20.6585 16.2135 20.5971C16.1855 20.5524 16.1241 20.5352 16.0638 20.5545C15.9078 20.6049 15.9842 20.4458 16.1584 20.3584C16.2117 20.3277 16.2727 20.3129 16.3342 20.3158ZM17.3633 20.4307C17.4101 20.4338 17.4485 20.4593 17.4485 20.4884C17.4485 20.5597 17.3596 20.6059 17.3144 20.5576C17.2504 20.49 17.2754 20.4255 17.3633 20.4307ZM17.4636 20.6585C17.5312 20.6694 17.5182 20.7463 17.4454 20.7661C17.408 20.776 17.3872 20.7547 17.3997 20.7183C17.4121 20.6819 17.4413 20.6543 17.4636 20.6585ZM17.746 20.8493C17.8864 20.8581 18.1266 21.0178 18.1266 21.1031C18.1266 21.1327 18.0554 21.1519 17.9685 21.1467C17.8812 21.1415 17.7834 21.1618 17.7522 21.1915C17.7205 21.2211 17.6768 21.2263 17.6555 21.2034C17.6347 21.1811 17.617 21.0906 17.617 21.0027C17.617 20.8732 17.642 20.8425 17.746 20.8493ZM16.9332 20.9751C16.9641 20.9761 16.9944 20.9829 17.0227 20.9954C17.0695 21.0162 17.1079 21.0599 17.1079 21.0921C17.1079 21.167 16.8438 21.1504 16.7975 21.0724C16.7642 21.0167 16.8433 20.9725 16.9332 20.9751ZM18.3107 21.0656C18.3804 21.0797 18.4376 21.1166 18.4376 21.1478C18.4376 21.179 18.3804 21.2091 18.3107 21.2149C18.2228 21.2216 18.1838 21.1951 18.1838 21.1317C18.1838 21.0677 18.2228 21.0474 18.3107 21.0656ZM19.5062 33.8025C19.6263 33.8098 19.6258 33.9658 19.5051 33.9824C19.4167 33.9939 19.2659 34.3339 19.1463 34.7915C18.9872 35.7946 19.0605 36.4223 19.3824 36.9111C19.957 37.5611 23.0432 38.1975 23.8154 39.4201C21.8254 38.7716 15.9686 37.8445 13.899 37.6406L13.8631 37.3733C13.8377 37.1867 13.8481 37.0931 13.8975 37.0645C13.9453 37.0374 13.9271 37.0218 13.8418 37.0161C13.7716 37.0109 13.7108 36.9875 13.7077 36.9641C13.6525 36.5637 13.6749 36.4888 13.8725 36.4186C13.9807 36.3801 14.1611 36.3645 14.2734 36.3843C14.3857 36.4035 14.5059 36.3983 14.5407 36.3718C14.5833 36.3396 14.6286 36.3833 14.6775 36.5049C14.7477 36.6786 14.7591 36.6849 15.0103 36.6656C15.4356 36.6323 15.6545 36.6573 15.9379 36.7712C16.329 36.9282 16.9379 36.9469 16.85 36.7998C16.8329 36.7707 16.8843 36.7509 16.9644 36.7561C17.0455 36.7613 17.1256 36.7993 17.1407 36.8403C17.1563 36.8814 17.2239 36.922 17.2931 36.9313C17.3667 36.944 17.4334 36.9828 17.4808 37.0405C17.5806 37.183 17.6025 37.1529 17.565 36.9215C17.5406 36.7686 17.4995 36.6999 17.4189 36.6807C17.2977 36.6521 17.1651 36.5044 17.1651 36.3983C17.1651 36.3619 17.2223 36.3099 17.292 36.2813L17.4199 36.2293L17.2775 36.1649C17.1553 36.1077 17.1495 36.0947 17.2348 36.065C17.3055 36.0411 17.3243 35.9927 17.2998 35.8945C17.2749 35.7936 17.2936 35.7489 17.371 35.7249C17.4423 35.6989 17.507 35.6577 17.5609 35.6043C17.6077 35.5554 17.6981 35.4909 17.7621 35.4608C17.8567 35.4166 17.8905 35.4275 17.9472 35.5211C18.0148 35.6345 18.0164 35.6339 18.1344 35.5315C18.2379 35.4415 18.2493 35.3875 18.2176 35.142C18.1843 34.8924 18.1947 34.8508 18.2956 34.803C18.358 34.7728 18.41 34.7167 18.41 34.6771C18.41 34.6371 18.4605 34.5529 18.5229 34.4899C18.5852 34.4275 18.6367 34.3615 18.6367 34.3443C18.6367 34.2934 18.8583 34.1015 18.9139 34.1051C18.9425 34.1067 18.9747 34.0885 18.9851 34.0646C19.0163 33.9928 19.4063 33.7963 19.5062 33.8025ZM10.9381 36.7103L11.4722 36.9215C11.8715 37.079 12.0593 37.1274 12.2095 37.1087C12.3317 37.0931 12.4129 37.1055 12.4129 37.1399C12.4129 37.1711 12.5226 37.2189 12.6567 37.2475C12.8029 37.2787 12.9438 37.3515 13.0103 37.4311L13.1372 37.4425C13.1476 37.3681 13.209 37.3115 13.2953 37.2953C13.4742 37.2615 13.5615 37.3198 13.5272 37.4508C13.5116 37.507 13.5293 37.6151 13.5647 37.6313C11.8601 37.4337 10.7431 37.3109 9.17377 37.4129C9.22057 37.3853 9.48473 37.2537 9.60693 37.2605C9.73693 37.2683 9.92413 37.2241 10.0619 37.1518C10.1899 37.0847 10.3895 37.0182 10.5055 37.0036C10.6293 36.988 10.7629 36.9215 10.8279 36.8435L10.9381 36.7103Z" fill="#731515"/>
</g>
<defs>
<clipPath id="clip0_618_557">
<rect width="52" height="52" fill="white"/>
</clipPath>
</defs>
</svg>
