<svg width="48" height="41" viewBox="0 0 48 41" fill="none" xmlns="http://www.w3.org/2000/svg">
<path fill-rule="evenodd" clip-rule="evenodd" d="M0 0H48V41H0V0Z" fill="#F7FCFF"/>
<path fill-rule="evenodd" clip-rule="evenodd" d="M0 25.0561V28.4728H48V25.0561H0ZM0 31.3189V34.7355H48V31.3189H0ZM0 12.5272V15.9439H48V12.5272H0ZM0 37.5833V41H48V37.5833H0ZM0 18.7917V22.2083H48V18.7917H0ZM0 0V3.41667H48V0H0ZM0 6.26446V9.68112H48V6.26446H0Z" fill="#E31D1C"/>
<path d="M0 0H30V22.2083H0V0Z" fill="#2E42A5"/>
<path fill-rule="evenodd" clip-rule="evenodd" d="M2.58304 5.02086L1.49404 5.8904L1.86154 4.34265L0.894043 3.36207H2.15854L2.58154 2.0979L3.07804 3.36207H4.15504L3.30904 4.34265L3.63604 5.8904L2.58304 5.02086ZM8.58304 5.02086L7.49404 5.8904L7.86154 4.34265L6.89554 3.36207H8.15854L8.58154 2.0979L9.07804 3.36207H10.155L9.30904 4.34265L9.63604 5.8904L8.58304 5.02086ZM13.494 5.8904L14.583 5.01915L15.636 5.8904L15.309 4.34265L16.155 3.36207H15.078L14.5815 2.0979L14.1585 3.36207H12.8955L13.8615 4.34265L13.494 5.8904ZM20.583 5.01915L19.494 5.8904L19.8615 4.34265L18.8955 3.36207H20.1585L20.5815 2.0979L21.078 3.36207H22.155L21.309 4.34265L21.636 5.8904L20.583 5.01915ZM1.49404 12.7254L2.58304 11.8542L3.63604 12.7254L3.30904 11.1777L4.15504 10.1971H3.07804L2.58154 8.93294L2.15854 10.1971H0.894043L1.86154 11.1777L1.49404 12.7254ZM8.58304 11.8542L7.49404 12.7254L7.86154 11.1777L6.89554 10.1971H8.15854L8.58154 8.93294L9.07804 10.1971H10.155L9.30904 11.1777L9.63604 12.7254L8.58304 11.8542ZM13.494 12.7254L14.583 11.8542L15.636 12.7254L15.309 11.1777L16.155 10.1971H15.078L14.5815 8.93294L14.1585 10.1971H12.8955L13.8615 11.1777L13.494 12.7254ZM20.583 11.8542L19.494 12.7254L19.8615 11.1777L18.8955 10.1971H20.1585L20.5815 8.93294L21.078 10.1971H22.155L21.309 11.1777L21.636 12.7254L20.583 11.8542ZM1.49404 19.5588L2.58304 18.6875L3.63604 19.5588L3.30904 18.011L4.15504 17.0304H3.07804L2.58154 15.7663L2.15854 17.0304H0.894043L1.86154 18.011L1.49404 19.5588ZM8.58304 18.6875L7.49404 19.5588L7.86154 18.011L6.89554 17.0304H8.15854L8.58154 15.7663L9.07804 17.0304H10.155L9.30904 18.011L9.63604 19.5588L8.58304 18.6875ZM13.494 19.5588L14.583 18.6875L15.636 19.5588L15.309 18.011L16.155 17.0304H15.078L14.5815 15.7663L14.1585 17.0304H12.8955L13.8615 18.011L13.494 19.5588ZM20.583 18.6875L19.494 19.5588L19.8615 18.011L18.8955 17.0304H20.1585L20.5815 15.7663L21.078 17.0304H22.155L21.309 18.011L21.636 19.5588L20.583 18.6875ZM25.494 5.89211L26.583 5.02086L27.636 5.89211L27.309 4.34436L28.155 3.36378H27.078L26.5815 2.09961L26.1585 3.36378H24.894L25.8615 4.34436L25.494 5.89211ZM26.583 11.8542L25.494 12.7254L25.8615 11.1777L24.894 10.1971H26.1585L26.5815 8.93294L27.078 10.1971H28.155L27.309 11.1777L27.636 12.7254L26.583 11.8542ZM25.494 19.5588L26.583 18.6875L27.636 19.5588L27.309 18.011L28.155 17.0304H27.078L26.5815 15.7663L26.1585 17.0304H24.894L25.8615 18.011L25.494 19.5588ZM5.58304 8.43582L4.49404 9.30707L4.86154 7.75932L3.89404 6.77873H5.15854L5.58154 5.51457L6.07804 6.77873H7.15504L6.30904 7.75932L6.63604 9.30707L5.58304 8.43582ZM10.494 9.30707L11.583 8.43582L12.636 9.30707L12.309 7.75932L13.155 6.77873H12.078L11.5815 5.51457L11.1585 6.77873H9.89404L10.8615 7.75932L10.494 9.30707ZM17.583 8.43582L16.494 9.30707L16.8615 7.75932L15.8955 6.77873H17.1585L17.5815 5.51457L18.078 6.77873H19.155L18.309 7.75932L18.636 9.30707L17.583 8.43582ZM4.49404 16.1404L5.58304 15.2691L6.63604 16.1404L6.30904 14.5926L7.15504 13.6121H6.07804L5.58154 12.3479L5.15854 13.6121H3.89404L4.86154 14.5926L4.49404 16.1404ZM11.583 15.2691L10.494 16.1404L10.8615 14.5926L9.89554 13.6121H11.1585L11.5815 12.3479L12.078 13.6121H13.155L12.309 14.5926L12.636 16.1404L11.583 15.2691ZM16.494 16.1404L17.583 15.2691L18.636 16.1404L18.309 14.5926L19.155 13.6121H18.078L17.5815 12.3479L17.1585 13.6121H15.8955L16.8615 14.5926L16.494 16.1404ZM23.583 8.43582L22.494 9.30707L22.8615 7.75932L21.8955 6.77873H23.1585L23.5815 5.51457L24.078 6.77873H25.155L24.309 7.75932L24.636 9.30707L23.583 8.43582ZM22.494 16.1404L23.583 15.2691L24.636 16.1404L24.309 14.5926L25.155 13.6121H24.078L23.5815 12.3479L23.1585 13.6121H21.8955L22.8615 14.5926L22.494 16.1404Z" fill="#F7FCFF"/>
</svg>
