<svg width="42" height="41" viewBox="0 0 42 41" fill="none" xmlns="http://www.w3.org/2000/svg">
<path d="M18.48 7.69284C18.48 8.37235 18.2145 9.02403 17.7419 9.50452C17.2693 9.985 16.6283 10.2549 15.96 10.2549H2.52C1.85165 10.2549 1.21068 9.985 0.738091 9.50452C0.265499 9.02403 0 8.37235 0 7.69284C0 7.01334 0.265499 6.36166 0.738091 5.88117C1.21068 5.40069 1.85165 5.13076 2.52 5.13076H15.96C16.6283 5.13076 17.2693 5.40069 17.7419 5.88117C18.2145 6.36166 18.48 7.01334 18.48 7.69284ZM15.96 29.0436H11.76V24.7734C11.76 24.0939 11.4945 23.4423 11.0219 22.9618C10.5493 22.4813 9.90835 22.2113 9.24 22.2113C8.57165 22.2113 7.93068 22.4813 7.45809 22.9618C6.9855 23.4423 6.72 24.0939 6.72 24.7734V29.0436H2.52C1.85165 29.0436 1.21068 29.3135 0.738091 29.794C0.265499 30.2745 0 30.9262 0 31.6057C0 32.2852 0.265499 32.9369 0.738091 33.4173C1.21068 33.8978 1.85165 34.1678 2.52 34.1678H6.72V38.4379C6.72 39.1174 6.9855 39.7691 7.45809 40.2496C7.93068 40.7301 8.57165 41 9.24 41C9.90835 41 10.5493 40.7301 11.0219 40.2496C11.4945 39.7691 11.76 39.1174 11.76 38.4379V34.1678H15.96C16.6283 34.1678 17.2693 33.8978 17.7419 33.4173C18.2145 32.9369 18.48 32.2852 18.48 31.6057C18.48 30.9262 18.2145 30.2745 17.7419 29.794C17.2693 29.3135 16.6283 29.0436 15.96 29.0436ZM26.04 29.8976H39.48C40.1483 29.8976 40.7893 29.6277 41.2619 29.1472C41.7345 28.6667 42 28.015 42 27.3355C42 26.656 41.7345 26.0043 41.2619 25.5239C40.7893 25.0434 40.1483 24.7734 39.48 24.7734H26.04C25.3717 24.7734 24.7307 25.0434 24.2581 25.5239C23.7855 26.0043 23.52 26.656 23.52 27.3355C23.52 28.015 23.7855 28.6667 24.2581 29.1472C24.7307 29.6277 25.3717 29.8976 26.04 29.8976ZM39.48 33.3137H26.04C25.3717 33.3137 24.7307 33.5837 24.2581 34.0641C23.7855 34.5446 23.52 35.1963 23.52 35.8758C23.52 36.5553 23.7855 37.207 24.2581 37.6875C24.7307 38.168 25.3717 38.4379 26.04 38.4379H39.48C40.1483 38.4379 40.7893 38.168 41.2619 37.6875C41.7345 37.207 42 36.5553 42 35.8758C42 35.1963 41.7345 34.5446 41.2619 34.0641C40.7893 33.5837 40.1483 33.3137 39.48 33.3137ZM25.9371 14.6297C26.1712 14.8686 26.4494 15.0581 26.7557 15.1874C27.062 15.3167 27.3904 15.3833 27.7221 15.3833C28.0538 15.3833 28.3822 15.3167 28.6885 15.1874C28.9948 15.0581 29.273 14.8686 29.5071 14.6297L32.76 11.3225L36.0171 14.6361C36.4905 15.1174 37.1326 15.3878 37.8021 15.3878C38.4716 15.3878 39.1137 15.1174 39.5871 14.6361C40.0605 14.1548 40.3265 13.502 40.3265 12.8213C40.3265 12.1406 40.0605 11.4878 39.5871 11.0065L36.33 7.69284L39.5892 4.38135C40.0626 3.90003 40.3286 3.24722 40.3286 2.56653C40.3286 1.88585 40.0626 1.23304 39.5892 0.75172C39.1158 0.270402 38.4737 1.60375e-08 37.8042 0C37.1347 -1.60375e-08 36.4926 0.270402 36.0192 0.75172L32.76 4.06322L29.5029 0.75599C29.0295 0.274672 28.3874 0.00427024 27.7179 0.00427025C27.0484 0.00427026 26.4063 0.274672 25.9329 0.755991C25.4595 1.23731 25.1935 1.89012 25.1935 2.5708C25.1935 3.25149 25.4595 3.9043 25.9329 4.38562L29.19 7.69284L25.9371 11.0043C25.7028 11.2423 25.5169 11.5249 25.3901 11.8359C25.2633 12.1469 25.198 12.4803 25.198 12.817C25.198 13.1537 25.2633 13.4871 25.3901 13.7981C25.5169 14.1092 25.7028 14.3918 25.9371 14.6297Z" fill="#CE82FF"/>
</svg>
