<svg width="33" height="53" viewBox="0 0 33 53" fill="none" xmlns="http://www.w3.org/2000/svg">
<path d="M0 50.0555C0 44.5985 1.13928 40.1724 3.41785 36.7773C5.69642 33.3821 8.83928 29.9564 12.8464 26.5C8.83928 23.0452 5.69642 19.6202 3.41785 16.2251C1.13928 12.8299 0 8.40306 0 2.94445V2.35556C0 1.68816 0.226286 1.1291 0.678857 0.678408C1.13143 0.227712 1.69086 0.00157849 2.35714 8.1226e-06C3.02343 -0.00156225 3.58364 0.224571 4.03778 0.678408C4.49192 1.13224 4.71742 1.6913 4.71428 2.35556V2.94445C4.71428 3.3763 4.7245 3.7791 4.74492 4.15285C4.76535 4.5266 4.79442 4.90898 4.83214 5.30001H28.1678C28.2071 4.90741 28.237 4.52424 28.2574 4.1505C28.2778 3.77675 28.2873 3.37473 28.2857 2.94445V2.35556C28.2857 1.68816 28.512 1.1291 28.9645 0.678408C29.4171 0.227712 29.9765 0.00157849 30.6428 8.1226e-06C31.3091 -0.00156225 31.8693 0.224571 32.3235 0.678408C32.7776 1.13224 33.0031 1.6913 33 2.35556V2.94445C33 8.40149 31.8607 12.8284 29.5821 16.2251C27.3035 19.6218 24.1607 23.0468 20.1536 26.5C24.1607 29.9548 27.3035 33.3806 29.5821 36.7773C31.8607 40.174 33 44.6001 33 50.0555V50.6444C33 51.3118 32.7737 51.8717 32.3211 52.3239C31.8685 52.7762 31.3091 53.0016 30.6428 53C29.9765 52.9984 29.4171 52.7723 28.9645 52.3216C28.512 51.8709 28.2857 51.3118 28.2857 50.6444V50.0555C28.2857 49.6237 28.2763 49.2209 28.2574 48.8471C28.2385 48.4734 28.2087 48.091 28.1678 47.7H4.83214C4.79285 48.0926 4.76378 48.4758 4.74492 48.8495C4.72607 49.2233 4.71585 49.6253 4.71428 50.0555V50.6444C4.71428 51.3118 4.488 51.8717 4.03542 52.3239C3.58285 52.7762 3.02343 53.0016 2.35714 53C1.69086 52.9984 1.13143 52.7723 0.678857 52.3216C0.226286 51.8709 0 51.3118 0 50.6444V50.0555ZM8.13213 14.7222H24.8678C25.3785 13.9763 25.8209 13.2304 26.1949 12.4844C26.5689 11.7385 26.9123 10.9141 27.225 10.0111H5.77499C6.08928 10.8748 6.43264 11.6898 6.80507 12.4562C7.17749 13.2225 7.61985 13.9779 8.13213 14.7222ZM16.5 23.4378C17.2857 22.7704 18.0518 22.103 18.7982 21.4356C19.5446 20.7682 20.2518 20.1007 20.9196 19.4333H12.0803C12.7482 20.1007 13.4553 20.7682 14.2018 21.4356C14.9482 22.103 15.7143 22.7704 16.5 23.4378ZM12.0803 33.5667H20.9196C20.2518 32.8993 19.5446 32.2318 18.7982 31.5644C18.0518 30.897 17.2857 30.2296 16.5 29.5622C15.7143 30.2296 14.9482 30.897 14.2018 31.5644C13.4553 32.2318 12.7482 32.8993 12.0803 33.5667ZM5.77499 42.9889H27.225C26.9107 42.1252 26.5673 41.3109 26.1949 40.5462C25.8225 39.7814 25.3801 39.0253 24.8678 38.2778H8.13213C7.62142 39.0237 7.17985 39.7696 6.80742 40.5156C6.43499 41.2615 6.09085 42.0859 5.77499 42.9889Z" fill="url(#paint0_linear_618_560)"/>
<defs>
<linearGradient id="paint0_linear_618_560" x1="16.5" y1="0" x2="16.5" y2="53" gradientUnits="userSpaceOnUse">
<stop offset="0.235" stop-color="#854CE2"/>
<stop offset="1" stop-color="#0019FC"/>
</linearGradient>
</defs>
</svg>
