<svg width="48" height="47" viewBox="0 0 48 47" fill="none" xmlns="http://www.w3.org/2000/svg">
<mask id="path-1-inside-1_618_556" fill="white">
<path fill-rule="evenodd" clip-rule="evenodd" d="M15.1949 0.133406C8.20946 2.72592 4.08871 10.5523 7.00354 21.7252C7.25454 22.7154 9.16437 24.1297 9.31517 25.0725C9.41537 26.0158 7.70695 26.4872 7.65685 27.3355C7.65685 29.0327 7.35525 30.5414 7.00354 31.9086L3.4354 31.1073C2.17889 32.4745 1.02307 33.7472 0.419868 35.1145C0.018064 36.1043 -0.233439 37.2831 0.319667 38.4148C10.0191 44.1192 26.452 46.9006 36.2015 46.9951C37.6584 47.0421 38.1609 46.7592 38.6639 45.7694C38.8142 45.4389 39.0156 44.9675 39.2165 44.4017C39.6689 43.2704 40.1208 41.7147 40.5231 39.7816C40.8748 37.8959 41.1263 35.6329 41.0256 33.2758C41.0256 32.0501 37.7591 31.1543 37.8593 29.8815C37.9099 28.9387 40.5732 27.6185 39.6183 25.7798C37.3573 21.4427 38.0101 18.1424 39.3673 15.5024C40.6739 12.8149 43.3372 10.5049 47.3072 8.00636C48.4635 7.25201 48.1113 5.55484 46.7045 5.31937L16.0491 0.038936C15.7475 -0.0550638 15.4459 0.038936 15.1949 0.132936M16.0491 3.05586L42.734 7.62895C40.0707 9.60905 37.7591 11.6832 36.5026 14.2291C34.7941 17.6705 34.7941 21.2063 36.6534 26.1568C37.0557 27.2881 33.7385 29.1267 33.9399 30.211C34.1403 31.3423 37.709 32.851 37.7591 33.9352C37.8092 36.0568 37.7591 37.5185 37.4074 39.2627C37.1058 41.0069 36.7541 42.4685 36.2516 43.4584C35.7992 44.1657 34.5431 43.5528 34.0907 42.0441C33.5877 40.2055 33.8392 39.2157 34.945 37.8015C26.6529 37.1411 18.3608 35.5384 10.0692 32.6155C10.5211 31.1538 10.8227 30.3055 10.8728 28.3723C10.8728 27.4295 12.5812 27.3351 12.4309 26.2508C12.3307 25.1195 10.3703 22.2436 10.0692 21.0178C7.40535 10.9758 10.8728 5.17743 16.0491 3.05586ZM19.2656 4.04568L16.8533 5.93178C15.8482 5.93178 14.8933 6.40319 14.24 7.11007L12.0792 7.58148L13.4359 8.9017C13.2856 9.93899 13.6368 11.0233 14.4915 11.7302L14.24 14.5591L16.4008 12.532C17.5066 12.579 18.6123 12.1546 19.3157 11.3532L21.1754 11.1173L20.1699 9.56158C20.2706 8.52429 19.9189 7.44001 19.1148 6.73313L19.2656 4.04568ZM17.0041 7.91142C17.1043 7.91142 17.2556 7.91142 17.3558 7.95842C18.1098 8.28883 18.3107 9.23211 17.9089 9.84452C17.5567 10.5044 16.6022 10.8348 15.999 10.3629C15.245 9.84452 15.3457 8.76023 15.999 8.24183C16.25 8.00589 16.6523 7.86442 17.0041 7.91142ZM26.6028 12.0131L24.8437 13.0504L26.3518 15.3604L24.0897 16.4447L25.0446 18.1894L27.4069 17.0576L29.3162 19.9335L31.0752 18.8962L29.3167 16.1618L32.1809 14.7945L31.226 13.0504L28.211 14.4651L26.6028 12.0131ZM21.7781 15.9733L20.7731 16.1618C19.6173 16.4917 18.4615 17.0576 17.5567 17.8589L18.964 19.3206C19.8688 18.5193 21.0246 18.0479 22.2305 17.8589L21.7781 15.9733ZM16.0992 19.651L15.6473 20.4054C15.3826 21.0557 15.1478 21.7163 14.9434 22.3855L14.7931 23.7527L16.9034 23.9412C16.9535 23.1868 17.0542 22.4325 17.3558 21.7256C17.456 21.3012 17.7075 20.9713 17.9089 20.6413L16.0992 19.651ZM17.0041 25.5444L14.994 26.0628C15.245 26.8641 15.4459 27.7125 15.9489 28.4198C16.1999 28.9857 16.5516 29.4571 16.9034 29.9285L18.6118 28.7498C18.1098 28.0899 17.6574 27.383 17.3558 26.5812L17.0041 25.5444ZM19.8688 29.9285L18.6123 31.5312C19.7681 32.38 21.1754 32.9929 22.5321 33.4643L23.3362 31.6731C22.0797 31.2013 20.8738 30.7299 19.8688 29.9285ZM25.2961 32.427L24.4419 34.2187C25.497 34.6901 26.5522 35.3029 27.2055 36.2932L28.9645 35.209C28.5627 34.5961 28.0602 34.1247 27.457 33.6532C26.7856 33.173 26.0612 32.7619 25.2961 32.427Z"/>
</mask>
<path fill-rule="evenodd" clip-rule="evenodd" d="M15.1949 0.133406C8.20946 2.72592 4.08871 10.5523 7.00354 21.7252C7.25454 22.7154 9.16437 24.1297 9.31517 25.0725C9.41537 26.0158 7.70695 26.4872 7.65685 27.3355C7.65685 29.0327 7.35525 30.5414 7.00354 31.9086L3.4354 31.1073C2.17889 32.4745 1.02307 33.7472 0.419868 35.1145C0.018064 36.1043 -0.233439 37.2831 0.319667 38.4148C10.0191 44.1192 26.452 46.9006 36.2015 46.9951C37.6584 47.0421 38.1609 46.7592 38.6639 45.7694C38.8142 45.4389 39.0156 44.9675 39.2165 44.4017C39.6689 43.2704 40.1208 41.7147 40.5231 39.7816C40.8748 37.8959 41.1263 35.6329 41.0256 33.2758C41.0256 32.0501 37.7591 31.1543 37.8593 29.8815C37.9099 28.9387 40.5732 27.6185 39.6183 25.7798C37.3573 21.4427 38.0101 18.1424 39.3673 15.5024C40.6739 12.8149 43.3372 10.5049 47.3072 8.00636C48.4635 7.25201 48.1113 5.55484 46.7045 5.31937L16.0491 0.038936C15.7475 -0.0550638 15.4459 0.038936 15.1949 0.132936M16.0491 3.05586L42.734 7.62895C40.0707 9.60905 37.7591 11.6832 36.5026 14.2291C34.7941 17.6705 34.7941 21.2063 36.6534 26.1568C37.0557 27.2881 33.7385 29.1267 33.9399 30.211C34.1403 31.3423 37.709 32.851 37.7591 33.9352C37.8092 36.0568 37.7591 37.5185 37.4074 39.2627C37.1058 41.0069 36.7541 42.4685 36.2516 43.4584C35.7992 44.1657 34.5431 43.5528 34.0907 42.0441C33.5877 40.2055 33.8392 39.2157 34.945 37.8015C26.6529 37.1411 18.3608 35.5384 10.0692 32.6155C10.5211 31.1538 10.8227 30.3055 10.8728 28.3723C10.8728 27.4295 12.5812 27.3351 12.4309 26.2508C12.3307 25.1195 10.3703 22.2436 10.0692 21.0178C7.40535 10.9758 10.8728 5.17743 16.0491 3.05586ZM19.2656 4.04568L16.8533 5.93178C15.8482 5.93178 14.8933 6.40319 14.24 7.11007L12.0792 7.58148L13.4359 8.9017C13.2856 9.93899 13.6368 11.0233 14.4915 11.7302L14.24 14.5591L16.4008 12.532C17.5066 12.579 18.6123 12.1546 19.3157 11.3532L21.1754 11.1173L20.1699 9.56158C20.2706 8.52429 19.9189 7.44001 19.1148 6.73313L19.2656 4.04568ZM17.0041 7.91142C17.1043 7.91142 17.2556 7.91142 17.3558 7.95842C18.1098 8.28883 18.3107 9.23211 17.9089 9.84452C17.5567 10.5044 16.6022 10.8348 15.999 10.3629C15.245 9.84452 15.3457 8.76023 15.999 8.24183C16.25 8.00589 16.6523 7.86442 17.0041 7.91142ZM26.6028 12.0131L24.8437 13.0504L26.3518 15.3604L24.0897 16.4447L25.0446 18.1894L27.4069 17.0576L29.3162 19.9335L31.0752 18.8962L29.3167 16.1618L32.1809 14.7945L31.226 13.0504L28.211 14.4651L26.6028 12.0131ZM21.7781 15.9733L20.7731 16.1618C19.6173 16.4917 18.4615 17.0576 17.5567 17.8589L18.964 19.3206C19.8688 18.5193 21.0246 18.0479 22.2305 17.8589L21.7781 15.9733ZM16.0992 19.651L15.6473 20.4054C15.3826 21.0557 15.1478 21.7163 14.9434 22.3855L14.7931 23.7527L16.9034 23.9412C16.9535 23.1868 17.0542 22.4325 17.3558 21.7256C17.456 21.3012 17.7075 20.9713 17.9089 20.6413L16.0992 19.651ZM17.0041 25.5444L14.994 26.0628C15.245 26.8641 15.4459 27.7125 15.9489 28.4198C16.1999 28.9857 16.5516 29.4571 16.9034 29.9285L18.6118 28.7498C18.1098 28.0899 17.6574 27.383 17.3558 26.5812L17.0041 25.5444ZM19.8688 29.9285L18.6123 31.5312C19.7681 32.38 21.1754 32.9929 22.5321 33.4643L23.3362 31.6731C22.0797 31.2013 20.8738 30.7299 19.8688 29.9285ZM25.2961 32.427L24.4419 34.2187C25.497 34.6901 26.5522 35.3029 27.2055 36.2932L28.9645 35.209C28.5627 34.5961 28.0602 34.1247 27.457 33.6532C26.7856 33.173 26.0612 32.7619 25.2961 32.427Z" fill="#BB7750"/>
<path d="M7.00354 21.7252L7.97291 21.4795L7.97116 21.4727L7.00354 21.7252ZM9.31517 25.0725L10.3096 24.9669L10.3068 24.9406L10.3026 24.9145L9.31517 25.0725ZM7.65685 27.3355L6.65859 27.2766L6.65685 27.306V27.3355H7.65685ZM7.00354 31.9086L6.78442 32.8843L7.73046 33.0968L7.97201 32.1577L7.00354 31.9086ZM3.4354 31.1073L3.65453 30.1316L3.09037 30.0049L2.69911 30.4306L3.4354 31.1073ZM0.419868 35.1145L-0.495045 34.7108L-0.501078 34.7245L-0.5067 34.7383L0.419868 35.1145ZM0.319667 38.4148L-0.578779 38.8539L-0.446654 39.1242L-0.187276 39.2768L0.319667 38.4148ZM36.2015 46.9951L36.2337 45.9956L36.2224 45.9953L36.2112 45.9952L36.2015 46.9951ZM38.6639 45.7694L39.5554 46.2224L39.5652 46.2031L39.5741 46.1834L38.6639 45.7694ZM39.2165 44.4017L38.288 44.0303L38.2807 44.0486L38.2741 44.0671L39.2165 44.4017ZM40.5231 39.7816L41.5021 39.9853L41.5043 39.9751L41.5062 39.9649L40.5231 39.7816ZM41.0256 33.2758H40.0256V33.2972L40.0265 33.3185L41.0256 33.2758ZM37.8593 29.8815L38.8562 29.96L38.8572 29.9476L38.8578 29.9351L37.8593 29.8815ZM39.6183 25.7798L40.5058 25.3189L40.505 25.3176L39.6183 25.7798ZM39.3673 15.5024L40.2566 15.9596L40.2618 15.9497L40.2666 15.9396L39.3673 15.5024ZM47.3072 8.00636L47.8398 8.85269L47.8467 8.84835L47.8536 8.84389L47.3072 8.00636ZM46.7045 5.31937L46.5347 6.30487L46.5394 6.30565L46.7045 5.31937ZM16.0491 0.038936L15.7516 0.993642L15.8145 1.01324L15.8794 1.02442L16.0491 0.038936ZM16.0491 3.05586L16.2181 2.07023L15.9353 2.02177L15.6699 2.13056L16.0491 3.05586ZM42.734 7.62895L43.3307 8.43146L45.2051 7.03785L42.9029 6.64332L42.734 7.62895ZM36.5026 14.2291L37.3983 14.6738L37.3993 14.6717L36.5026 14.2291ZM36.6534 26.1568L37.5956 25.8217L37.5926 25.8134L37.5895 25.8052L36.6534 26.1568ZM33.9399 30.211L34.9246 30.0365L34.9231 30.0284L33.9399 30.211ZM37.7591 33.9352L38.7588 33.9116L38.7585 33.9004L38.758 33.8891L37.7591 33.9352ZM37.4074 39.2627L36.4271 39.065L36.4244 39.0786L36.422 39.0923L37.4074 39.2627ZM36.2516 43.4584L37.094 43.9972L37.1208 43.9553L37.1432 43.911L36.2516 43.4584ZM34.0907 42.0441L33.1262 42.308L33.1294 42.3197L33.1329 42.3314L34.0907 42.0441ZM34.945 37.8015L35.7327 38.4174L36.8783 36.9523L35.0243 36.8046L34.945 37.8015ZM10.0692 32.6155L9.11379 32.3201L8.82974 33.2389L9.73671 33.5586L10.0692 32.6155ZM10.8728 28.3723L11.8724 28.3983L11.8728 28.3853V28.3723H10.8728ZM12.4309 26.2508L11.4348 26.339L11.437 26.3636L11.4404 26.3881L12.4309 26.2508ZM10.0692 21.0178L11.0403 20.7793L11.0381 20.7703L11.0357 20.7614L10.0692 21.0178ZM19.2656 4.04568L20.264 4.1017L20.3876 1.89903L18.6496 3.25789L19.2656 4.04568ZM16.8533 5.93178V6.93178H17.1978L17.4692 6.71957L16.8533 5.93178ZM14.24 7.11007L14.4532 8.08709L14.7607 8.01999L14.9744 7.7888L14.24 7.11007ZM12.0792 7.58148L11.866 6.60446L10.0487 7.00093L11.3818 8.29816L12.0792 7.58148ZM13.4359 8.9017L14.4256 9.0451L14.4987 8.54057L14.1333 8.18503L13.4359 8.9017ZM14.4915 11.7302L15.4876 11.8187L15.5342 11.2948L15.1288 10.9596L14.4915 11.7302ZM14.24 14.5591L13.2439 14.4705L13.0117 17.0825L14.9242 15.2884L14.24 14.5591ZM16.4008 12.532L16.4433 11.5329L16.0233 11.515L15.7167 11.8027L16.4008 12.532ZM19.3157 11.3532L19.1898 10.3612L18.814 10.4088L18.5641 10.6935L19.3157 11.3532ZM21.1754 11.1173L21.3013 12.1093L22.878 11.9093L22.0152 10.5745L21.1754 11.1173ZM20.1699 9.56158L19.1746 9.46496L19.1409 9.81177L19.33 10.1044L20.1699 9.56158ZM19.1148 6.73313L18.1163 6.6771L18.0891 7.16292L18.4545 7.48418L19.1148 6.73313ZM17.0041 7.91142L16.8716 8.90261L16.9375 8.91142H17.0041V7.91142ZM17.3558 7.95842L16.9311 8.86377L16.9427 8.8692L16.9544 8.87434L17.3558 7.95842ZM17.9089 9.84452L17.0728 9.29595L17.048 9.33376L17.0267 9.37365L17.9089 9.84452ZM15.999 10.3629L16.6152 9.5753L16.591 9.55634L16.5656 9.5389L15.999 10.3629ZM15.999 8.24183L16.6206 9.02517L16.6534 8.99914L16.6839 8.97046L15.999 8.24183ZM26.6028 12.0131L27.4389 11.4647L26.9161 10.6674L26.0948 11.1517L26.6028 12.0131ZM24.8437 13.0504L24.3358 12.189L23.4343 12.7206L24.0064 13.597L24.8437 13.0504ZM26.3518 15.3604L26.784 16.2622L27.8127 15.7691L27.1891 14.8138L26.3518 15.3604ZM24.0897 16.4447L23.6575 15.543L22.7058 15.9991L23.2125 16.9248L24.0897 16.4447ZM25.0446 18.1894L24.1674 18.6695L24.6223 19.5005L25.4767 19.0912L25.0446 18.1894ZM27.4069 17.0576L28.24 16.5045L27.759 15.78L26.9748 16.1558L27.4069 17.0576ZM29.3162 19.9335L28.4831 20.4866L29.0075 21.2765L29.8241 20.7949L29.3162 19.9335ZM31.0752 18.8962L31.5832 19.7576L32.4785 19.2296L31.9163 18.3553L31.0752 18.8962ZM29.3167 16.1618L28.8859 15.2593L27.8618 15.7482L28.4756 16.7027L29.3167 16.1618ZM32.1809 14.7945L32.6117 15.697L33.5657 15.2416L33.0581 14.3143L32.1809 14.7945ZM31.226 13.0504L32.1032 12.5702L31.6519 11.7459L30.8012 12.1451L31.226 13.0504ZM28.211 14.4651L27.3748 15.0135L27.8505 15.7388L28.6358 15.3704L28.211 14.4651ZM21.7781 15.9733L22.7505 15.74L22.5286 14.8151L21.5938 14.9904L21.7781 15.9733ZM20.7731 16.1618L20.5888 15.1789L20.5432 15.1875L20.4986 15.2002L20.7731 16.1618ZM17.5567 17.8589L16.8936 17.1103L16.1132 17.8015L16.8363 18.5525L17.5567 17.8589ZM18.964 19.3206L18.2436 20.0142L18.9089 20.7052L19.627 20.0693L18.964 19.3206ZM22.2305 17.8589L22.3853 18.8469L23.4557 18.6792L23.2029 17.6256L22.2305 17.8589ZM16.0992 19.651L16.5793 18.7738L15.7356 18.3121L15.2414 19.1371L16.0992 19.651ZM15.6473 20.4054L14.7895 19.8915L14.7501 19.9573L14.7211 20.0284L15.6473 20.4054ZM14.9434 22.3855L13.987 22.0934L13.9597 22.1831L13.9494 22.2762L14.9434 22.3855ZM14.7931 23.7527L13.7991 23.6435L13.6876 24.658L14.7042 24.7488L14.7931 23.7527ZM16.9034 23.9412L16.8144 24.9372L17.8334 25.0282L17.9012 24.0075L16.9034 23.9412ZM17.3558 21.7256L18.2755 22.1181L18.3093 22.039L18.329 21.9554L17.3558 21.7256ZM17.9089 20.6413L18.7624 21.1624L19.3087 20.2674L18.3889 19.7641L17.9089 20.6413ZM17.0041 25.5444L17.951 25.2231L17.6529 24.3443L16.7543 24.576L17.0041 25.5444ZM14.994 26.0628L14.7443 25.0945L13.7252 25.3573L14.0397 26.3617L14.994 26.0628ZM15.9489 28.4198L16.8631 28.0144L16.8222 27.9223L16.7639 27.8403L15.9489 28.4198ZM16.9034 29.9285L16.1018 30.5265L16.6781 31.2989L17.4713 30.7516L16.9034 29.9285ZM18.6118 28.7498L19.1797 29.5728L20.0419 28.978L19.4076 28.1443L18.6118 28.7498ZM17.3558 26.5812L16.4088 26.9024L16.414 26.9179L16.4198 26.9332L17.3558 26.5812ZM19.8688 29.9285L20.4922 29.1466L19.7039 28.5181L19.0818 29.3115L19.8688 29.9285ZM18.6123 31.5312L17.8253 30.9142L17.1886 31.7264L18.0204 32.3372L18.6123 31.5312ZM22.5321 33.4643L22.2039 34.4089L23.0692 34.7096L23.4444 33.8739L22.5321 33.4643ZM23.3362 31.6731L24.2485 32.0827L24.6846 31.1113L23.6878 30.737L23.3362 31.6731ZM25.2961 32.427L25.6972 31.511L24.8102 31.1227L24.3935 31.9967L25.2961 32.427ZM24.4419 34.2187L23.5393 33.7883L23.0981 34.7135L24.034 35.1317L24.4419 34.2187ZM27.2055 36.2932L26.3707 36.8439L26.9047 37.6533L27.7302 37.1445L27.2055 36.2932ZM28.9645 35.209L29.4892 36.0602L30.3646 35.5206L29.8008 34.6607L28.9645 35.209ZM27.457 33.6532L28.0727 32.8653L28.056 32.8523L28.0388 32.8399L27.457 33.6532ZM14.847 -0.804111C11.0931 0.589071 8.10943 3.39444 6.46415 7.32559C4.82294 11.2471 4.53593 16.2279 6.03593 21.9776L7.97116 21.4727C6.55632 16.0495 6.87227 11.5308 8.30909 8.09774C9.74185 4.67435 12.3113 2.27025 15.5429 1.07092L14.847 -0.804111ZM6.03419 21.9708C6.14842 22.4215 6.41861 22.8281 6.65179 23.1365C6.89711 23.4609 7.1936 23.7923 7.44866 24.08C7.71855 24.3844 7.94615 24.6444 8.11702 24.8793C8.30414 25.1365 8.32936 25.2407 8.32772 25.2304L10.3026 24.9145C10.2256 24.4329 9.95551 24.0067 9.73429 23.7027C9.49681 23.3762 9.20299 23.044 8.9452 22.7532C8.67258 22.4457 8.43512 22.1789 8.24705 21.9302C8.04683 21.6654 7.98416 21.5239 7.97289 21.4795L6.03419 21.9708ZM8.32076 25.1781C8.3095 25.0721 8.36527 25.027 8.31401 25.0934C8.24769 25.1792 8.12998 25.2863 7.91192 25.4634C7.73182 25.6097 7.44472 25.8327 7.21869 26.0759C6.98928 26.3228 6.6912 26.7243 6.65859 27.2766L8.65511 27.3945C8.64754 27.5226 8.58181 27.5471 8.68369 27.4374C8.78894 27.3242 8.93208 27.2114 9.17282 27.0158C9.3756 26.8511 9.66934 26.6104 9.89674 26.3161C10.1392 26.0022 10.3709 25.5445 10.3096 24.9669L8.32076 25.1781ZM6.65685 27.3355C6.65685 28.9133 6.37701 30.3302 6.03507 31.6595L7.97201 32.1577C8.33348 30.7526 8.65685 29.1521 8.65685 27.3355H6.65685ZM7.22267 30.9329L3.65453 30.1316L3.21628 32.083L6.78442 32.8843L7.22267 30.9329ZM2.69911 30.4306C1.47206 31.7658 0.187851 33.163 -0.495045 34.7108L1.33478 35.5181C1.8583 34.3315 2.88571 33.1832 4.17169 31.7839L2.69911 30.4306ZM-0.5067 34.7383C-0.945751 35.8199 -1.31977 37.3377 -0.578779 38.8539L1.21811 37.9757C0.852891 37.2284 0.981879 36.3887 1.34644 35.4906L-0.5067 34.7383ZM-0.187276 39.2768C4.79261 42.2055 11.442 44.3552 18.0295 45.7859C24.627 47.2187 31.2408 47.9471 36.1918 47.9951L36.2112 45.9952C31.4126 45.9487 24.9352 45.239 18.454 43.8315C11.9629 42.4217 5.54613 40.3285 0.826611 37.5528L-0.187276 39.2768ZM36.1692 47.9946C36.932 48.0192 37.6371 47.9711 38.2439 47.6623C38.8902 47.3334 39.2644 46.7949 39.5554 46.2224L37.7724 45.3163C37.5603 45.7336 37.4318 45.8315 37.3369 45.8798C37.2025 45.9482 36.9278 46.018 36.2337 45.9956L36.1692 47.9946ZM39.5741 46.1834C39.7333 45.8335 39.9463 45.335 40.1589 44.7362L38.2741 44.0671C38.0849 44.6 37.8951 45.0444 37.7536 45.3553L39.5741 46.1834ZM40.145 44.773C40.6261 43.5699 41.0925 41.9537 41.5021 39.9853L39.5441 39.5778C39.1491 41.4756 38.7117 42.9708 38.288 44.0303L40.145 44.773ZM41.5062 39.9649C41.8678 38.0258 42.1294 35.6846 42.0247 33.2332L40.0265 33.3185C40.1232 35.5812 39.8818 37.7661 39.5401 39.5982L41.5062 39.9649ZM42.0256 33.2758C42.0256 32.5197 41.533 31.9789 41.1885 31.6665C40.8162 31.329 40.3383 31.0168 39.9597 30.7643C39.541 30.4851 39.2218 30.2651 39.0064 30.0571C38.7726 29.8313 38.8675 29.8162 38.8562 29.96L36.8624 29.803C36.8009 30.5832 37.2666 31.1573 37.6171 31.4958C37.986 31.852 38.4647 32.1713 38.85 32.4283C39.2756 32.712 39.608 32.9332 39.8451 33.1482C40.1099 33.3883 40.0256 33.4191 40.0256 33.2758H42.0256ZM38.8578 29.9351C38.8523 30.0388 38.8174 30.0738 38.8523 30.0139C38.8845 29.9588 38.9453 29.8745 39.0523 29.7484C39.1588 29.6229 39.28 29.4914 39.4294 29.3273C39.5722 29.1704 39.7341 28.9908 39.8908 28.7987C40.1965 28.4239 40.5409 27.9333 40.7132 27.3447C40.8972 26.7157 40.8705 26.0212 40.5058 25.3189L38.7309 26.2407C38.8436 26.4578 38.842 26.6178 38.7937 26.783C38.7335 26.9885 38.588 27.2316 38.3409 27.5345C38.2212 27.6813 38.091 27.8265 37.9504 27.981C37.8163 28.1284 37.6627 28.2949 37.5272 28.4545C37.3924 28.6134 37.2442 28.8014 37.1248 29.006C37.0082 29.206 36.8789 29.4886 36.8607 29.8279L38.8578 29.9351ZM40.505 25.3176C39.4437 23.2818 39.0909 21.5405 39.1355 20.0342C39.1802 18.5239 39.6264 17.1854 40.2566 15.9596L38.4779 15.0451C37.7509 16.4593 37.1922 18.091 37.1364 19.9751C37.0805 21.8633 37.5318 23.9408 38.7316 26.2421L40.505 25.3176ZM40.2666 15.9396C41.4442 13.5176 43.9002 11.3321 47.8398 8.85269L46.7745 7.16002C42.7743 9.6776 39.9036 12.1123 38.468 15.0651L40.2666 15.9396ZM47.8536 8.84389C49.7986 7.57502 49.1446 4.71389 46.8696 4.33309L46.5394 6.30565C46.8343 6.35501 46.9565 6.52756 46.9899 6.68111C47.0239 6.83701 46.9799 7.02588 46.7608 7.16882L47.8536 8.84389ZM46.8742 4.33389L16.2189 -0.946551L15.8794 1.02442L46.5347 6.30486L46.8742 4.33389ZM16.3467 -0.91577C15.6891 -1.12072 15.094 -0.897083 14.8442 -0.803548L15.5456 1.06942C15.6574 1.02757 15.7201 1.00954 15.7636 1.00246C15.7997 0.996586 15.7869 1.00464 15.7516 0.993642L16.3467 -0.91577ZM15.8802 4.04149L42.5651 8.61458L42.9029 6.64332L16.2181 2.07023L15.8802 4.04149ZM42.1374 6.82644C39.4536 8.82175 36.974 11.0143 35.6058 13.7866L37.3993 14.6717C38.5441 12.352 40.6878 10.3964 43.3307 8.43146L42.1374 6.82644ZM35.6069 13.7845C33.7388 17.5474 33.7936 21.3864 35.7172 26.5084L37.5895 25.8052C35.7947 21.0262 35.8495 17.7935 37.3983 14.6738L35.6069 13.7845ZM35.7112 26.4918C35.63 26.2637 35.7924 26.2074 35.5597 26.5301C35.3676 26.7964 35.0615 27.1067 34.6731 27.4863C34.3173 27.834 33.8802 28.251 33.5573 28.6512C33.3931 28.8547 33.2239 29.0948 33.104 29.3599C32.9848 29.6235 32.8811 29.9862 32.9568 30.3936L34.9231 30.0284C34.9484 30.1647 34.9043 30.2327 34.9264 30.1838C34.9478 30.1365 35.0016 30.0462 35.1138 29.9071C35.3436 29.6223 35.6729 29.3056 36.0709 28.9167C36.4363 28.5597 36.8714 28.1304 37.1819 27.7C37.4517 27.3258 37.8778 26.6155 37.5956 25.8217L35.7112 26.4918ZM32.9553 30.3854C33.0196 30.7487 33.2007 31.0454 33.3674 31.2617C33.5398 31.4854 33.749 31.6898 33.9564 31.8709C34.3666 32.2291 34.8805 32.5899 35.3279 32.9068C35.8021 33.2427 36.2068 33.5329 36.4988 33.7969C36.6432 33.9273 36.7266 34.0222 36.7688 34.0827C36.8158 34.15 36.766 34.109 36.7601 33.9814L38.758 33.8891C38.7396 33.4905 38.5674 33.1651 38.4088 32.938C38.2455 32.704 38.0404 32.4943 37.8399 32.3131C37.4425 31.9539 36.9331 31.5929 36.4839 31.2747C36.0078 30.9375 35.5888 30.6412 35.272 30.3645C35.1158 30.2281 35.013 30.1206 34.9516 30.0409C34.8846 29.954 34.9103 29.956 34.9246 30.0366L32.9553 30.3854ZM36.7594 33.9589C36.8087 36.0494 36.7575 37.4264 36.4271 39.065L38.3876 39.4604C38.7606 37.6106 38.8096 36.0643 38.7588 33.9116L36.7594 33.9589ZM36.422 39.0923C36.1208 40.8339 35.7879 42.1625 35.3599 43.0057L37.1432 43.911C37.7202 42.7746 38.0907 41.1798 38.3928 39.4331L36.422 39.0923ZM35.4091 42.9196C35.4621 42.8367 35.5742 42.764 35.6893 42.7527C35.7699 42.7448 35.7685 42.7739 35.6814 42.7222C35.5096 42.6203 35.2171 42.3189 35.0486 41.7569L33.1329 42.3314C33.4168 43.2781 33.9785 44.0375 34.6609 44.4423C35.0009 44.644 35.4266 44.788 35.8841 44.7432C36.3761 44.6951 36.8148 44.4337 37.094 43.9972L35.4091 42.9196ZM35.0553 41.7803C34.8256 40.9408 34.8005 40.4081 34.893 39.9704C34.986 39.5302 35.2221 39.0705 35.7327 38.4174L34.1572 37.1855C33.5621 37.9466 33.1196 38.689 32.9362 39.5569C32.7522 40.4273 32.8528 41.3088 33.1262 42.308L35.0553 41.7803ZM35.0243 36.8046C26.8085 36.1503 18.6026 34.5633 10.4016 31.6724L9.73671 33.5586C18.119 36.5135 26.4972 38.1319 34.8656 38.7983L35.0243 36.8046ZM11.0246 32.9109C11.4795 31.4393 11.8185 30.4786 11.8724 28.3983L9.87312 28.3464C9.82684 30.1323 9.56263 30.8683 9.11379 32.3201L11.0246 32.9109ZM11.8728 28.3723C11.8728 28.4851 11.8057 28.5416 11.8457 28.5014C11.9181 28.4288 12.0227 28.3597 12.2696 28.1921C12.4642 28.0601 12.7885 27.8399 13.0357 27.5268C13.3204 27.1663 13.5012 26.6893 13.4214 26.1135L11.4404 26.3881C11.4406 26.39 11.438 26.3651 11.449 26.3283C11.4592 26.2941 11.4722 26.2795 11.466 26.2874C11.4352 26.3265 11.3605 26.3921 11.1468 26.5371C10.9854 26.6466 10.6722 26.8456 10.429 27.0897C10.1534 27.3663 9.87278 27.7881 9.87278 28.3723H11.8728ZM13.427 26.1625C13.3855 25.6942 13.1762 25.1652 12.9731 24.7161C12.7555 24.235 12.4773 23.7049 12.2078 23.1993C11.9321 22.6819 11.6663 22.1919 11.4472 21.7496C11.22 21.2909 11.0868 20.9684 11.0403 20.7793L9.09805 21.2564C9.20213 21.6801 9.42685 22.1767 9.65505 22.6374C9.89137 23.1144 10.1784 23.6439 10.4429 24.1401C10.7137 24.6482 10.9633 25.1257 11.1508 25.5404C11.3529 25.987 11.4262 26.2417 11.4348 26.339L13.427 26.1625ZM11.0357 20.7614C9.74199 15.8843 9.96783 12.1536 11.0483 9.43615C12.1229 6.73362 14.0758 4.9454 16.4284 3.98116L15.6699 2.13056C12.8462 3.28789 10.4771 5.45965 9.18985 8.6972C7.90849 11.9198 7.73253 16.1094 9.10261 21.2742L11.0357 20.7614ZM18.6496 3.25789L16.2373 5.14399L17.4692 6.71957L19.8815 4.83347L18.6496 3.25789ZM16.8533 4.93178C15.54 4.93178 14.3273 5.54228 13.5056 6.43134L14.9744 7.7888C15.4593 7.2641 16.1565 6.93178 16.8533 6.93178V4.93178ZM14.0269 6.13305L11.866 6.60446L12.2923 8.5585L14.4532 8.08709L14.0269 6.13305ZM11.3818 8.29816L12.7385 9.61838L14.1333 8.18503L12.7766 6.8648L11.3818 8.29816ZM12.4462 8.7583C12.251 10.1057 12.7043 11.5498 13.8542 12.5008L15.1288 10.9596C14.5693 10.4968 14.3202 9.77231 14.4256 9.0451L12.4462 8.7583ZM13.4955 11.6416L13.2439 14.4705L15.2361 14.6476L15.4876 11.8187L13.4955 11.6416ZM14.9242 15.2884L17.085 13.2613L15.7167 11.8027L13.5558 13.8298L14.9242 15.2884ZM16.3584 13.5311C17.7293 13.5893 19.1408 13.0683 20.0672 12.0129L18.5641 10.6935C18.0837 11.2409 17.2838 11.5686 16.4433 11.5329L16.3584 13.5311ZM19.4415 12.3453L21.3013 12.1093L21.0495 10.1252L19.1898 10.3612L19.4415 12.3453ZM22.0152 10.5745L21.0097 9.01875L19.33 10.1044L20.3356 11.6601L22.0152 10.5745ZM21.1652 9.65821C21.2923 8.34899 20.8547 6.93121 19.775 5.98207L18.4545 7.48418C18.9831 7.9488 19.2489 8.6996 19.1746 9.46496L21.1652 9.65821ZM20.1132 6.78915L20.264 4.1017L18.2671 3.98965L18.1163 6.6771L20.1132 6.78915ZM17.0041 8.91142C17.0303 8.91142 17.0468 8.91146 17.0626 8.91185C17.0778 8.91222 17.0851 8.91279 17.0869 8.91295C17.0893 8.91319 17.0778 8.91233 17.0564 8.90758C17.0451 8.90508 17.0288 8.901 17.0086 8.89447C16.9885 8.88798 16.9619 8.87823 16.9311 8.86377L17.7804 7.05306C17.5752 6.9568 17.3773 6.93138 17.2729 6.92163C17.1568 6.91078 17.049 6.91142 17.0041 6.91142V8.91142ZM16.9544 8.87434C17.0239 8.90479 17.0751 8.96169 17.0995 9.05322C17.127 9.15643 17.1042 9.24809 17.0728 9.29595L18.745 10.3931C19.4541 9.31234 19.1306 7.64437 17.7571 7.0425L16.9544 8.87434ZM17.0267 9.37365C16.9894 9.44345 16.8927 9.5312 16.7639 9.56935C16.7064 9.58641 16.6638 9.58663 16.6405 9.58338C16.6209 9.58065 16.6164 9.57624 16.6152 9.5753L15.3829 11.1506C15.9947 11.6292 16.7384 11.6629 17.3322 11.4869C17.9195 11.3129 18.4761 10.9055 18.7911 10.3154L17.0267 9.37365ZM16.5656 9.5389C16.5242 9.51042 16.5048 9.48289 16.4931 9.45817C16.4798 9.43013 16.4691 9.38879 16.4708 9.33378C16.4746 9.21234 16.5358 9.09251 16.6206 9.02517L15.3774 7.45848C14.3154 8.30123 14.0061 10.2062 15.4325 11.187L16.5656 9.5389ZM16.6839 8.97046C16.693 8.96197 16.7269 8.93703 16.7817 8.91864C16.8065 8.91033 16.8289 8.90568 16.8467 8.90366C16.8647 8.90161 16.873 8.9028 16.8716 8.90261L17.1365 6.92023C16.4684 6.83094 15.7704 7.08431 15.3141 7.51319L16.6839 8.97046ZM26.0948 11.1517L24.3358 12.189L25.3517 13.9118L27.1107 12.8745L26.0948 11.1517ZM24.0064 13.597L25.5144 15.9071L27.1891 14.8138L25.6811 12.5037L24.0064 13.597ZM25.9195 14.4587L23.6575 15.543L24.522 17.3465L26.784 16.2622L25.9195 14.4587ZM23.2125 16.9248L24.1674 18.6695L25.9218 17.7092L24.9669 15.9646L23.2125 16.9248ZM25.4767 19.0912L27.8389 17.9594L26.9748 16.1558L24.6126 17.2875L25.4767 19.0912ZM26.5738 17.6107L28.4831 20.4866L30.1493 19.3804L28.24 16.5045L26.5738 17.6107ZM29.8241 20.7949L31.5832 19.7576L30.5673 18.0348L28.8082 19.0721L29.8241 20.7949ZM31.9163 18.3553L30.1578 15.6209L28.4756 16.7027L30.2341 19.4371L31.9163 18.3553ZM29.7475 17.0642L32.6117 15.697L31.7501 13.8921L28.8859 15.2593L29.7475 17.0642ZM33.0581 14.3143L32.1032 12.5702L30.3489 13.5306L31.3038 15.2748L33.0581 14.3143ZM30.8012 12.1451L27.7862 13.5598L28.6358 15.3704L31.6508 13.9557L30.8012 12.1451ZM29.0472 13.9166L27.4389 11.4647L25.7666 12.5615L27.3748 15.0135L29.0472 13.9166ZM21.5938 14.9904L20.5888 15.1789L20.9574 17.1446L21.9624 16.9562L21.5938 14.9904ZM20.4986 15.2002C19.2319 15.5618 17.9335 16.1894 16.8936 17.1103L18.2197 18.6076C18.9894 17.9258 20.0026 17.4217 21.0476 17.1234L20.4986 15.2002ZM16.8363 18.5525L18.2436 20.0142L19.6844 18.6271L18.277 17.1654L16.8363 18.5525ZM19.627 20.0693C20.361 19.4192 21.3279 19.0126 22.3853 18.8469L22.0757 16.871C20.7213 17.0832 19.3766 17.6194 18.301 18.572L19.627 20.0693ZM23.2029 17.6256L22.7505 15.74L20.8057 16.2066L21.2581 18.0922L23.2029 17.6256ZM15.2414 19.1371L14.7895 19.8915L16.5052 20.9193L16.9571 20.165L15.2414 19.1371ZM14.7211 20.0284C14.4451 20.7064 14.2002 21.3954 13.987 22.0934L15.8998 22.6776C16.0954 22.0373 16.3202 21.4049 16.5736 20.7824L14.7211 20.0284ZM13.9494 22.2762L13.7991 23.6435L15.7871 23.862L15.9374 22.4948L13.9494 22.2762ZM14.7042 24.7488L16.8144 24.9372L16.9923 22.9452L14.8821 22.7567L14.7042 24.7488ZM17.9012 24.0075C17.949 23.2869 18.041 22.6678 18.2755 22.1181L16.436 21.3332C16.0673 22.1972 15.9579 23.0868 15.9055 23.8749L17.9012 24.0075ZM18.329 21.9554C18.3813 21.7339 18.491 21.607 18.7624 21.1624L17.0553 20.1203C16.9239 20.3356 16.5306 20.8685 16.3825 21.4958L18.329 21.9554ZM18.3889 19.7641L16.5793 18.7738L15.6192 20.5283L17.4288 21.5186L18.3889 19.7641ZM16.7543 24.576L14.7443 25.0945L15.2438 27.0311L17.2538 26.5127L16.7543 24.576ZM14.0397 26.3617C14.2592 27.0623 14.5129 28.126 15.134 28.9993L16.7639 27.8403C16.3789 27.2989 16.2309 26.6659 15.9483 25.7639L14.0397 26.3617ZM15.0348 28.8253C15.3383 29.5095 15.7591 30.0671 16.1018 30.5265L17.7049 29.3305C17.3442 28.8471 17.0616 28.4619 16.8631 28.0144L15.0348 28.8253ZM17.4713 30.7516L19.1797 29.5728L18.0439 27.9267L16.3354 29.1054L17.4713 30.7516ZM19.4076 28.1443C18.9364 27.5248 18.546 26.9051 18.2917 26.2291L16.4198 26.9332C16.7687 27.8609 17.2831 28.6549 17.8159 29.3552L19.4076 28.1443ZM18.3028 26.2599L17.951 25.2231L16.0571 25.8656L16.4088 26.9024L18.3028 26.2599ZM19.0818 29.3115L17.8253 30.9142L19.3992 32.1482L20.6558 30.5455L19.0818 29.3115ZM18.0204 32.3372C19.2928 33.2717 20.8075 33.9237 22.2039 34.4089L22.8603 32.5197C21.5433 32.0621 20.2434 31.4884 19.2042 30.7252L18.0204 32.3372ZM23.4444 33.8739L24.2485 32.0827L22.4239 31.2636L21.6198 33.0548L23.4444 33.8739ZM23.6878 30.737C22.4152 30.2591 21.3558 29.8352 20.4922 29.1466L19.2454 30.7104C20.3918 31.6245 21.7442 32.1434 22.9847 32.6093L23.6878 30.737ZM24.3935 31.9967L23.5393 33.7883L25.3446 34.649L26.1988 32.8574L24.3935 31.9967ZM24.034 35.1317C25.0479 35.5847 25.8808 36.1012 26.3707 36.8439L28.0402 35.7426C27.2235 34.5047 25.9462 33.7955 24.8499 33.3056L24.034 35.1317ZM27.7302 37.1445L29.4892 36.0602L28.4398 34.3577L26.6807 35.442L27.7302 37.1445ZM29.8008 34.6607C29.3146 33.919 28.7179 33.3695 28.0727 32.8653L26.8412 34.4412C27.4025 34.8798 27.8108 35.2731 28.1282 35.7572L29.8008 34.6607ZM28.0388 32.8399C27.3102 32.3188 26.5251 31.8734 25.6972 31.511L24.8951 33.3431C25.5973 33.6505 26.261 34.0273 26.8752 34.4666L28.0388 32.8399Z" fill="#BB9068" mask="url(#path-1-inside-1_618_556)"/>
</svg>
