<svg width="13" height="11" viewBox="0 0 13 11" fill="none" xmlns="http://www.w3.org/2000/svg">
<path d="M6.06435 0.794621C6.12988 0.860044 6.18186 0.937742 6.21732 1.02326C6.25277 1.10878 6.27101 1.20044 6.27097 1.29298C6.27094 1.38552 6.25264 1.47713 6.21712 1.56254C6.1816 1.64795 6.12956 1.72549 6.06399 1.79072L3.04589 4.80312L11.6592 4.81621C11.8456 4.8165 12.0245 4.89085 12.1563 5.02291C12.2881 5.15497 12.3621 5.33393 12.362 5.52041C12.362 5.70689 12.2878 5.88562 12.1559 6.01728C12.024 6.14894 11.8451 6.22275 11.6586 6.22246L3.04537 6.20937L6.06125 9.23212C6.19329 9.36441 6.26743 9.54368 6.26736 9.73048C6.26729 9.91728 6.19302 10.0963 6.06088 10.2282C5.92874 10.3601 5.74956 10.434 5.56276 10.4338C5.37595 10.4335 5.19683 10.359 5.06479 10.2267L0.847594 6.00154C0.782068 5.93611 0.730087 5.85842 0.69463 5.7729C0.659173 5.68738 0.640939 5.59572 0.640973 5.50318C0.641008 5.41063 0.659309 5.31903 0.694829 5.23362C0.730348 5.14821 0.782387 5.07067 0.847961 5.00544L5.06826 0.793107C5.13361 0.727657 5.21125 0.675764 5.29673 0.640406C5.3822 0.605048 5.47384 0.586918 5.56638 0.587059C5.65892 0.5872 5.75055 0.605608 5.836 0.641226C5.92145 0.676844 5.99905 0.728972 6.06435 0.794621Z" fill="#404040"/>
</svg>
